<svg width="79" height="80" viewBox="0 0 79 80" fill="none" xmlns="http://www.w3.org/2000/svg">
<path d="M0 20C0 17.3478 1.0404 14.8043 2.89232 12.9289C4.74424 11.0536 7.25599 10 9.875 10H69.125C71.744 10 74.2558 11.0536 76.1077 12.9289C77.9596 14.8043 79 17.3478 79 20V45H0V20ZM56.7812 25C56.1265 25 55.4986 25.2634 55.0356 25.7322C54.5726 26.2011 54.3125 26.837 54.3125 27.5V32.5C54.3125 33.163 54.5726 33.7989 55.0356 34.2678C55.4986 34.7366 56.1265 35 56.7812 35H66.6562C67.311 35 67.9389 34.7366 68.4019 34.2678C68.8649 33.7989 69.125 33.163 69.125 32.5V27.5C69.125 26.837 68.8649 26.2011 68.4019 25.7322C67.9389 25.2634 67.311 25 66.6562 25H56.7812ZM0 55V60C0 62.6522 1.0404 65.1957 2.89232 67.0711C4.74424 68.9464 7.25599 70 9.875 70H69.125C71.744 70 74.2558 68.9464 76.1077 67.0711C77.9596 65.1957 79 62.6522 79 60V55H0Z" fill="black"/>
</svg>
