<svg width="80" height="80" viewBox="0 0 80 80" fill="none" xmlns="http://www.w3.org/2000/svg">
<path fill-rule="evenodd" clip-rule="evenodd" d="M55 75C60.3043 75 65.3914 72.8929 69.1421 69.1421C72.8929 65.3914 75 60.3043 75 55C75 49.6957 72.8929 44.6086 69.1421 40.8579C65.3914 37.1071 60.3043 35 55 35C49.6957 35 44.6086 37.1071 40.8579 40.8579C37.1071 44.6086 35 49.6957 35 55C35 60.3043 37.1071 65.3914 40.8579 69.1421C44.6086 72.8929 49.6957 75 55 75V75ZM80 55C80 61.6304 77.3661 67.9893 72.6777 72.6777C67.9893 77.3661 61.6304 80 55 80C48.3696 80 42.0107 77.3661 37.3223 72.6777C32.6339 67.9893 30 61.6304 30 55C30 48.3696 32.6339 42.0107 37.3223 37.3223C42.0107 32.6339 48.3696 30 55 30C61.6304 30 67.9893 32.6339 72.6777 37.3223C77.3661 42.0107 80 48.3696 80 55V55Z" fill="black"/>
<path d="M47.1901 59.72C47.4251 62.7 49.7801 65.02 54.0051 65.3V67.5H55.8801V65.285C60.2551 64.98 62.8101 62.64 62.8101 59.25C62.8101 56.16 60.8601 54.57 57.3601 53.75L55.8801 53.4V47.4C57.7601 47.615 58.9501 48.64 59.2351 50.06H62.5251C62.2901 47.185 59.8251 44.94 55.8801 44.695V42.5H54.0051V44.75C50.2701 45.115 47.7301 47.36 47.7301 50.54C47.7301 53.35 49.6201 55.14 52.7651 55.87L54.0051 56.175V62.535C52.0851 62.245 50.8101 61.185 50.5251 59.72H47.1851H47.1901ZM53.9901 52.95C52.1451 52.525 51.1451 51.65 51.1451 50.34C51.1451 48.87 52.2251 47.77 54.0051 47.45V52.95H53.9901V52.95ZM56.1501 56.68C58.3951 57.2 59.4251 58.04 59.4251 59.525C59.4251 61.22 58.1401 62.38 55.8801 62.595V56.62L56.1501 56.68V56.68Z" fill="black"/>
<path d="M5 0C3.67392 0 2.40215 0.526784 1.46447 1.46447C0.526784 2.40215 0 3.67392 0 5L0 45C0 46.3261 0.526784 47.5979 1.46447 48.5355C2.40215 49.4732 3.67392 50 5 50H25.415C25.705 48.28 26.14 46.61 26.705 45H15C15 42.3478 13.9464 39.8043 12.0711 37.9289C10.1957 36.0536 7.65216 35 5 35V15C7.65216 15 10.1957 13.9464 12.0711 12.0711C13.9464 10.1957 15 7.65216 15 5H65C65 7.65216 66.0536 10.1957 67.9289 12.0711C69.8043 13.9464 72.3478 15 75 15V32.64C76.9 34.34 78.585 36.28 80 38.41V5C80 3.67392 79.4732 2.40215 78.5355 1.46447C77.5979 0.526784 76.3261 0 75 0L5 0Z" fill="black"/>
<path d="M49.99 25.415L50 25C49.999 23.2779 49.5533 21.5853 48.7061 20.0861C47.8589 18.5869 46.6388 17.3319 45.1642 16.4426C43.6895 15.5533 42.0102 15.0598 40.2889 15.0101C38.5676 14.9603 36.8626 15.3559 35.339 16.1586C33.8155 16.9612 32.525 18.1437 31.5926 19.5915C30.6602 21.0392 30.1175 22.7033 30.017 24.4224C29.9166 26.1415 30.2617 27.8574 31.0191 29.404C31.7764 30.9505 32.9203 32.2753 34.34 33.25C38.6588 29.1363 44.1088 26.4078 49.99 25.415V25.415Z" fill="black"/>
</svg>
