<svg width="270" height="53" viewBox="0 0 270 53" fill="none" xmlns="http://www.w3.org/2000/svg">
<path d="M5.91816 45.7084L0 11.8474C4.80029 11.0035 7.23331 10.6013 12.0073 9.86949C14.4764 9.4036 17.0059 9.35679 19.4905 9.73104C21.473 10.0459 23.3103 10.9669 24.7511 12.3682C26.2022 13.8842 27.1071 15.8425 27.3222 17.9326C27.5524 19.3973 27.5369 20.8903 27.2761 22.3498C27.0022 23.7032 26.4342 24.9795 25.6125 26.088C24.5953 27.3878 23.274 28.4159 21.7657 29.0811C19.7337 29.9971 17.5813 30.6165 15.3741 30.9205C13.2041 31.2634 11.4286 31.4941 10.0543 31.5798L12.2046 44.6007C9.68606 45.0491 8.43009 45.26 5.91816 45.7084ZM13.9537 26.5231C15.128 26.352 16.278 26.0421 17.3797 25.6001C18.1783 25.2952 18.9156 24.8485 19.5562 24.2815C20.0443 23.8218 20.4239 23.2587 20.6675 22.6333C20.8977 22.0749 21.0354 21.4825 21.0752 20.8796C21.0994 20.2732 21.0641 19.666 20.97 19.0666C20.8959 18.2502 20.6257 17.464 20.1825 16.7751C19.7394 16.0862 19.1364 15.5152 18.4252 15.1108C17.0048 14.3329 15.1373 14.1219 12.8161 14.4911L7.35825 15.3811L9.33097 27.2483C9.51509 27.2483 11.0604 26.9714 13.9537 26.5099V26.5231Z" fill="#00B4D8"/>
<path d="M41.243 40.8626C39.1275 41.2334 36.9499 40.8085 35.1276 39.6692C33.4617 38.566 32.46 36.786 32.1225 34.329C31.7542 31.6919 32.3811 29.6107 34.0031 28.0856C35.6274 26.589 38.2379 25.4023 41.848 24.6111C42.3412 24.4859 42.8738 24.3606 43.4459 24.2287C44.018 24.0969 44.6624 23.9584 45.3792 23.8068C46.0959 23.6552 46.6614 23.5365 47.0757 23.4442L46.9179 22.0926C46.7381 20.5411 46.234 19.4577 45.4055 18.8424C44.3561 18.1772 43.0921 17.9413 41.8743 18.1831C39.1272 18.6427 36.4813 19.5798 34.0558 20.9521C34.0558 20.9059 33.6744 20.2401 32.9708 18.9742C32.2672 17.7084 31.9121 16.9964 31.8923 16.9964C34.9781 15.2487 38.3848 14.1453 41.9072 13.7527C45.5238 13.3109 48.2528 13.7527 50.0611 15.0712C51.8694 16.3898 52.9544 18.7237 53.3095 22.0729C54.0328 28.7449 54.3879 32.0809 55.1047 38.7528C53.27 38.9506 52.3494 39.0561 50.5017 39.2671C50.5017 39.2077 50.2452 38.7067 49.8046 37.7705C49.3641 36.8343 49.1471 36.3333 49.1471 36.2673C48.1617 37.5079 46.9852 38.5829 45.6619 39.4517C44.3077 40.236 42.8002 40.7173 41.243 40.8626ZM42.3806 36.3333C43.7121 36.2021 44.9783 35.6919 46.0302 34.863C46.9461 34.1663 47.6442 33.2216 48.0423 32.1402L47.4768 27.2087L46.2209 27.4527C45.4383 27.6109 45.0109 27.69 44.9452 27.6966C42.4289 28.224 40.6227 28.9207 39.5268 29.7865C38.9908 30.2143 38.5841 30.783 38.3518 31.4291C38.1196 32.0753 38.071 32.7734 38.2116 33.4456C38.245 33.9134 38.3801 34.3682 38.6072 34.7782C38.8344 35.1882 39.1483 35.5434 39.5268 35.819C40.3835 36.3341 41.3986 36.517 42.3806 36.3333Z" fill="#00B4D8"/>
<path d="M61.3712 38.087L58.833 12.5001C60.9898 12.2825 62.0683 12.177 64.2251 11.9793C64.6986 13.5154 64.9419 14.2802 65.4153 15.8163C66.1062 14.4454 67.1518 13.2858 68.4428 12.4588C69.7338 11.6319 71.2227 11.1679 72.7538 11.1156C73.3265 11.0621 73.9022 11.0489 74.4767 11.076C74.6016 13.1198 74.6608 14.1417 74.7857 16.1921C74.1093 16.1429 73.4302 16.1429 72.7538 16.1921C70.3997 16.3899 68.69 17.1415 67.6379 18.4403C66.5858 19.7391 66.1584 21.4598 66.3228 23.5827C66.8291 29.1405 67.0856 31.9227 67.5919 37.4739L61.3712 38.087Z" fill="#00B4D8"/>
<path d="M80.2765 36.4388L77.6462 1.34493C80.2371 0.988912 81.5325 0.817498 84.1299 0.487854C84.5442 6.79064 84.7875 9.94203 85.1689 16.2514L85.3661 21.44L85.833 20.9389L86.3196 20.4181C87.1438 19.3501 88.0447 18.2513 89.0223 17.1217C89.9999 15.9921 91.2492 14.5988 92.7704 12.9418L95.769 9.6915C98.8333 9.52668 100.372 9.45416 103.436 9.3289C99.1752 13.8912 97.0775 16.1921 92.9151 20.8137C97.0666 25.4814 101.152 30.2085 105.172 34.9949C102.161 35.1202 100.655 35.1861 97.643 35.3444C93.9606 30.8546 92.0931 28.6262 88.3121 24.1826L85.8133 26.3583C86.0698 30.2151 86.1947 32.1468 86.4709 36.0037C84.0115 36.1685 82.7622 36.2542 80.2765 36.4388Z" fill="#00B4D8"/>
<path d="M107.191 5.43253L106.994 0.217565C109.624 0.118672 110.939 0.0791145 113.57 0C113.629 2.09653 113.655 3.1448 113.721 5.2743C111.09 5.28749 109.788 5.33363 107.191 5.43253ZM108.263 34.8697C107.943 26.3034 107.623 17.7326 107.303 9.1575C109.881 9.0652 111.169 9.01905 113.747 8.94653C113.993 17.5129 114.24 26.0836 114.49 34.6587C112.024 34.7379 110.781 34.7774 108.263 34.8697Z" fill="#00B4D8"/>
<path d="M121.013 34.5005L120.481 8.78828C122.559 8.74872 123.597 8.72894 125.669 8.70257L126.425 11.9397C127.61 10.7075 129.026 9.72334 130.593 9.04431C132.16 8.36527 133.845 8.00485 135.552 7.98395C138.702 7.98395 141.063 8.85421 142.608 10.6211C144.153 12.388 144.909 14.8603 144.87 18.137C144.804 24.6441 144.771 27.8944 144.699 34.4016C142.2 34.4016 140.951 34.4016 138.445 34.362C138.445 28.1581 138.445 25.0529 138.485 18.849C138.485 16.7701 138.139 15.2163 137.446 14.1878C136.788 13.1594 135.526 12.6451 133.75 12.6517C132.418 12.6361 131.107 12.9897 129.963 13.6736C128.881 14.2435 128.013 15.1505 127.49 16.258C127.109 17.3129 127.063 19.3501 127.096 21.8817C127.155 26.8857 127.188 29.391 127.247 34.4082C124.748 34.428 123.505 34.4543 121.013 34.5005Z" fill="#00B4D8"/>
<path d="M155.779 46.0974L155.549 41.1263L158.686 41.212C162.315 41.3175 164.873 40.9417 166.359 40.0385C167.846 39.1353 168.641 37.4014 168.753 34.8565C168.793 33.8104 168.793 32.6765 168.753 31.4546C168.374 31.9258 167.958 32.3667 167.51 32.7732C167.066 33.1785 166.581 33.5365 166.064 33.8412C165.426 34.1989 164.732 34.4463 164.012 34.573C163.126 34.7256 162.227 34.7831 161.329 34.7444C159.724 34.7403 158.138 34.3896 156.68 33.7161C155.222 33.0426 153.926 32.0622 152.879 30.8414C150.687 28.3493 149.62 25.1694 149.677 21.3016C149.686 19.3836 150.041 17.4831 150.722 15.691C151.273 14.1919 152.141 12.8303 153.267 11.7C154.394 10.5698 155.751 9.69788 157.246 9.1443C158.716 8.59397 160.28 8.34077 161.849 8.39931C165.478 8.51798 168.128 9.88271 169.785 12.4671C170.016 11.2211 170.127 10.5947 170.358 9.34868C172.659 9.44758 173.81 9.50691 176.111 9.61899C175.708 17.5788 175.309 25.5342 174.915 33.4852C174.863 34.6364 174.742 35.7834 174.553 36.9201C174.38 37.9159 174.109 38.8921 173.744 39.8341C173.415 40.6994 172.958 41.5105 172.389 42.2405C171.812 42.943 171.137 43.558 170.384 44.0668C169.531 44.6442 168.595 45.0887 167.609 45.3853C166.417 45.7344 165.195 45.9684 163.959 46.0842C162.414 46.2344 160.861 46.2806 159.31 46.2226L155.779 46.0974ZM162.467 30.492C166.787 30.6371 169.095 27.9142 169.378 22.2575L169.417 21.3675C169.492 18.8226 169.023 16.8448 168.01 15.4339C167.475 14.7103 166.775 14.1257 165.968 13.7289C165.162 13.332 164.272 13.1345 163.374 13.1528C161.033 13.0671 159.225 13.8121 157.975 15.2955C156.726 16.7789 156.082 18.8556 156.003 21.4598C155.873 23.6989 156.443 25.9228 157.633 27.8219C158.147 28.6412 158.86 29.3161 159.706 29.7831C160.551 30.2502 161.501 30.4941 162.467 30.492Z" fill="#00B4D8"/>
<path d="M177.729 35.4499C182.665 24.242 187.739 13.1022 192.952 2.03058C195.878 2.24155 197.344 2.35363 200.27 2.58438C203.694 14.3197 206.982 26.0924 210.134 37.9024C207.504 37.6453 206.189 37.5266 203.558 37.2893C202.519 33.3335 201.993 31.3161 200.928 27.3406C195.996 26.9253 193.53 26.7407 188.599 26.4044C186.928 30.1756 186.106 32.0677 184.476 35.8454C181.76 35.674 180.418 35.5949 177.729 35.4499ZM190.532 21.8026C194.168 22.0531 195.99 22.1916 199.626 22.4619C197.456 13.2319 196.259 8.50478 196.2 8.20151C193.899 13.6538 192.768 16.3635 190.532 21.8026Z" fill="#00B4D8"/>
<path d="M212.159 48.8466C213.383 36.7729 214.601 24.6969 215.816 12.6188C218.018 12.8429 219.103 12.9616 221.326 13.1989L221.622 16.858C222.633 15.6134 223.963 14.6677 225.469 14.1219C227.072 13.542 228.791 13.3588 230.479 13.5879C232.555 13.7945 234.512 14.6555 236.069 16.0471C237.611 17.4615 238.712 19.2933 239.238 21.3214C239.839 23.5894 239.967 25.9572 239.613 28.2768C239.087 32.2326 237.68 35.3092 235.391 37.5069C234.307 38.5921 232.983 39.4051 231.526 39.8794C230.069 40.3537 228.521 40.476 227.007 40.2363C225.463 40.0787 223.975 39.5715 222.654 38.7529C221.428 37.9906 220.382 36.9691 219.59 35.7598C219.472 38.0057 219.397 39.2694 219.366 39.5507L218.314 49.2026C215.829 49.0444 214.599 49.0048 212.159 48.8466ZM226.199 35.4235C227.062 35.5504 227.943 35.4567 228.76 35.1513C229.577 34.8459 230.304 34.3386 230.874 33.6764C232.13 32.2919 232.945 30.1954 233.294 27.3736C233.642 24.5519 233.379 22.2905 232.459 20.7148C232.01 19.9456 231.381 19.2978 230.625 18.8279C229.87 18.3579 229.012 18.08 228.125 18.0183C223.904 17.5173 221.444 20.0621 220.826 25.5276C220.465 28.6724 220.767 31.0722 221.675 32.6677C222.145 33.4646 222.803 34.1329 223.592 34.6136C224.381 35.0943 225.277 35.3725 226.199 35.4235Z" fill="#00B4D8"/>
<path d="M241.435 52.4001L246.504 16.3436L251.995 17.1414C252.054 18.6116 252.087 19.3434 252.146 20.807C253.204 19.6048 254.568 18.7137 256.092 18.2292C257.72 17.7171 259.447 17.6019 261.129 17.893C263.196 18.1893 265.119 19.1277 266.626 20.5763C268.109 22.0386 269.136 23.9004 269.585 25.9363C270.1 28.2269 270.136 30.5997 269.69 32.9049C269.033 36.8211 267.474 39.8406 265.087 41.9767C263.963 43.0158 262.61 43.7755 261.139 44.1946C259.668 44.6137 258.12 44.6806 256.618 44.3897C255.081 44.1619 253.615 43.5944 252.324 42.7283C251.129 41.9181 250.122 40.8589 249.371 39.6231C249.168 41.858 249.049 43.1173 249.003 43.4008C248.431 47.2378 248.148 49.1629 247.576 53C245.117 52.7429 243.887 52.6242 241.435 52.4001ZM256.033 39.5439C256.889 39.7048 257.772 39.6459 258.6 39.3727C259.428 39.0995 260.173 38.6209 260.767 37.9814C262.082 36.6629 262.974 34.5971 263.444 31.7841C263.913 28.9712 263.72 26.7428 262.865 25.099C262.448 24.309 261.845 23.633 261.108 23.1298C260.371 22.6266 259.523 22.3113 258.637 22.2113C254.435 21.552 251.87 23.9848 251.035 29.4239C250.555 32.5555 250.759 34.9619 251.607 36.5969C252.046 37.4155 252.679 38.1127 253.451 38.6268C254.223 39.1409 255.11 39.456 256.033 39.5439Z" fill="#00B4D8"/>
</svg>
