<svg width="500" height="500" viewBox="0 0 500 500" fill="none" xmlns="http://www.w3.org/2000/svg">
<path d="M500 382.4H0V382.65H500V382.4Z" fill="#EBEBEB"/>
<path d="M237 337.8H43.91C42.3973 337.797 40.9475 337.195 39.8788 336.124C38.8102 335.053 38.21 333.603 38.21 332.09V60.66C38.2231 59.156 38.8292 57.718 39.8964 56.6582C40.9637 55.5985 42.4059 55.0026 43.91 55H237C238.514 55 239.967 55.6016 241.038 56.6724C242.108 57.7433 242.71 59.1956 242.71 60.71V332.09C242.71 333.604 242.108 335.057 241.038 336.128C239.967 337.198 238.514 337.8 237 337.8ZM43.91 55.2C42.4636 55.2026 41.0774 55.7791 40.0556 56.8027C39.0338 57.8264 38.46 59.2136 38.46 60.66V332.09C38.46 333.536 39.0338 334.924 40.0556 335.947C41.0774 336.971 42.4636 337.547 43.91 337.55H237C238.447 337.547 239.834 336.971 240.858 335.948C241.881 334.924 242.457 333.537 242.46 332.09V60.66C242.457 59.2127 241.881 57.8255 240.858 56.8021C239.834 55.7787 238.447 55.2026 237 55.2H43.91Z" fill="#EBEBEB"/>
<path d="M453.31 337.8H260.21C258.696 337.797 257.246 337.195 256.175 336.125C255.105 335.054 254.503 333.604 254.5 332.09V60.66C254.516 59.1551 255.124 57.7171 256.193 56.6576C257.262 55.5981 258.705 55.0025 260.21 55H453.31C454.812 55.0052 456.252 55.6022 457.317 56.6617C458.382 57.7212 458.987 59.1578 459 60.66V332.09C459 333.601 458.401 335.05 457.335 336.121C456.268 337.191 454.821 337.795 453.31 337.8ZM260.21 55.2C258.763 55.2026 257.375 55.7787 256.352 56.8021C255.329 57.8255 254.753 59.2127 254.75 60.66V332.09C254.753 333.537 255.329 334.924 256.352 335.948C257.375 336.971 258.763 337.547 260.21 337.55H453.31C454.757 337.547 456.145 336.971 457.168 335.948C458.191 334.924 458.767 333.537 458.77 332.09V60.66C458.767 59.2127 458.191 57.8255 457.168 56.8021C456.145 55.7787 454.757 55.2026 453.31 55.2H260.21Z" fill="#EBEBEB"/>
<path d="M449.9 398.49H423.9V398.74H449.9V398.49Z" fill="#EBEBEB"/>
<path d="M356.03 401.21H311V401.46H356.03V401.21Z" fill="#EBEBEB"/>
<path d="M422.9 389.21H362.11V389.46H422.9V389.21Z" fill="#EBEBEB"/>
<path d="M71.69 390.89H52.46V391.14H71.69V390.89Z" fill="#EBEBEB"/>
<path d="M135.89 390.89H80.6001V391.14H135.89V390.89Z" fill="#EBEBEB"/>
<path d="M244.14 395.11H169.67V395.36H244.14V395.11Z" fill="#EBEBEB"/>
<path d="M67.44 309.02H46.24V382.4H67.44V309.02Z" fill="#FAFAFA"/>
<path d="M86 325.12H64.8V382.4H86V325.12Z" fill="#FAFAFA"/>
<path d="M99.5601 277.92H78.3601V382.4H99.5601V277.92Z" fill="#FAFAFA"/>
<path d="M113.65 193.2H92.45V382.4H113.65V193.2Z" fill="#FAFAFA"/>
<path d="M166.09 207.93H109.2V382.4H166.09V207.93Z" fill="#FAFAFA"/>
<path d="M387.28 382.4H411.5V332.18H387.28V382.4Z" fill="#FAFAFA"/>
<path d="M366.06 382.4H390.28V343.2H366.06V382.4Z" fill="#FAFAFA"/>
<path d="M350.58 382.4H374.8V310.89H350.58V382.4Z" fill="#FAFAFA"/>
<path d="M334.48 382.4H358.7V252.91H334.48V382.4Z" fill="#FAFAFA"/>
<path d="M347.5 224.21H273.17V382.4H347.5V224.21Z" fill="#F0F0F0"/>
<path d="M340.42 230.84H336.88V250.09H340.42V230.84Z" fill="#F5F5F5"/>
<path d="M340.42 260.95H336.88V280.2H340.42V260.95Z" fill="#F5F5F5"/>
<path d="M340.42 291.05H336.88V310.3H340.42V291.05Z" fill="#F5F5F5"/>
<path d="M340.42 321.15H336.88V340.4H340.42V321.15Z" fill="#F5F5F5"/>
<path d="M340.42 351.26H336.88V370.51H340.42V351.26Z" fill="#F5F5F5"/>
<path d="M327.88 230.84H324.34V250.09H327.88V230.84Z" fill="#F5F5F5"/>
<path d="M327.88 260.95H324.34V280.2H327.88V260.95Z" fill="#F5F5F5"/>
<path d="M327.88 291.05H324.34V310.3H327.88V291.05Z" fill="#F5F5F5"/>
<path d="M327.88 321.15H324.34V340.4H327.88V321.15Z" fill="#F5F5F5"/>
<path d="M327.88 351.26H324.34V370.51H327.88V351.26Z" fill="#F5F5F5"/>
<path d="M315.34 230.84H311.8V250.09H315.34V230.84Z" fill="#F5F5F5"/>
<path d="M315.34 260.95H311.8V280.2H315.34V260.95Z" fill="#F5F5F5"/>
<path d="M315.34 291.05H311.8V310.3H315.34V291.05Z" fill="#F5F5F5"/>
<path d="M315.34 321.15H311.8V340.4H315.34V321.15Z" fill="#F5F5F5"/>
<path d="M315.34 351.26H311.8V370.51H315.34V351.26Z" fill="#F5F5F5"/>
<path d="M302.8 230.84H299.26V250.09H302.8V230.84Z" fill="#F5F5F5"/>
<path d="M302.8 260.95H299.26V280.2H302.8V260.95Z" fill="#F5F5F5"/>
<path d="M302.8 291.05H299.26V310.3H302.8V291.05Z" fill="#F5F5F5"/>
<path d="M302.8 321.15H299.26V340.4H302.8V321.15Z" fill="#F5F5F5"/>
<path d="M302.8 351.26H299.26V370.51H302.8V351.26Z" fill="#F5F5F5"/>
<path d="M290.25 230.84H286.71V250.09H290.25V230.84Z" fill="#F5F5F5"/>
<path d="M290.25 260.95H286.71V280.2H290.25V260.95Z" fill="#F5F5F5"/>
<path d="M290.25 291.05H286.71V310.3H290.25V291.05Z" fill="#F5F5F5"/>
<path d="M290.25 321.15H286.71V340.4H290.25V321.15Z" fill="#F5F5F5"/>
<path d="M290.25 351.26H286.71V370.51H290.25V351.26Z" fill="#F5F5F5"/>
<path opacity="0.5" d="M273.17 224.21H288.48L295.14 382.4H273.17V224.21Z" fill="#E0E0E0"/>
<path d="M236.63 163.09L280.71 171.43V382.4H236.63V163.09Z" fill="#F0F0F0"/>
<path d="M236.63 163.09H201.36V382.4H236.63V163.09Z" fill="#E6E6E6"/>
<path d="M201.36 182.39H280.71V181.27H201.36V182.39Z" fill="#E0E0E0"/>
<path d="M201.36 194.33H280.71V193.21H201.36V194.33Z" fill="#E0E0E0"/>
<path d="M201.36 206.27H280.71V205.15H201.36V206.27Z" fill="#E0E0E0"/>
<path d="M201.36 218.2H280.71V217.08H201.36V218.2Z" fill="#E0E0E0"/>
<path d="M201.36 230.15H280.71V229.03H201.36V230.15Z" fill="#E0E0E0"/>
<path d="M201.36 242.09H280.71V240.97H201.36V242.09Z" fill="#E0E0E0"/>
<path d="M201.36 254.03H280.71V252.91H201.36V254.03Z" fill="#E0E0E0"/>
<path d="M201.36 265.97H280.71V264.85H201.36V265.97Z" fill="#E0E0E0"/>
<path d="M201.36 277.92H280.71V276.8H201.36V277.92Z" fill="#E0E0E0"/>
<path d="M201.36 289.86H280.71V288.74H201.36V289.86Z" fill="#E0E0E0"/>
<path d="M201.36 301.8H280.71V300.68H201.36V301.8Z" fill="#E0E0E0"/>
<path d="M201.36 313.73H280.71V312.61H201.36V313.73Z" fill="#E0E0E0"/>
<path d="M201.36 325.68H280.71V324.56H201.36V325.68Z" fill="#E0E0E0"/>
<path d="M201.36 337.62H280.71V336.5H201.36V337.62Z" fill="#E0E0E0"/>
<path d="M201.36 349.56H280.71V348.44H201.36V349.56Z" fill="#E0E0E0"/>
<path d="M201.36 361.5H280.71V360.38H201.36V361.5Z" fill="#E0E0E0"/>
<path d="M201.36 373.45H280.71V372.33H201.36V373.45Z" fill="#E0E0E0"/>
<path d="M182.07 116.48H145.2V382.4H182.07V116.48Z" fill="#F0F0F0"/>
<path d="M182.07 116.48H145.2L158.77 93H211.57L182.07 116.48Z" fill="#FAFAFA"/>
<path d="M182.07 116.48L211.57 93V382.4H182.07V116.48Z" fill="#EBEBEB"/>
<path d="M211.57 128.87H145.2V130.29H211.57V128.87Z" fill="#E0E0E0"/>
<path d="M211.57 143.92H145.2V145.34H211.57V143.92Z" fill="#E0E0E0"/>
<path d="M211.57 158.97H145.2V160.39H211.57V158.97Z" fill="#E0E0E0"/>
<path d="M211.57 174.03H145.2V175.45H211.57V174.03Z" fill="#E0E0E0"/>
<path d="M211.57 189.08H145.2V190.5H211.57V189.08Z" fill="#E0E0E0"/>
<path d="M211.57 204.13H145.2V205.55H211.57V204.13Z" fill="#E0E0E0"/>
<path d="M211.57 219.18H145.2V220.6H211.57V219.18Z" fill="#E0E0E0"/>
<path d="M211.57 234.23H145.2V235.65H211.57V234.23Z" fill="#E0E0E0"/>
<path d="M211.57 249.28H145.2V250.7H211.57V249.28Z" fill="#E0E0E0"/>
<path d="M211.57 264.34H145.2V265.76H211.57V264.34Z" fill="#E0E0E0"/>
<path d="M211.57 279.39H145.2V280.81H211.57V279.39Z" fill="#E0E0E0"/>
<path d="M211.57 294.44H145.2V295.86H211.57V294.44Z" fill="#E0E0E0"/>
<path d="M211.57 309.49H145.2V310.91H211.57V309.49Z" fill="#E0E0E0"/>
<path d="M211.57 324.54H145.2V325.96H211.57V324.54Z" fill="#E0E0E0"/>
<path d="M211.57 339.59H145.2V341.01H211.57V339.59Z" fill="#E0E0E0"/>
<path d="M211.57 354.65H145.2V356.07H211.57V354.65Z" fill="#E0E0E0"/>
<path d="M211.57 369.7H145.2V371.12H211.57V369.7Z" fill="#E0E0E0"/>
<path d="M138.8 245.16H98.55V382.4H138.8V245.16Z" fill="#F0F0F0"/>
<path d="M112.93 252.25H106.47V274.28H112.93V252.25Z" fill="#E6E6E6"/>
<path d="M128.78 252.25H122.32V274.28H128.78V252.25Z" fill="#E6E6E6"/>
<path d="M112.93 280.78H106.47V302.81H112.93V280.78Z" fill="#E6E6E6"/>
<path d="M128.78 280.78H122.32V302.81H128.78V280.78Z" fill="#E6E6E6"/>
<path d="M112.93 309.3H106.47V331.33H112.93V309.3Z" fill="#E6E6E6"/>
<path d="M128.78 309.3H122.32V331.33H128.78V309.3Z" fill="#E6E6E6"/>
<path d="M112.93 337.83H106.47V359.86H112.93V337.83Z" fill="#E6E6E6"/>
<path d="M128.78 337.83H122.32V359.86H128.78V337.83Z" fill="#E6E6E6"/>
<path d="M138.79 245.16H98.55L107.99 235.65H148.24L138.79 245.16Z" fill="white"/>
<path d="M138.79 245.16L148.24 235.65L157.68 245.16V382.4H138.79V245.16Z" fill="#E6E6E6"/>
<path d="M250 427.56C357.083 427.56 443.89 422.492 443.89 416.24C443.89 409.988 357.083 404.92 250 404.92C142.918 404.92 56.1101 409.988 56.1101 416.24C56.1101 422.492 142.918 427.56 250 427.56Z" fill="#F5F5F5"/>
<path d="M416.95 114.58H289.42C284.289 114.58 280.13 118.739 280.13 123.87V406.94C280.13 412.071 284.289 416.23 289.42 416.23H416.95C422.081 416.23 426.24 412.071 426.24 406.94V123.87C426.24 118.739 422.081 114.58 416.95 114.58Z" fill="#00B4D8"/>
<path d="M411.17 114.58H283.64C278.509 114.58 274.35 118.739 274.35 123.87V406.94C274.35 412.071 278.509 416.23 283.64 416.23H411.17C416.301 416.23 420.46 412.071 420.46 406.94V123.87C420.46 118.739 416.301 114.58 411.17 114.58Z" fill="#00B4D8"/>
<path opacity="0.7" d="M411.17 114.58H283.64C278.509 114.58 274.35 118.739 274.35 123.87V406.94C274.35 412.071 278.509 416.23 283.64 416.23H411.17C416.301 416.23 420.46 412.071 420.46 406.94V123.87C420.46 118.739 416.301 114.58 411.17 114.58Z" fill="white"/>
<g opacity="0.9">
<path opacity="0.9" d="M303.68 114.58H295.77V416.23H303.68V114.58Z" fill="white"/>
<path opacity="0.9" d="M387.37 114.58H382.52V416.23H387.37V114.58Z" fill="white"/>
<path opacity="0.9" d="M274.35 180.1V188.01L420.46 178.96V171.05L274.35 180.1Z" fill="white"/>
<path opacity="0.9" d="M274.36 366.97V374.88H420.47V366.97H274.36Z" fill="white"/>
<path opacity="0.9" d="M274.35 219.59V223.9H420.46V219.59H274.35Z" fill="white"/>
<path opacity="0.9" d="M274.35 321.56V330.62L420.46 281.18V272.12L274.35 321.56Z" fill="white"/>
<path opacity="0.9" d="M325.56 114.58H317.65L338.91 416.24H346.82L325.56 114.58Z" fill="white"/>
</g>
<path d="M395 385.29H221.05V331.07H374.38L388.69 342.7C390.668 344.305 392.262 346.333 393.353 348.634C394.445 350.936 395.008 353.453 395 356V385.29Z" fill="#00B4D8"/>
<path opacity="0.5" d="M395 385.29H221.05V331.07H374.38L388.69 342.7C390.668 344.305 392.262 346.333 393.353 348.634C394.445 350.936 395.008 353.453 395 356V385.29Z" fill="black"/>
<path d="M220.05 380.4C220.05 360.61 229.05 344.57 240.05 344.57H218.83C207.76 344.57 198.83 360.57 198.83 380.4C198.83 400.23 207.83 416.24 218.83 416.24H240.09C229 416.24 220.05 400.19 220.05 380.4Z" fill="#263238"/>
<path d="M240.09 416.23C251.158 416.23 260.13 400.188 260.13 380.4C260.13 360.612 251.158 344.57 240.09 344.57C229.022 344.57 220.05 360.612 220.05 380.4C220.05 400.188 229.022 416.23 240.09 416.23Z" fill="#263238"/>
<path d="M241.7 408.34C249.548 408.34 255.91 395.831 255.91 380.4C255.91 364.969 249.548 352.46 241.7 352.46C233.852 352.46 227.49 364.969 227.49 380.4C227.49 395.831 233.852 408.34 241.7 408.34Z" fill="white"/>
<path d="M104.54 380.4C104.54 360.61 113.54 344.57 124.54 344.57H103.32C92.2501 344.57 83.3201 360.57 83.3201 380.4C83.3201 400.23 92.3201 416.24 103.32 416.24H124.58C113.51 416.24 104.54 400.19 104.54 380.4Z" fill="#263238"/>
<path d="M124.58 416.23C135.648 416.23 144.62 400.188 144.62 380.4C144.62 360.612 135.648 344.57 124.58 344.57C113.512 344.57 104.54 360.612 104.54 380.4C104.54 400.188 113.512 416.23 124.58 416.23Z" fill="#263238"/>
<path d="M357.38 380.4C357.38 360.61 366.38 344.57 377.38 344.57H356.16C345.1 344.57 336.16 360.57 336.16 380.4C336.16 400.23 345.16 416.24 356.16 416.24H377.42C366.36 416.24 357.38 400.19 357.38 380.4Z" fill="#263238"/>
<path d="M377.42 416.23C388.488 416.23 397.46 400.188 397.46 380.4C397.46 360.612 388.488 344.57 377.42 344.57C366.352 344.57 357.38 360.612 357.38 380.4C357.38 400.188 366.352 416.23 377.42 416.23Z" fill="#263238"/>
<path d="M379.04 408.34C386.888 408.34 393.25 395.831 393.25 380.4C393.25 364.969 386.888 352.46 379.04 352.46C371.192 352.46 364.83 364.969 364.83 380.4C364.83 395.831 371.192 408.34 379.04 408.34Z" fill="white"/>
<path d="M196.37 390.4H170.66L169.22 389C167.741 387.518 165.734 386.683 163.64 386.68H99.38C97.286 386.683 95.279 387.518 93.8 389L92.92 389.87H90.58C88.7618 389.87 86.9616 389.511 85.2827 388.813C83.6038 388.115 82.0794 387.092 80.7971 385.803C79.5147 384.514 78.4997 382.985 77.8103 381.302C77.1209 379.62 76.7707 377.818 76.78 376V354.85H222.6L211 380.07C209.93 383.094 207.948 385.712 205.328 387.562C202.708 389.412 199.578 390.404 196.37 390.4Z" fill="#00B4D8"/>
<path opacity="0.2" d="M196.37 390.4H170.66L169.22 389C167.741 387.518 165.734 386.683 163.64 386.68H99.38C97.286 386.683 95.279 387.518 93.8 389L92.92 389.87H90.58C88.7618 389.87 86.9616 389.511 85.2827 388.813C83.6038 388.115 82.0794 387.092 80.7971 385.803C79.5147 384.514 78.4997 382.985 77.8103 381.302C77.1209 379.62 76.7707 377.818 76.78 376V354.85H222.6L211 380.07C209.93 383.094 207.948 385.712 205.328 387.562C202.708 389.412 199.578 390.404 196.37 390.4Z" fill="black"/>
<path d="M348.16 264.68C348.071 264.682 347.985 264.657 347.91 264.61C347.853 264.578 347.802 264.535 347.762 264.483C347.722 264.431 347.693 264.371 347.676 264.308C347.659 264.245 347.655 264.179 347.665 264.114C347.674 264.049 347.696 263.986 347.73 263.93L354.73 251.93C354.759 251.866 354.801 251.809 354.853 251.763C354.905 251.716 354.966 251.681 355.033 251.66C355.1 251.638 355.17 251.631 355.24 251.639C355.309 251.646 355.376 251.668 355.437 251.704C355.497 251.739 355.55 251.786 355.591 251.843C355.632 251.9 355.66 251.964 355.675 252.033C355.689 252.101 355.689 252.172 355.674 252.24C355.66 252.309 355.631 252.373 355.59 252.43L348.59 264.43C348.546 264.506 348.484 264.568 348.408 264.612C348.333 264.656 348.247 264.679 348.16 264.68Z" fill="#263238"/>
<path d="M385.08 324.38V310.74C385.08 303.57 374.66 269.74 360.33 263.4C346 257.06 311.33 254.24 289.49 255.4C267.65 256.56 238.49 302.24 238.49 302.24L241.66 341.52C246.1 341.52 260.24 340.18 262.31 379.04C262.449 381.78 263.636 384.361 265.626 386.249C267.617 388.136 270.257 389.186 273 389.18H349.46C352.028 389.178 354.51 388.248 356.447 386.561C358.384 384.874 359.645 382.544 360 380C362 366.15 367.22 341.49 379.81 341.49C388.64 341.49 394.97 349.05 394.97 357.72C394.972 348.195 392.659 338.812 388.23 330.38L385.08 324.38Z" fill="#00B4D8"/>
<path d="M209.49 255.4C169.72 255.4 124.66 302.24 124.66 302.24H238.53C238.53 302.24 267.66 256.57 289.53 255.4H209.49Z" fill="#00B4D8"/>
<path opacity="0.4" d="M211.93 255.4C178.43 255.4 143.29 288.64 133.04 299.11C132.785 299.369 132.613 299.698 132.545 300.055C132.476 300.411 132.515 300.78 132.657 301.115C132.798 301.45 133.035 301.735 133.338 301.935C133.641 302.136 133.997 302.242 134.36 302.24H226.22C229.917 302.25 233.565 301.388 236.866 299.724C240.168 298.059 243.03 295.639 245.22 292.66C255.1 279.2 274.13 256.23 289.53 255.4H211.93Z" fill="white"/>
<path d="M238.53 302.24L196.47 335.43L83.28 335.07C83.28 335.07 76.78 344.52 76.78 354.85H222.6C224.99 348.52 233.37 341.52 241.7 341.52C241.7 329.74 238.53 302.24 238.53 302.24Z" fill="#00B4D8"/>
<path opacity="0.2" d="M211 325.65C210.88 325.649 210.765 325.605 210.675 325.526C210.585 325.447 210.527 325.338 210.51 325.22C210.493 325.09 210.527 324.959 210.606 324.854C210.684 324.75 210.801 324.68 210.93 324.66C221.026 323.023 230.474 318.628 238.23 311.96C239.763 310.67 240.761 308.856 241.029 306.87C241.298 304.884 240.816 302.87 239.68 301.22C239.638 301.166 239.608 301.105 239.591 301.039C239.574 300.974 239.571 300.905 239.581 300.838C239.591 300.771 239.615 300.707 239.651 300.649C239.687 300.592 239.734 300.542 239.79 300.503C239.845 300.464 239.908 300.437 239.975 300.424C240.041 300.41 240.11 300.41 240.176 300.424C240.243 300.438 240.306 300.465 240.361 300.504C240.417 300.543 240.464 300.592 240.5 300.65C241.774 302.505 242.314 304.769 242.012 306.999C241.711 309.23 240.591 311.269 238.87 312.72C230.978 319.512 221.359 323.984 211.08 325.64L211 325.65Z" fill="black"/>
<path d="M83.28 335.07C83.28 335.07 103.16 311.9 124.66 302.24H238.53L196.47 335.43L83.28 335.07Z" fill="#00B4D8"/>
<path d="M171.33 335.07H96.6599V337.24H171.33V335.07Z" fill="#263238"/>
<path d="M169.78 330.73L173.78 326.73C174.679 325.832 175.818 325.21 177.06 324.94L207.27 318.36C208.332 318.128 209.435 318.162 210.48 318.46L212.1 318.91C213.179 319.214 214.163 319.786 214.961 320.572C215.759 321.359 216.345 322.334 216.664 323.408C216.984 324.482 217.026 325.62 216.787 326.715C216.549 327.81 216.037 328.826 215.3 329.67L208.8 337.1C207.679 338.378 206.112 339.18 204.42 339.34L175.09 342C174.121 342.092 173.144 341.97 172.228 341.642C171.312 341.313 170.479 340.787 169.79 340.1C168.55 338.857 167.852 337.173 167.85 335.417C167.848 333.661 168.542 331.976 169.78 330.73Z" fill="white"/>
<path d="M98.7698 332.85L95.4599 326.66C94.9939 325.793 94.303 325.068 93.4599 324.56C92.659 324.08 91.748 323.813 90.8145 323.787C89.881 323.761 88.9564 323.975 88.1298 324.41L85.6199 325.73C84.3871 326.382 83.4499 327.48 82.9999 328.8L81.4699 333.33C81.2154 334.076 81.1258 334.868 81.2071 335.652C81.2884 336.436 81.5387 337.193 81.9408 337.87C82.3429 338.548 82.8872 339.131 83.5361 339.578C84.1851 340.025 84.9233 340.326 85.6998 340.46L92.6099 341.65C93.7369 341.845 94.8968 341.681 95.9252 341.18C96.9536 340.679 97.7983 339.867 98.3398 338.86L98.7999 338.01C99.2232 337.215 99.4422 336.327 99.4369 335.426C99.4317 334.525 99.2025 333.64 98.7698 332.85Z" fill="white"/>
<path opacity="0.4" d="M261.79 303.57H367.07C367.963 303.57 368.843 303.362 369.64 302.962C370.438 302.561 371.131 301.979 371.663 301.263C372.196 300.547 372.553 299.716 372.707 298.837C372.861 297.958 372.807 297.055 372.55 296.2C370.15 288.2 365.55 275.69 358.64 269.31C357.872 268.607 356.929 268.124 355.91 267.91C343.5 265.28 323.55 263.53 308.75 262.51C302.042 262.051 295.313 263.05 289.028 265.439C282.743 267.829 277.05 271.551 272.34 276.35C266.709 282.038 261.623 288.242 257.15 294.88C256.589 295.721 256.268 296.698 256.218 297.708C256.169 298.717 256.395 299.721 256.871 300.613C257.347 301.505 258.056 302.25 258.922 302.771C259.788 303.292 260.779 303.568 261.79 303.57Z" fill="white"/>
<path d="M193.72 366.57C193.72 369.85 190.36 372.52 186.22 372.52C182.08 372.52 178.72 369.85 178.72 366.57C178.72 363.29 182.07 360.63 186.22 360.63C190.37 360.63 193.72 363.29 193.72 366.57Z" fill="#263238"/>
<path d="M133.29 330.53C135.75 330.53 136.95 333.05 135.97 336.15C134.99 339.25 132.21 341.78 129.74 341.78C127.27 341.78 126.08 339.26 127.06 336.15C128.04 333.04 130.83 330.53 133.29 330.53Z" fill="#263238"/>
<path d="M82.8299 366.57C82.8299 369.85 81.8299 372.52 80.7199 372.52C79.6099 372.52 78.5999 369.85 78.5999 366.57C78.5999 363.29 79.5999 360.63 80.7199 360.63C81.8399 360.63 82.8299 363.29 82.8299 366.57Z" fill="#263238"/>
<path d="M258.55 302.62V299.25C258.549 298.283 258.764 297.328 259.178 296.454C259.593 295.581 260.198 294.811 260.948 294.2C261.698 293.59 262.575 293.155 263.515 292.926C264.455 292.698 265.433 292.682 266.38 292.88L279.2 295.55C280.664 295.855 281.978 296.655 282.921 297.815C283.864 298.975 284.379 300.425 284.38 301.92V302.62C284.38 304.345 283.696 305.999 282.477 307.22C281.258 308.44 279.605 309.127 277.88 309.13H265.06C263.334 309.13 261.678 308.444 260.457 307.223C259.236 306.002 258.55 304.347 258.55 302.62Z" fill="#263238"/>
<path d="M326 263.91C326 263.91 324.29 263.74 321.31 263.48C334.49 290.48 331.13 303.57 331.13 303.57H341.19C341.29 287.13 326 263.91 326 263.91Z" fill="#263238"/>
<path opacity="0.2" d="M214.84 291.48C214.636 293.602 213.65 295.572 212.073 297.007C210.496 298.441 208.442 299.237 206.31 299.24H154.48C150.7 299.24 149.33 295.02 152.07 291.88C157.014 286.25 162.383 281.008 168.13 276.2C177.89 267.98 190.01 263.71 201.34 264.5L205.62 264.81C207.467 264.954 209.219 265.691 210.613 266.911C212.008 268.131 212.971 269.768 213.36 271.58C214.872 278.098 215.372 284.81 214.84 291.48Z" fill="#00B4D8"/>
<path opacity="0.2" d="M332.33 382.07C332.197 382.07 332.07 382.017 331.977 381.924C331.883 381.83 331.83 381.703 331.83 381.57C331.83 371.45 336.99 329.72 338.34 323.47C339.65 317.4 339.65 310.62 338.34 306.21C338.303 306.083 338.318 305.946 338.382 305.83C338.445 305.713 338.553 305.627 338.68 305.59C338.807 305.556 338.943 305.572 339.059 305.635C339.174 305.698 339.261 305.804 339.3 305.93C340.65 310.49 340.65 317.46 339.3 323.68C337.95 329.9 332.81 371.49 332.81 381.57C332.81 381.699 332.76 381.823 332.671 381.917C332.581 382.01 332.459 382.065 332.33 382.07Z" fill="black"/>
<path opacity="0.2" d="M331 324H318.81C318.579 324.008 318.349 323.962 318.138 323.866C317.927 323.771 317.741 323.628 317.594 323.449C317.447 323.271 317.344 323.06 317.291 322.835C317.238 322.61 317.238 322.375 317.29 322.15L317.54 320.74C317.641 320.232 317.91 319.774 318.304 319.438C318.697 319.102 319.193 318.909 319.71 318.89H331.9C332.131 318.883 332.361 318.928 332.572 319.024C332.783 319.119 332.969 319.262 333.116 319.441C333.262 319.619 333.366 319.83 333.419 320.055C333.472 320.28 333.472 320.515 333.42 320.74L333.17 322.15C333.069 322.658 332.8 323.116 332.406 323.452C332.012 323.788 331.517 323.981 331 324Z" fill="black"/>
<path d="M367.88 172.48H366.88C366.88 169.934 366.513 167.401 365.79 164.96L366.79 164.68C367.528 167.214 367.895 169.841 367.88 172.48ZM363.57 159.69C361.279 155.58 357.934 152.154 353.879 149.767C349.824 147.38 345.206 146.118 340.5 146.11V145.11C345.385 145.115 350.179 146.424 354.388 148.903C358.597 151.382 362.067 154.94 364.44 159.21L363.57 159.69Z" fill="#00B4D8"/>
<path d="M340.5 148.61C334.171 148.613 328.102 151.129 323.628 155.605C319.154 160.081 316.64 166.151 316.64 172.48C316.64 195.48 340.5 211.24 340.5 211.24C340.5 211.24 364.38 195.47 364.38 172.48C364.377 166.148 361.86 160.077 357.382 155.601C352.904 151.125 346.832 148.61 340.5 148.61ZM340.5 183.72C338.297 183.718 336.144 183.063 334.314 181.838C332.483 180.612 331.057 178.872 330.215 176.836C329.374 174.8 329.154 172.561 329.585 170.401C330.016 168.24 331.078 166.256 332.636 164.699C334.195 163.142 336.18 162.082 338.34 161.653C340.501 161.224 342.741 161.445 344.776 162.289C346.81 163.132 348.55 164.56 349.773 166.392C350.997 168.224 351.65 170.377 351.65 172.58C351.65 174.044 351.362 175.493 350.801 176.845C350.241 178.198 349.419 179.426 348.384 180.461C347.348 181.495 346.119 182.316 344.766 182.875C343.414 183.434 341.964 183.721 340.5 183.72Z" fill="#00B4D8"/>
<path d="M297.97 414.72L304.01 414.62L305.75 400.62L299.72 400.72L297.97 414.72Z" fill="#B55B52"/>
<path d="M326.8 414.27L332.66 412.48L329.02 399.21L323.16 401.01L326.8 414.27Z" fill="#B55B52"/>
<path d="M332.48 410.72L325.94 414.09C325.834 414.147 325.75 414.238 325.703 414.349C325.656 414.46 325.648 414.584 325.68 414.7L327.08 420.01C327.114 420.139 327.177 420.258 327.264 420.36C327.35 420.461 327.459 420.541 327.581 420.594C327.704 420.647 327.836 420.671 327.97 420.665C328.103 420.659 328.233 420.623 328.35 420.56C330.44 419.44 331.91 418.56 334.56 417.15C336.19 416.31 341.19 413.95 343.44 412.78C345.69 411.61 344.84 409.24 343.82 409.52C339.22 410.75 335.46 411.11 333.52 410.6C333.171 410.508 332.799 410.551 332.48 410.72Z" fill="#263238"/>
<path d="M304.13 413.92L297.54 414.03C297.421 414.032 297.307 414.075 297.216 414.152C297.125 414.228 297.063 414.333 297.04 414.45L295.93 419.83C295.901 419.96 295.902 420.095 295.933 420.224C295.964 420.353 296.025 420.474 296.11 420.576C296.195 420.679 296.302 420.76 296.423 420.815C296.545 420.869 296.677 420.895 296.81 420.89C299.19 420.81 302.62 420.62 305.61 420.57C309.1 420.52 310.12 420.66 314.22 420.57C316.69 420.57 317.34 418.01 316.3 417.8C311.56 416.8 309.71 416.8 305.6 414.34C305.155 414.075 304.648 413.931 304.13 413.92Z" fill="#263238"/>
<path d="M313.3 231.05C314.67 233.8 316.22 236.71 317.77 239.48C319.32 242.25 320.96 245.01 322.71 247.6C323.16 248.24 323.58 248.91 324.04 249.52L325.17 251.06C325.4 251.36 325.53 251.5 325.57 251.57C325.61 251.64 325.63 251.74 325.92 251.76C326.982 251.568 327.969 251.083 328.77 250.36C329.32 249.94 329.88 249.46 330.43 248.95C330.98 248.44 331.53 247.85 332.01 247.38L336 249.6C335.667 250.483 335.273 251.342 334.82 252.17C334.374 253.017 333.859 253.827 333.28 254.59C332.665 255.424 331.961 256.188 331.18 256.87C330.253 257.695 329.177 258.337 328.01 258.76C326.548 259.293 324.961 259.38 323.45 259.01C322.033 258.663 320.723 257.976 319.63 257.01C319.388 256.806 319.158 256.589 318.94 256.36L318.62 256.03L318.39 255.77L317.51 254.77C316.92 254.1 316.38 253.41 315.82 252.77C313.684 250.023 311.714 247.152 309.92 244.17C309.04 242.69 308.17 241.17 307.37 239.68C306.57 238.19 305.79 236.68 305.05 234.99L313.3 231.05Z" fill="#B55B52"/>
<path d="M302.48 231.09C300.85 236.63 312.3 251.72 312.3 251.72L323.85 244.29C321.677 239.49 318.995 234.938 315.85 230.71C311.12 224.68 304.26 225 302.48 231.09Z" fill="#00B4D8"/>
<g opacity="0.2">
<path opacity="0.2" d="M302.48 231.09C300.85 236.63 312.3 251.72 312.3 251.72L323.85 244.29C321.677 239.49 318.995 234.938 315.85 230.71C311.12 224.68 304.26 225 302.48 231.09Z" fill="black"/>
</g>
<path opacity="0.2" d="M309.52 237.59C311.89 238.59 315.39 244.33 317.21 248.59L312.31 251.74C309.568 248.08 307.104 244.219 304.94 240.19C306.49 238.47 308.26 237.06 309.52 237.59Z" fill="black"/>
<path d="M331.32 248.46L335.5 241.7L339.15 247.53C338.272 249.085 336.846 250.258 335.15 250.82L331.32 248.46Z" fill="#B55B52"/>
<path d="M341.33 241.77V243.86C341.33 244.513 341.104 245.145 340.69 245.65L339.17 247.53L335.52 241.7L339.29 240.33C339.521 240.248 339.767 240.223 340.01 240.257C340.252 240.29 340.483 240.382 340.682 240.523C340.882 240.664 341.045 240.85 341.158 241.067C341.271 241.285 341.33 241.525 341.33 241.77Z" fill="#B55B52"/>
<path d="M337.25 250.41L330.67 250.31L334.31 236.68L340.89 236.78L337.25 250.41Z" fill="#00B4D8"/>
<path d="M337.92 250.41L331.34 250.31L334.98 236.68L341.56 236.78L337.92 250.41Z" fill="#263238"/>
<path opacity="0.2" d="M305.75 400.63L304.85 407.84L298.81 407.94L299.71 400.72L305.75 400.63Z" fill="black"/>
<path opacity="0.2" d="M323.16 401.01L329.03 399.21L330.9 406.05L325.03 407.85L323.16 401.01Z" fill="black"/>
<path d="M277 234C281.93 255.22 280.86 276.27 281.4 280.81L313.59 278.41C316.68 243.92 309.36 226.41 309.36 226.41C309.36 226.41 307.29 226.01 304.48 225.72C303.6 225.63 302.64 225.55 301.65 225.5C301.1 225.5 300.55 225.45 299.98 225.44C295.405 225.511 290.837 225.845 286.3 226.44C285.44 226.55 284.57 226.67 283.72 226.81L281.44 227.23H281.35C280.613 227.376 279.914 227.67 279.293 228.093C278.672 228.515 278.143 229.059 277.737 229.691C277.331 230.323 277.056 231.03 276.93 231.77C276.803 232.511 276.827 233.269 277 234Z" fill="#00B4D8"/>
<g opacity="0.2">
<path opacity="0.2" d="M277 234C281.93 255.22 280.86 276.27 281.4 280.81L313.59 278.41C316.68 243.92 309.36 226.41 309.36 226.41C309.36 226.41 307.29 226.01 304.48 225.72C303.6 225.63 302.64 225.55 301.65 225.5C301.1 225.5 300.55 225.45 299.98 225.44C295.405 225.511 290.837 225.845 286.3 226.44C285.44 226.55 284.57 226.67 283.72 226.81L281.44 227.23H281.35C280.613 227.376 279.914 227.67 279.293 228.093C278.672 228.515 278.143 229.059 277.737 229.691C277.331 230.323 277.056 231.03 276.93 231.77C276.803 232.511 276.827 233.269 277 234Z" fill="black"/>
</g>
<path opacity="0.2" d="M282.45 238.48L278.75 243.23C278.755 243.29 278.755 243.35 278.75 243.41C279.27 246.63 279.67 249.78 279.97 252.82C283.52 248.45 283 240.56 282.45 238.48Z" fill="black"/>
<path d="M287.85 217.06C288.62 220.3 288.57 223.9 286.25 226.48C288.82 228.68 292.15 231.19 297.39 230.99C302.63 230.79 301.46 227.25 299.93 225.46C295.46 224.74 295.45 221.83 295.41 218.63C295.408 218.306 295.303 217.991 295.111 217.731C294.919 217.47 294.649 217.277 294.34 217.18L289.42 215.6C289.212 215.534 288.99 215.524 288.777 215.571C288.564 215.619 288.368 215.722 288.208 215.871C288.048 216.02 287.931 216.208 287.868 216.417C287.805 216.626 287.799 216.848 287.85 217.06Z" fill="#B55B52"/>
<path d="M302 251.67C299.3 251.67 296.81 248.43 296.32 244.29C296.129 243.194 296.162 242.07 296.418 240.987C296.674 239.904 297.148 238.884 297.81 237.99C298.123 237.613 298.513 237.308 298.956 237.098C299.398 236.887 299.88 236.775 300.37 236.77C303.06 236.77 305.56 240.01 306.04 244.15C306.233 245.246 306.201 246.369 305.946 247.452C305.692 248.535 305.22 249.555 304.56 250.45C304.245 250.825 303.854 251.127 303.413 251.338C302.971 251.548 302.489 251.662 302 251.67ZM300.38 237.77C300.032 237.776 299.689 237.859 299.376 238.013C299.063 238.167 298.788 238.388 298.57 238.66C298.007 239.45 297.607 240.344 297.394 241.29C297.181 242.236 297.159 243.215 297.33 244.17C297.74 247.7 299.88 250.67 302.01 250.67C302.36 250.665 302.705 250.583 303.02 250.429C303.335 250.275 303.611 250.054 303.83 249.78C304.391 248.989 304.79 248.095 305.003 247.149C305.216 246.204 305.239 245.225 305.07 244.27C304.68 240.74 302.54 237.77 300.42 237.77H300.38Z" fill="#00B4D8"/>
<path opacity="0.2" d="M295.42 218.81L290.47 219.45C290.58 219.67 290.72 219.88 290.85 220.09C291.79 221.59 293.85 222.58 295.99 222.94C295.527 221.615 295.333 220.211 295.42 218.81Z" fill="black"/>
<path d="M301.84 206C304.59 206.46 309.73 203.34 308.53 199.18C306.99 201.11 301.84 200.46 301.84 200.46V206Z" fill="#263238"/>
<path d="M291.1 210.4C291.4 213.18 287.97 218.13 283.89 216.68C285.89 215.26 285.57 210.07 285.57 210.07L291.1 210.4Z" fill="#263238"/>
<path d="M287.07 205C286.33 210.94 285.59 214.39 288 218C291.61 223.37 299.37 222 301.87 216.43C304.12 211.43 304.95 202.52 299.63 199.1C298.465 198.344 297.126 197.898 295.74 197.803C294.355 197.709 292.968 197.969 291.711 198.56C290.453 199.15 289.368 200.052 288.556 201.178C287.744 202.305 287.232 203.621 287.07 205Z" fill="#B55B52"/>
<path d="M286.25 211C287.7 212.53 291.69 206.28 290.96 204C292.46 204.66 295.34 203.4 295.16 200.92C299.65 203.32 306.16 205.22 306.26 200.92C306.36 196.62 302.26 193.37 298.26 193.03C298.74 194.32 297.47 194.87 294.86 194.32C292.25 193.77 282.19 189.14 283.3 198.39C279.54 198.61 279.05 203.37 286.25 211Z" fill="#263238"/>
<path d="M283.31 208.69C283.518 210.182 284.309 211.531 285.51 212.44C287.11 213.63 288.11 212.37 288.26 210.49C288.4 208.79 288.26 206.13 286.35 205.68C285.935 205.589 285.503 205.604 285.095 205.723C284.687 205.841 284.315 206.06 284.013 206.359C283.711 206.659 283.488 207.028 283.365 207.435C283.243 207.843 283.224 208.274 283.31 208.69Z" fill="#B55B52"/>
<path d="M292.38 280L313.54 278.43C313.54 278.43 316.28 321.86 316.07 340.27C315.86 359.43 307.07 406.4 307.07 406.4L296.85 406.56C296.85 406.56 297.66 361 297.66 342.19C297.66 316.86 292.35 280 292.35 280" fill="#263238"/>
<path opacity="0.2" d="M300.56 325.15C300.84 326.4 308.71 361.61 311.25 382.15C312.6 373.61 313.99 364.02 314.93 355.55L300.56 325.15Z" fill="black"/>
<path d="M302.12 279.29C302.12 279.29 318.23 318.75 321.86 336.06C325.86 355.01 332.21 402.94 332.21 402.94L321.28 404.64C321.28 404.64 313.01 368.81 308.38 350.51C303.12 329.65 282.26 296.62 281.38 280.83L302.12 279.29Z" fill="#263238"/>
<path d="M333.58 403.87L320 407.05L318.29 401.82L333.12 399.28L333.58 403.87Z" fill="#00B4D8"/>
<path d="M308.39 406.63L296.21 406.82L296.15 402.89L309.75 402.47L308.39 406.63Z" fill="#00B4D8"/>
<path d="M295.35 208.08C295.26 208.56 295.44 208.99 295.75 209.08C296.06 209.17 296.39 208.8 296.48 208.32C296.57 207.84 296.39 207.41 296.07 207.32C295.75 207.23 295.44 207.6 295.35 208.08Z" fill="#263238"/>
<path d="M301.27 209.34C301.18 209.81 301.36 210.25 301.67 210.34C301.98 210.43 302.31 210.06 302.4 209.58C302.49 209.1 302.31 208.66 302 208.58C301.69 208.5 301.36 208.86 301.27 209.34Z" fill="#263238"/>
<path d="M299.32 209.22C299.617 210.789 300.128 212.31 300.84 213.74C300.469 213.912 300.064 214.001 299.655 214.001C299.246 214.001 298.841 213.912 298.47 213.74L299.32 209.22Z" fill="#A02724"/>
<path d="M297.46 215.21C296.925 215.099 296.418 214.879 295.97 214.564C295.523 214.25 295.145 213.847 294.86 213.38C294.842 213.345 294.838 213.305 294.85 213.268C294.861 213.231 294.886 213.199 294.92 213.18C294.954 213.165 294.991 213.163 295.027 213.174C295.062 213.185 295.091 213.208 295.11 213.24C295.436 213.751 295.877 214.178 296.398 214.487C296.919 214.796 297.506 214.979 298.11 215.02C298.142 215.028 298.17 215.047 298.191 215.074C298.211 215.1 298.222 215.132 298.222 215.165C298.222 215.198 298.211 215.23 298.191 215.256C298.17 215.283 298.142 215.302 298.11 215.31C297.891 215.295 297.673 215.262 297.46 215.21Z" fill="#263238"/>
<path d="M294.76 205.94C294.713 205.919 294.669 205.892 294.63 205.86C294.58 205.803 294.552 205.73 294.552 205.655C294.552 205.58 294.58 205.507 294.63 205.45C294.961 205.138 295.361 204.91 295.797 204.783C296.233 204.656 296.694 204.634 297.14 204.72C297.212 204.741 297.273 204.789 297.311 204.855C297.348 204.92 297.358 204.997 297.34 205.07C297.321 205.141 297.275 205.203 297.211 205.24C297.147 205.277 297.072 205.288 297 205.27C296.642 205.206 296.274 205.227 295.926 205.333C295.578 205.439 295.261 205.627 295 205.88C294.967 205.907 294.928 205.926 294.887 205.937C294.845 205.947 294.802 205.948 294.76 205.94Z" fill="#263238"/>
<path d="M304.46 207.85C304.414 207.835 304.373 207.809 304.34 207.774C304.307 207.739 304.283 207.697 304.27 207.65C304.189 207.301 304.025 206.977 303.792 206.705C303.558 206.434 303.263 206.223 302.93 206.09C302.857 206.067 302.797 206.016 302.761 205.949C302.726 205.882 302.718 205.803 302.74 205.73C302.763 205.657 302.814 205.597 302.881 205.561C302.949 205.526 303.027 205.518 303.1 205.54C303.528 205.709 303.908 205.979 304.207 206.327C304.507 206.676 304.717 207.092 304.82 207.54C304.832 207.576 304.837 207.614 304.833 207.652C304.829 207.69 304.817 207.727 304.799 207.76C304.78 207.793 304.754 207.822 304.723 207.844C304.692 207.866 304.657 207.882 304.62 207.89C304.564 207.898 304.506 207.884 304.46 207.85Z" fill="#263238"/>
<path d="M334.74 410.74C334.262 410.973 333.759 411.151 333.24 411.27C333.219 411.287 333.192 411.296 333.165 411.296C333.138 411.296 333.111 411.287 333.09 411.27C333.074 411.247 333.065 411.219 333.065 411.19C333.065 411.161 333.074 411.134 333.09 411.11C333.22 410.89 334.4 408.93 335.15 408.93C335.235 408.93 335.318 408.953 335.39 408.997C335.463 409.041 335.521 409.105 335.56 409.18C335.638 409.298 335.687 409.434 335.701 409.575C335.715 409.716 335.694 409.859 335.64 409.99C335.429 410.33 335.113 410.594 334.74 410.74ZM333.51 410.9C334.243 410.791 334.908 410.409 335.37 409.83C335.405 409.74 335.417 409.642 335.405 409.546C335.393 409.45 335.357 409.359 335.3 409.28C335.24 409.18 335.19 409.17 335.14 409.17C334.75 409.17 334 410.14 333.51 410.9Z" fill="#00B4D8"/>
<path d="M333.27 411.26H333.19C333.164 411.256 333.14 411.246 333.119 411.23C333.098 411.214 333.081 411.194 333.07 411.17C332.707 410.387 332.588 409.512 332.73 408.66C332.772 408.558 332.834 408.465 332.914 408.387C332.993 408.31 333.087 408.25 333.19 408.21C333.286 408.162 333.395 408.149 333.498 408.173C333.602 408.196 333.695 408.256 333.76 408.34C334.19 408.88 333.76 410.61 333.32 411.2C333.316 411.213 333.31 411.225 333.301 411.235C333.293 411.245 333.282 411.254 333.27 411.26ZM333.27 408.53C333.162 408.585 333.077 408.677 333.03 408.79C332.911 409.466 332.994 410.162 333.27 410.79C333.6 410.08 333.83 408.84 333.58 408.53C333.58 408.53 333.5 408.43 333.33 408.53H333.27Z" fill="#00B4D8"/>
<path d="M304.74 414.75C304.714 414.74 304.692 414.722 304.676 414.699C304.66 414.675 304.652 414.648 304.652 414.62C304.652 414.592 304.66 414.565 304.676 414.542C304.692 414.518 304.714 414.5 304.74 414.49C305.01 414.34 307.42 413.07 308.16 413.49C308.228 413.529 308.285 413.584 308.327 413.65C308.369 413.716 308.394 413.792 308.4 413.87C308.415 413.999 308.399 414.13 308.354 414.251C308.309 414.373 308.236 414.482 308.14 414.57C307.49 415.16 305.76 414.95 304.78 414.77L304.74 414.75ZM308 413.7C307.039 413.755 306.105 414.044 305.28 414.54C306.175 414.795 307.132 414.724 307.98 414.34C308.044 414.281 308.092 414.207 308.12 414.125C308.148 414.043 308.155 413.955 308.14 413.87C308.141 413.839 308.133 413.808 308.117 413.782C308.101 413.755 308.078 413.734 308.05 413.72L308 413.7Z" fill="#00B4D8"/>
<path d="M304.74 414.75C304.721 414.734 304.705 414.715 304.695 414.692C304.684 414.67 304.679 414.645 304.68 414.62C304.733 413.766 305.047 412.949 305.58 412.28C305.799 412.093 306.083 412 306.37 412.02C306.77 412.02 306.88 412.26 306.91 412.42C307.03 413.1 305.61 414.42 304.91 414.76C304.885 414.777 304.854 414.786 304.823 414.784C304.793 414.782 304.763 414.77 304.74 414.75ZM306.45 412.32C306.404 412.307 306.356 412.307 306.31 412.32C306.205 412.308 306.099 412.319 305.999 412.351C305.899 412.384 305.807 412.438 305.73 412.51C305.286 413.039 305.017 413.692 304.96 414.38C305.7 413.93 306.66 412.88 306.59 412.48C306.59 412.42 306.57 412.36 306.45 412.32Z" fill="#00B4D8"/>
<path d="M286.61 235.88C284.61 239.43 282.61 243.22 280.81 246.95C278.997 250.596 277.443 254.365 276.16 258.23C276.01 258.7 275.9 259.16 275.76 259.62C275.71 259.83 275.62 260.13 275.59 260.27C275.558 260.385 275.531 260.502 275.51 260.62C275.424 261.249 275.441 261.887 275.56 262.51C275.963 264.222 276.62 265.863 277.51 267.38C279.586 270.875 282.004 274.155 284.73 277.17L281.83 280.65C277.962 278.093 274.526 274.937 271.65 271.3C270.048 269.274 268.806 266.987 267.98 264.54C267.504 263.079 267.291 261.545 267.35 260.01C267.35 259.6 267.43 259.17 267.48 258.76C267.53 258.35 267.59 258.14 267.65 257.82C267.77 257.24 267.88 256.63 268.01 256.06C269.13 251.619 270.65 247.288 272.55 243.12C274.373 239.025 276.444 235.044 278.75 231.2L286.61 235.88Z" fill="#B55B52"/>
<path d="M280.33 227.69C274.76 229.22 269.33 244.87 269.33 244.87L282.74 248.59C285.09 245.295 286.965 241.687 288.31 237.87C291.13 230.26 287.07 225.85 280.33 227.69Z" fill="#00B4D8"/>
<g opacity="0.2">
<path opacity="0.2" d="M280.33 227.69C274.76 229.22 269.33 244.87 269.33 244.87L282.74 248.59C285.09 245.295 286.965 241.687 288.31 237.87C291.13 230.26 287.07 225.85 280.33 227.69Z" fill="black"/>
</g>
<path d="M282.16 276.14L288.28 277.75L285.85 283.5C285.85 283.5 280.36 282.34 280.39 279.35L282.16 276.14Z" fill="#B55B52"/>
<path d="M290.63 281.65L288.82 286.2L285.85 283.5L288.28 277.75L290.63 281.65Z" fill="#B55B52"/>
</svg>
