<svg width="1007" height="742" viewBox="0 0 1007 742" fill="none" xmlns="http://www.w3.org/2000/svg">
<path d="M468.894 178.824C449.635 178.824 395.582 187.739 395.582 154.977C395.582 127.145 422.005 129.198 422.005 129.198C422.005 129.198 421.24 105.048 444.765 101.869C468.914 98.5886 472.537 124.649 472.537 124.649C472.537 124.649 514.435 108.047 508.056 149.684C508.056 149.684 531.279 145.055 531.279 163.771C531.279 184.74 487.63 178.763 468.894 178.824Z" fill="#F0F0F0"/>
<path d="M905.389 691.247H838.737V691.75H905.389V691.247Z" fill="#EBEBEB"/>
<path d="M666.554 696.721H649.066V697.224H666.554V696.721Z" fill="#EBEBEB"/>
<path d="M836.725 672.571H798.107V673.075H836.725V672.571Z" fill="#EBEBEB"/>
<path d="M192.488 675.952H105.572V676.455H192.488V675.952Z" fill="#EBEBEB"/>
<path d="M223.158 675.952H210.419V676.455H223.158V675.952Z" fill="#EBEBEB"/>
<path d="M453.097 684.445H264.573V684.948H453.097V684.445Z" fill="#EBEBEB"/>
<path d="M476.944 569.113H88.3855C85.3379 569.113 82.4151 567.902 80.2601 565.747C78.1052 563.592 76.8945 560.67 76.8945 557.622V11.3903C76.9211 8.36019 78.1434 5.46322 80.2955 3.32996C82.4476 1.19671 85.3552 -0.000116169 88.3855 8.4573e-09H476.944C479.991 8.45733e-09 482.914 1.21065 485.069 3.36562C487.224 5.52058 488.435 8.44334 488.435 11.4909V557.622C488.435 560.67 487.224 563.592 485.069 565.747C482.914 567.902 479.991 569.113 476.944 569.113ZM88.3855 0.402486C85.4729 0.407806 82.6812 1.56715 80.6218 3.62662C78.5623 5.68608 77.403 8.47779 77.3976 11.3903V557.622C77.403 560.534 78.5623 563.326 80.6218 565.386C82.6812 567.445 85.4729 568.604 88.3855 568.61H476.944C479.856 568.604 482.648 567.445 484.708 565.386C486.767 563.326 487.926 560.534 487.932 557.622V11.3903C487.926 8.47779 486.767 5.68608 484.708 3.62662C482.648 1.56715 479.856 0.407806 476.944 0.402486H88.3855Z" fill="#EBEBEB"/>
<path d="M912.251 569.113H523.652C520.606 569.108 517.687 567.895 515.533 565.741C513.379 563.588 512.167 560.668 512.161 557.622V11.3903C512.193 8.36184 513.417 5.46791 515.568 3.33578C517.719 1.20365 520.624 0.00512823 523.652 0H912.251C915.274 0.0104736 918.171 1.21198 920.315 3.3441C922.458 5.47622 923.675 8.36715 923.702 11.3903V557.622C923.702 560.663 922.496 563.579 920.35 565.733C918.204 567.887 915.292 569.102 912.251 569.113ZM523.652 0.402486C520.74 0.407806 517.948 1.56715 515.889 3.62662C513.829 5.68608 512.67 8.47779 512.664 11.3903V557.622C512.67 560.534 513.829 563.326 515.889 565.386C517.948 567.445 520.74 568.604 523.652 568.61H912.251C915.163 568.604 917.955 567.445 920.015 565.386C922.074 563.326 923.233 560.534 923.239 557.622V11.3903C923.233 8.47779 922.074 5.68608 920.015 3.62662C917.955 1.56715 915.163 0.407806 912.251 0.402486H523.652Z" fill="#EBEBEB"/>
<path d="M1006.21 658.867H0V659.37H1006.21V658.867Z" fill="#EBEBEB"/>
<path d="M198.183 658.706L556.213 181.158L914.243 658.706H198.183Z" fill="#EBEBEB"/>
<path d="M563.478 178.884C558.407 173.592 548.043 173.873 543.475 179.428C519.326 208.588 458.712 284.074 468.733 289.507C481.17 296.349 509.606 272.482 523.693 274.857C537.78 277.231 530.595 305.244 554.724 304.681C578.853 304.117 578.008 275.46 589.277 274.857C600.547 274.253 626.306 296.349 642.888 286.207C656.311 278.036 590.022 206.555 563.478 178.884Z" fill="#FAFAFA"/>
<path d="M87.1382 658.706L388.257 126.34L689.396 658.706H87.1382Z" fill="#E6E6E6"/>
<path d="M394.434 123.804C393.471 122.44 392.184 121.336 390.688 120.594C389.192 119.851 387.534 119.492 385.865 119.55C384.196 119.608 382.567 120.081 381.126 120.925C379.685 121.77 378.477 122.96 377.611 124.388C357.486 156.909 306.311 240.988 314.743 247.146C325.207 254.773 349.115 228.148 361.028 230.825C372.942 233.501 366.824 264.674 387.19 264.05C407.555 263.426 406.771 231.489 416.269 230.825C425.768 230.161 447.401 254.773 461.347 243.463C472.456 234.347 416.692 154.655 394.434 123.804Z" fill="#FAFAFA"/>
<path d="M192.368 279.727C166.85 279.727 95.3086 291.519 95.3086 248.152C95.3086 211.284 130.284 213.941 130.284 213.941C130.284 213.941 129.258 182.024 160.471 177.717C192.408 173.35 197.238 207.903 197.238 207.903C197.238 207.903 252.7 185.928 244.268 241.048C244.268 241.048 275.018 235.011 275.018 259.743C274.978 287.635 217.1 279.727 192.368 279.727Z" fill="#F5F5F5"/>
<path d="M742.262 194.923C728.758 194.923 690.865 201.182 690.865 178.2C690.865 158.7 709.379 160.088 709.379 160.088C709.379 160.088 708.856 143.184 725.357 140.93C742.262 138.636 744.818 156.888 744.818 156.888C744.818 156.888 774.199 145.257 769.731 174.457C769.731 174.457 786.012 171.217 786.012 184.358C786.012 199.089 755.363 194.883 742.262 194.923Z" fill="#F5F5F5"/>
<path d="M656.352 224.606C634.356 224.606 572.675 234.668 572.675 197.378C572.675 165.622 602.861 167.957 602.861 167.957C602.861 167.957 601.996 140.427 628.842 136.764C656.392 133.021 660.557 162.765 660.557 162.765C660.557 162.765 708.353 143.828 701.088 191.341C701.088 191.341 727.591 186.048 727.591 207.44C727.551 231.428 677.663 224.526 656.352 224.606Z" fill="#F0F0F0"/>
<path d="M833.585 300.676C815.815 300.676 765.948 308.887 765.948 278.68C765.948 253.002 790.318 254.893 790.318 254.893C790.318 254.893 789.614 232.636 811.328 229.678C833.585 226.639 836.946 250.687 836.946 250.687C836.946 250.687 875.584 235.373 869.708 273.79C869.708 273.79 891.14 269.524 891.14 286.81C891.14 306.13 850.811 300.615 833.585 300.676Z" fill="#F5F5F5"/>
<path d="M493.406 742C708.901 742 883.594 731.801 883.594 719.219C883.594 706.638 708.901 696.439 493.406 696.439C277.911 696.439 103.217 706.638 103.217 719.219C103.217 731.801 277.911 742 493.406 742Z" fill="#F5F5F5"/>
<path d="M754.195 535.807C744.133 533.936 724.693 552.671 715.175 548.787C707.87 545.789 706.501 526.047 700.746 520.614C692.857 513.208 664.321 513.671 661.061 503.367C654.359 482.096 685.995 432.671 707.628 427.257C723.164 423.373 747.876 454.183 762.809 459.738C776.714 464.91 811.388 459.194 821.169 470.303C832.559 483.162 830.386 524.518 821.169 539.007C815.232 548.325 791.948 559.956 781.122 557.763C772.77 556.072 762.708 537.317 754.195 535.807Z" fill="#00B4D8"/>
<path opacity="0.2" d="M754.195 535.807C744.133 533.936 724.693 552.671 715.175 548.787C707.87 545.789 706.501 526.047 700.746 520.614C692.857 513.208 664.321 513.671 661.061 503.367C654.359 482.096 685.995 432.671 707.628 427.257C723.164 423.373 747.876 454.183 762.809 459.738C776.714 464.91 811.388 459.194 821.169 470.303C832.559 483.162 830.386 524.518 821.169 539.007C815.232 548.325 791.948 559.956 781.122 557.763C772.77 556.072 762.708 537.317 754.195 535.807Z" fill="white"/>
<path d="M715.738 508.257C711.713 504.011 698.491 494.17 698.491 494.17L698.974 492.601L717.871 505.359L725.538 482.76L726.806 483.806C726.806 483.806 720.648 500.55 721.594 506.446C723.607 519.205 750.331 547.64 750.331 547.64C750.331 547.64 769.47 525.785 773.032 516.931C775.97 509.626 777.056 485.638 777.056 485.638L778.304 485.839L776.795 513.812L804.969 490.608L805.472 492.178C805.472 492.178 782.631 510.29 776.453 517.736C771.663 523.471 762.688 539.49 758.16 547.801C756.35 551.116 755.461 554.854 755.584 558.628L757.858 716.04H744.596L746.81 561.687C746.971 556.716 744.475 551.826 741.94 547.6C735.5 536.753 722.781 515.804 715.738 508.257Z" fill="#263238"/>
<path d="M364.248 489.22C355.152 490.186 342.232 478.232 333.297 480.224C315.185 484.249 270.409 486.1 259.482 471.068C245.173 451.426 259.481 391.698 277.734 375.639C292.948 362.236 358.694 370.567 358.694 370.567C358.694 370.567 384.372 335.612 397.594 334.344C418.382 332.331 461.569 359.056 468.25 378.838C474.609 397.655 445.49 434.059 440.459 453.298C438.829 459.496 441.827 475.072 436.434 478.614C420.958 488.898 382.742 487.268 364.248 489.22Z" fill="#00B4D8"/>
<path opacity="0.3" d="M364.248 489.22C355.152 490.186 342.232 478.232 333.297 480.224C315.185 484.249 270.409 486.1 259.482 471.068C245.173 451.426 259.481 391.698 277.734 375.639C292.948 362.236 358.694 370.567 358.694 370.567C358.694 370.567 384.372 335.612 397.594 334.344C418.382 332.331 461.569 359.056 468.25 378.838C474.609 397.655 445.49 434.059 440.459 453.298C438.829 459.496 441.827 475.072 436.434 478.614C420.958 488.898 382.742 487.268 364.248 489.22Z" fill="white"/>
<path d="M404.859 437.561C409.93 432.127 426.895 419.449 426.895 419.449L426.271 417.437L402.122 433.737L392.422 404.939L390.832 406.268C390.832 406.268 398.681 427.619 397.453 435.146C394.817 451.426 360.787 487.71 360.787 487.71C360.787 487.71 336.396 459.838 331.848 448.528C328.025 439.191 326.596 408.522 326.596 408.522L324.986 408.763L326.998 444.584L290.996 414.961L290.372 416.974C290.372 416.974 319.512 440.096 327.401 449.575C333.438 456.9 344.929 477.346 350.705 487.932C353.024 492.161 354.164 496.936 354.005 501.757L351.107 715.959H368.052L365.234 505.661C365.033 499.322 368.213 493.063 371.433 487.549C379.663 473.905 395.884 447.18 404.859 437.561Z" fill="#263238"/>
<path d="M728.919 714.41V391.114C728.919 388.599 729.604 385.077 728.779 382.521C727.954 379.965 723.949 381.092 724.754 383.628C724.754 383.91 724.754 388.579 724.754 390.128V714.41C724.754 714.944 724.966 715.455 725.343 715.833C725.721 716.21 726.232 716.422 726.766 716.422C727.3 716.422 727.812 716.21 728.189 715.833C728.567 715.455 728.779 714.944 728.779 714.41H728.919Z" fill="#00B4D8"/>
<g opacity="0.4">
<path opacity="0.4" d="M728.919 714.41V391.114C728.919 388.599 729.604 385.077 728.779 382.521C727.954 379.965 723.949 381.092 724.754 383.628C724.754 383.91 724.754 388.579 724.754 390.128V714.41C724.754 714.944 724.966 715.455 725.343 715.833C725.721 716.21 726.232 716.422 726.766 716.422C727.3 716.422 727.812 716.21 728.189 715.833C728.567 715.455 728.779 714.944 728.779 714.41H728.919Z" fill="black"/>
</g>
<path d="M813.622 381.092H726.786V385.56H813.622V381.092Z" fill="#00B4D8"/>
<path opacity="0.4" d="M813.622 381.092H726.786V385.56H813.622V381.092Z" fill="black"/>
<path d="M740.149 365.496L765.002 332.311L749.808 328.286L735.399 362.699C737.09 363.435 738.685 364.374 740.149 365.496Z" fill="#00B4D8"/>
<path d="M718.012 362.82L701.711 324.745L690.663 335.893L713.283 365.597C714.739 364.48 716.327 363.547 718.012 362.82Z" fill="#00B4D8"/>
<path d="M704.468 383.346C704.477 382.458 704.538 381.571 704.65 380.69L663.516 375.759L667.641 390.913L704.67 386.164C704.542 385.23 704.475 384.289 704.468 383.346Z" fill="#00B4D8"/>
<path d="M749.104 383.346C749.101 384.227 749.047 385.108 748.943 385.982L790.077 390.913L785.951 375.759L748.903 380.509C749.031 381.449 749.098 382.397 749.104 383.346Z" fill="#00B4D8"/>
<path d="M713.423 401.176L688.59 434.361L703.784 438.386L718.173 403.974C716.482 403.236 714.888 402.297 713.423 401.176Z" fill="#00B4D8"/>
<path d="M726.786 361.028C727.674 361.031 728.561 361.084 729.442 361.189L734.373 319.975L719.219 324.101L723.969 361.149C724.904 361.048 725.845 361.008 726.786 361.028Z" fill="#00B4D8"/>
<path opacity="0.5" d="M726.786 361.028C727.674 361.031 728.561 361.084 729.442 361.189L734.373 319.975L719.219 324.101L723.969 361.149C724.904 361.048 725.845 361.008 726.786 361.028Z" fill="white"/>
<path d="M744.596 396.709L777.781 421.542L781.806 406.348L747.373 391.959C746.643 393.649 745.711 395.244 744.596 396.709Z" fill="#00B4D8"/>
<path opacity="0.5" d="M744.596 396.709L777.781 421.542L781.806 406.348L747.373 391.959C746.643 393.649 745.711 395.244 744.596 396.709Z" fill="white"/>
<path d="M726.786 405.644C725.905 405.641 725.025 405.587 724.15 405.483L719.219 446.617L734.373 442.491L729.623 405.463C728.682 405.575 727.734 405.635 726.786 405.644Z" fill="#00B4D8"/>
<path opacity="0.5" d="M726.786 405.644C725.905 405.641 725.025 405.587 724.15 405.483L719.219 446.617L734.373 442.491L729.623 405.463C728.682 405.575 727.734 405.635 726.786 405.644Z" fill="white"/>
<path d="M706.36 392.12L668.124 408.522L679.273 419.57L708.976 396.95C707.908 395.454 707.029 393.832 706.36 392.12Z" fill="#00B4D8"/>
<path opacity="0.5" d="M706.36 392.12L668.124 408.522L679.273 419.57L708.976 396.95C707.908 395.454 707.029 393.832 706.36 392.12Z" fill="white"/>
<path d="M747.313 374.552L785.388 358.251L774.239 347.203L744.596 369.823C745.692 371.282 746.605 372.87 747.313 374.552Z" fill="#00B4D8"/>
<path opacity="0.5" d="M747.313 374.552L785.388 358.251L774.239 347.203L744.596 369.823C745.692 371.282 746.605 372.87 747.313 374.552Z" fill="white"/>
<path d="M708.956 369.984L675.771 345.13L671.747 360.324L706.159 374.733C706.887 373.038 707.827 371.442 708.956 369.984Z" fill="#00B4D8"/>
<path opacity="0.5" d="M708.956 369.984L675.771 345.13L671.747 360.324L706.159 374.733C706.887 373.038 707.827 371.442 708.956 369.984Z" fill="white"/>
<path d="M740.31 401.076C738.851 402.188 737.263 403.121 735.58 403.853L751.881 441.928L762.929 430.779L740.31 401.076Z" fill="#00B4D8"/>
<path d="M726.786 396.709C734.166 396.709 740.149 390.726 740.149 383.346C740.149 375.966 734.166 369.984 726.786 369.984C719.406 369.984 713.424 375.966 713.424 383.346C713.424 390.726 719.406 396.709 726.786 396.709Z" fill="#00B4D8"/>
<path opacity="0.2" d="M726.786 396.709C734.166 396.709 740.149 390.726 740.149 383.346C740.149 375.966 734.166 369.984 726.786 369.984C719.406 369.984 713.424 375.966 713.424 383.346C713.424 390.726 719.406 396.709 726.786 396.709Z" fill="black"/>
<path d="M861.377 405.503L795.712 383.346L861.377 361.169L855.34 383.346L861.377 405.503Z" fill="#00B4D8"/>
<path opacity="0.2" d="M795.873 383.286L795.712 383.346L861.377 405.503L855.34 383.286H795.873Z" fill="black"/>
<path d="M743.509 626.427L731.616 487.006C730.69 476.273 729.771 465.54 728.859 454.807C728.859 454.26 728.642 453.736 728.255 453.349C727.868 452.962 727.343 452.745 726.796 452.745C726.249 452.745 725.725 452.962 725.338 453.349C724.951 453.736 724.734 454.26 724.734 454.807C722.225 484.148 719.716 513.489 717.207 542.831L705.314 682.211C704.388 692.944 703.469 703.677 702.557 714.41C702.335 717.066 706.461 717.046 706.682 714.41C709.204 685.069 711.713 655.727 714.209 626.386L726.102 487.006C726.344 484.35 726.565 481.673 726.786 478.956C728.624 500.234 730.442 521.506 732.24 542.77C736.265 589.284 740.236 635.791 744.153 682.291L746.89 714.49C747.112 717.126 751.257 717.147 751.036 714.49C748.527 685.122 746.018 655.768 743.509 626.427Z" fill="#00B4D8"/>
<g opacity="0.2">
<path opacity="0.2" d="M719.521 515.663C719.4 517.031 719.28 518.42 719.179 519.788H723.304C723.425 518.42 723.546 517.031 723.647 515.663H719.521Z" fill="black"/>
<path opacity="0.2" d="M734.071 515.663H729.925L730.288 519.788H734.413C734.292 518.42 734.171 517.031 734.071 515.663Z" fill="black"/>
</g>
<g opacity="0.2">
<path opacity="0.2" d="M743.107 621.697H738.982C739.102 623.086 739.223 624.454 739.324 625.843H743.469L743.107 621.697Z" fill="black"/>
<path opacity="0.2" d="M710.123 625.863H714.249L714.611 621.718H710.385L710.123 625.863Z" fill="black"/>
</g>
<path d="M708.171 517.031H745.522C746.069 517.031 746.594 516.814 746.98 516.427C747.367 516.04 747.585 515.516 747.585 514.969C747.585 514.422 747.367 513.897 746.98 513.51C746.594 513.123 746.069 512.906 745.522 512.906H708.171C707.624 512.906 707.1 513.123 706.713 513.51C706.326 513.897 706.109 514.422 706.109 514.969C706.109 515.516 706.326 516.04 706.713 516.427C707.1 516.814 707.624 517.031 708.171 517.031Z" fill="#00B4D8"/>
<path d="M704.046 623.086H749.647C750.194 623.086 750.719 622.869 751.106 622.482C751.493 622.095 751.71 621.57 751.71 621.023C751.71 620.476 751.493 619.952 751.106 619.565C750.719 619.178 750.194 618.961 749.647 618.961H704.046C703.499 618.961 702.974 619.178 702.587 619.565C702.2 619.952 701.983 620.476 701.983 621.023C701.983 621.57 702.2 622.095 702.587 622.482C702.974 622.869 703.499 623.086 704.046 623.086Z" fill="#00B4D8"/>
<path d="M855.662 579.98H840.589V585.937H843.044V612.621H853.187V585.937H855.662V579.98Z" fill="#00B4D8"/>
<g opacity="0.2">
<path opacity="0.2" d="M855.662 579.98H840.589V585.937H843.044V612.621H853.187V585.937H855.662V579.98Z" fill="black"/>
</g>
<path d="M766.571 560.963L713.081 643.251V717.127H839.743V643.251L766.571 560.963Z" fill="#00B4D8"/>
<path opacity="0.5" d="M766.571 560.963L713.081 643.251V717.127H839.743V643.251L766.571 560.963Z" fill="white"/>
<path d="M825.335 564.303L817.184 551.806H766.572L706.964 643.251H757.577H825.335V564.303Z" fill="#00B4D8"/>
<path opacity="0.2" d="M825.335 564.303L817.184 551.806H766.572L706.964 643.251H757.577H825.335V564.303Z" fill="black"/>
<path d="M757.576 643.251L817.184 551.806L876.812 643.251H757.576Z" fill="#00B4D8"/>
<path d="M817.185 560.963L763.694 643.251V717.127H870.675V643.251L817.185 560.963Z" fill="#00B4D8"/>
<path opacity="0.8" d="M817.185 560.963L763.694 643.251V717.127H870.675V643.251L817.185 560.963Z" fill="white"/>
<path d="M836.121 664.884H798.952V716.724H836.121V664.884Z" fill="#00B4D8"/>
<path opacity="0.4" d="M836.121 664.884H798.952V716.724H836.121V664.884Z" fill="white"/>
<path d="M833.827 654.037H801.266L793.337 666.735H841.736L833.827 654.037Z" fill="#00B4D8"/>
<path d="M816.842 673.698H805.452V687.121H816.842V673.698Z" fill="#263238"/>
<path d="M829.642 673.698H818.251V687.121H829.642V673.698Z" fill="#263238"/>
<path d="M816.842 688.51H805.452V701.953H816.842V688.51Z" fill="#263238"/>
<path d="M829.642 688.51H818.251V701.953H829.642V688.51Z" fill="#263238"/>
<path d="M816.842 703.301H805.452V716.724H816.842V703.301Z" fill="#263238"/>
<path d="M829.642 703.301H818.251V716.724H829.642V703.301Z" fill="#263238"/>
<path d="M804.023 608.315H793.196V636.992H804.023V608.315Z" fill="#00B4D8"/>
<path d="M841.897 608.315H831.07V636.992H841.897V608.315Z" fill="#00B4D8"/>
<path d="M831.07 606.966H804.023V638.34H831.07V606.966Z" fill="#00B4D8"/>
<path opacity="0.4" d="M831.07 606.966H804.023V638.34H831.07V606.966Z" fill="white"/>
<path d="M816.882 610.347H807.404V621.979H816.882V610.347Z" fill="#263238"/>
<path d="M827.689 610.347H818.211V621.979H827.689V610.347Z" fill="#263238"/>
<path d="M816.882 623.348H807.404V634.979H816.882V623.348Z" fill="#263238"/>
<path d="M827.689 623.348H818.211V634.979H827.689V623.348Z" fill="#263238"/>
<path d="M552.873 436.897H484.551V716.885H552.873V436.897Z" fill="#00B4D8"/>
<path opacity="0.5" d="M552.873 436.897H484.551V716.885H552.873V436.897Z" fill="white"/>
<path d="M502.904 408.763L484.551 436.897H552.873L534.54 408.763H502.904Z" fill="#00B4D8"/>
<path opacity="0.2" d="M502.904 408.763L484.551 436.897H552.873L534.54 408.763H502.904Z" fill="black"/>
<path d="M534.54 408.763L516.186 436.897H584.508L566.175 408.763H534.54Z" fill="#00B4D8"/>
<path d="M566.175 363.806H534.539V408.743H566.175V363.806Z" fill="#00B4D8"/>
<path opacity="0.8" d="M566.175 363.806H534.539V408.743H566.175V363.806Z" fill="white"/>
<path d="M558.85 377.249C558.562 375.344 557.6 373.606 556.14 372.35C554.679 371.094 552.817 370.403 550.89 370.403C548.964 370.403 547.102 371.094 545.641 372.35C544.181 373.606 543.22 375.344 542.931 377.249V403.008H558.85V377.249Z" fill="#263238"/>
<path d="M550.88 369.3C550.199 369.308 549.522 369.41 548.868 369.601C550.583 370.019 552.11 370.999 553.204 372.385C554.298 373.771 554.897 375.483 554.905 377.249V403.008H558.93V377.249C558.904 375.131 558.044 373.109 556.537 371.622C555.03 370.134 552.998 369.299 550.88 369.3Z" fill="#263238"/>
<path opacity="0.5" d="M550.88 369.3C550.199 369.308 549.522 369.41 548.868 369.601C550.583 370.019 552.11 370.999 553.204 372.385C554.298 373.771 554.897 375.483 554.905 377.249V403.008H558.93V377.249C558.904 375.131 558.044 373.109 556.537 371.622C555.03 370.134 552.998 369.299 550.88 369.3Z" fill="white"/>
<path d="M534.539 363.806H502.904V408.743H534.539V363.806Z" fill="#00B4D8"/>
<path opacity="0.5" d="M534.539 363.806H502.904V408.743H534.539V363.806Z" fill="white"/>
<path d="M510.229 377.249C510.518 375.344 511.479 373.606 512.94 372.35C514.4 371.094 516.262 370.403 518.189 370.403C520.115 370.403 521.977 371.094 523.438 372.35C524.898 373.606 525.86 375.344 526.148 377.249V403.008H510.229V377.249Z" fill="#263238"/>
<path d="M518.179 369.3C518.86 369.307 519.537 369.408 520.191 369.601C518.477 370.022 516.953 371.003 515.859 372.388C514.766 373.773 514.166 375.484 514.154 377.249V403.008H510.129V377.249C510.155 375.131 511.015 373.109 512.522 371.622C514.029 370.134 516.061 369.299 518.179 369.3Z" fill="#263238"/>
<path opacity="0.5" d="M518.179 369.3C518.86 369.307 519.537 369.408 520.191 369.601C518.477 370.022 516.953 371.003 515.859 372.388C514.766 373.773 514.166 375.484 514.154 377.249V403.008H510.129V377.249C510.155 375.131 511.015 373.109 512.522 371.622C514.029 370.134 516.061 369.299 518.179 369.3Z" fill="white"/>
<path d="M502.059 364.208L534.459 268.236L566.839 364.208H502.059Z" fill="#00B4D8"/>
<path opacity="0.2" d="M534.539 268.477L534.459 268.236L502.059 364.208H534.539V268.477Z" fill="black"/>
<path d="M584.508 436.897H516.186V716.885H584.508V436.897Z" fill="#00B4D8"/>
<path opacity="0.8" d="M584.508 436.897H516.186V716.885H584.508V436.897Z" fill="white"/>
<path d="M537.88 455.894H527.456V483.504H537.88V455.894Z" fill="#00B4D8"/>
<path d="M574.325 455.894H563.901V483.504H574.325V455.894Z" fill="#00B4D8"/>
<path d="M563.901 454.586H537.86V484.792H563.901V454.586Z" fill="#00B4D8"/>
<path opacity="0.3" d="M563.901 454.586H537.86V484.792H563.901V454.586Z" fill="white"/>
<path d="M550.236 457.846H541.12V469.035H550.236V457.846Z" fill="#263238"/>
<path d="M560.661 457.846H551.545V469.035H560.661V457.846Z" fill="#263238"/>
<path d="M550.236 470.343H541.12V481.532H550.236V470.343Z" fill="#263238"/>
<path d="M560.661 470.343H551.545V481.532H560.661V470.343Z" fill="#263238"/>
<path d="M537.88 587.064H527.456V614.674H537.88V587.064Z" fill="#00B4D8"/>
<path d="M574.325 587.064H563.901V614.674H574.325V587.064Z" fill="#00B4D8"/>
<path d="M563.901 585.776H537.86V615.982H563.901V585.776Z" fill="#00B4D8"/>
<path opacity="0.3" d="M563.901 585.776H537.86V615.982H563.901V585.776Z" fill="white"/>
<path d="M550.236 589.016H541.12V600.205H550.236V589.016Z" fill="#263238"/>
<path d="M560.661 589.016H551.545V600.205H560.661V589.016Z" fill="#263238"/>
<path d="M550.236 601.513H541.12V612.702H550.236V601.513Z" fill="#263238"/>
<path d="M560.661 601.513H551.545V612.702H560.661V601.513Z" fill="#263238"/>
<path d="M508.7 520.171H488.576V550.377H508.7V520.171Z" fill="#00B4D8"/>
<path opacity="0.8" d="M508.7 520.171H488.576V550.377H508.7V520.171Z" fill="white"/>
<path d="M498.115 523.431H491.071V534.62H498.115V523.431Z" fill="#263238"/>
<path d="M506.165 523.431H499.121V534.62H506.165V523.431Z" fill="#263238"/>
<path d="M498.115 535.928H491.071V547.117H498.115V535.928Z" fill="#263238"/>
<path d="M506.165 535.928H499.121V547.117H506.165V535.928Z" fill="#263238"/>
<path d="M508.7 651.361H488.576V681.567H508.7V651.361Z" fill="#00B4D8"/>
<path opacity="0.8" d="M508.7 651.361H488.576V681.567H508.7V651.361Z" fill="white"/>
<path d="M498.115 654.621H491.071V665.81H498.115V654.621Z" fill="#263238"/>
<path d="M506.165 654.621H499.121V665.81H506.165V654.621Z" fill="#263238"/>
<path d="M498.115 667.118H491.071V678.307H498.115V667.118Z" fill="#263238"/>
<path d="M506.165 667.118H499.121V678.307H506.165V667.118Z" fill="#263238"/>
<path d="M149.624 460.16H165.562V466.459H162.966V489.823H152.22V466.459H149.624V460.16Z" fill="#00B4D8"/>
<g opacity="0.2">
<path opacity="0.2" d="M149.624 460.16H165.562V466.459H162.966V489.823H152.22V466.459H149.624V460.16Z" fill="black"/>
</g>
<path d="M223.097 439.372L279.747 526.51V717.126H166.468V526.51L223.097 439.372Z" fill="#00B4D8"/>
<path opacity="0.8" d="M223.097 439.372L279.747 526.51V717.126H166.468V526.51L223.097 439.372Z" fill="white"/>
<path d="M181.722 442.914L190.355 429.692H223.097L286.227 526.51H253.465H181.722V442.914Z" fill="#00B4D8"/>
<path opacity="0.2" d="M181.722 442.914L190.355 429.692H223.097L286.227 526.51H253.465H181.722V442.914Z" fill="black"/>
<path d="M253.465 526.51L190.355 429.692L127.225 526.51H253.465Z" fill="#00B4D8"/>
<path d="M190.355 439.372L246.985 526.51V717.126H133.705V526.51L190.355 439.372Z" fill="#00B4D8"/>
<path opacity="0.5" d="M190.355 439.372L246.985 526.51V717.126H133.705V526.51L190.355 439.372Z" fill="white"/>
<path d="M203.697 478.956H177.012V509.163H203.697V478.956Z" fill="#00B4D8"/>
<path opacity="0.7" d="M203.697 478.956H177.012V509.163H203.697V478.956Z" fill="white"/>
<path d="M200.115 482.196H190.999V493.385H200.115V482.196Z" fill="#263238"/>
<path d="M189.691 482.196H180.574V493.385H189.691V482.196Z" fill="#263238"/>
<path d="M200.115 494.714H190.999V505.903H200.115V494.714Z" fill="#263238"/>
<path d="M189.691 494.714H180.574V505.903H189.691V494.714Z" fill="#263238"/>
<path d="M223.097 532.467H157.593V575.291H223.097V532.467Z" fill="#00B4D8"/>
<path opacity="0.7" d="M223.097 532.467H157.593V575.291H223.097V532.467Z" fill="white"/>
<path d="M218.811 537.075H206.736V552.953H218.811V537.075Z" fill="#263238"/>
<path d="M205.005 537.075H192.931V552.953H205.005V537.075Z" fill="#263238"/>
<path d="M218.811 554.805H206.736V570.683H218.811V554.805Z" fill="#263238"/>
<path d="M205.005 554.805H192.931V570.683H205.005V554.805Z" fill="#263238"/>
<path d="M236.882 534.318H223.097V573.44H236.882V534.318Z" fill="#00B4D8"/>
<path d="M157.593 534.318H143.808V573.44H157.593V534.318Z" fill="#00B4D8"/>
<path d="M187.779 537.075H175.705V552.953H187.779V537.075Z" fill="#263238"/>
<path d="M173.974 537.075H161.899V552.953H173.974V537.075Z" fill="#263238"/>
<path d="M187.779 554.805H175.705V570.683H187.779V554.805Z" fill="#263238"/>
<path d="M173.974 554.805H161.899V570.683H173.974V554.805Z" fill="#263238"/>
<path d="M223.097 596.925H157.593V639.749H223.097V596.925Z" fill="#00B4D8"/>
<path opacity="0.7" d="M223.097 596.925H157.593V639.749H223.097V596.925Z" fill="white"/>
<path d="M218.811 601.533H206.736V617.411H218.811V601.533Z" fill="#263238"/>
<path d="M205.005 601.533H192.931V617.411H205.005V601.533Z" fill="#263238"/>
<path d="M218.811 619.262H206.736V635.14H218.811V619.262Z" fill="#263238"/>
<path d="M205.005 619.262H192.931V635.14H205.005V619.262Z" fill="#263238"/>
<path d="M236.882 598.776H223.097V637.897H236.882V598.776Z" fill="#00B4D8"/>
<path d="M157.593 598.776H143.808V637.897H157.593V598.776Z" fill="#00B4D8"/>
<path d="M187.779 601.533H175.705V617.411H187.779V601.533Z" fill="#263238"/>
<path d="M173.974 601.533H161.899V617.411H173.974V601.533Z" fill="#263238"/>
<path d="M187.779 619.262H175.705V635.14H187.779V619.262Z" fill="#263238"/>
<path d="M173.974 619.262H161.899V635.14H173.974V619.262Z" fill="#263238"/>
<path d="M170.653 717.126H210.016V662.228H170.653V717.126Z" fill="#00B4D8"/>
<path opacity="0.7" d="M170.653 717.126H210.016V662.228H170.653V717.126Z" fill="white"/>
<path d="M173.108 650.717H207.581L215.973 664.159H164.737L173.108 650.717Z" fill="#00B4D8"/>
<path d="M203.154 671.545H191.1V685.773H203.154V671.545Z" fill="#263238"/>
<path d="M189.591 671.545H177.536V685.773H189.591V671.545Z" fill="#263238"/>
<path d="M203.154 687.222H191.1V701.45H203.154V687.222Z" fill="#263238"/>
<path d="M189.591 687.222H177.536V701.45H189.591V687.222Z" fill="#263238"/>
<path d="M203.154 702.899H191.1V717.126H203.154V702.899Z" fill="#263238"/>
<path d="M189.591 702.899H177.536V717.126H189.591V702.899Z" fill="#263238"/>
<path d="M707.909 525.302H546.091V717.126H707.909V525.302Z" fill="#00B4D8"/>
<path opacity="0.6" d="M707.909 525.302H546.091V717.126H707.909V525.302Z" fill="white"/>
<path d="M745.703 525.302H665.79V717.126H745.703V525.302Z" fill="#00B4D8"/>
<path opacity="0.8" d="M745.703 525.302H665.79V717.126H745.703V525.302Z" fill="white"/>
<path d="M725.941 532.386L694.325 473.704H559.694L528.079 532.386H725.941Z" fill="#00B4D8"/>
<path opacity="0.3" d="M725.941 532.386L694.325 473.704H559.694L528.079 532.386H725.941Z" fill="black"/>
<path d="M763.734 532.386L732.119 473.704H679.394L647.779 532.386H763.734Z" fill="#00B4D8"/>
<path opacity="0.2" d="M763.734 532.386L732.119 473.704H679.394L647.779 532.386H763.734Z" fill="black"/>
<path d="M592.276 548.284H563.337V581.852H592.276V548.284Z" fill="#00B4D8"/>
<path opacity="0.3" d="M592.276 548.284H563.337V581.852H592.276V548.284Z" fill="white"/>
<path d="M577.062 551.907H566.94V564.343H577.062V551.907Z" fill="#263238"/>
<path d="M588.633 551.907H578.511V564.343H588.633V551.907Z" fill="#263238"/>
<path d="M577.062 565.792H566.94V578.229H577.062V565.792Z" fill="#263238"/>
<path d="M588.633 565.792H578.511V578.229H588.633V565.792Z" fill="#263238"/>
<path d="M649.288 548.284H620.349V581.852H649.288V548.284Z" fill="#00B4D8"/>
<path opacity="0.3" d="M649.288 548.284H620.349V581.852H649.288V548.284Z" fill="white"/>
<path d="M634.094 551.907H623.972V564.343H634.094V551.907Z" fill="#263238"/>
<path d="M645.666 551.907H635.543V564.343H645.666V551.907Z" fill="#263238"/>
<path d="M634.094 565.792H623.972V578.229H634.094V565.792Z" fill="#263238"/>
<path d="M645.666 565.792H635.543V578.229H645.666V565.792Z" fill="#263238"/>
<path d="M690.925 549.733H679.354V580.402H690.925V549.733Z" fill="#00B4D8"/>
<path d="M731.435 549.733H719.864V580.402H731.435V549.733Z" fill="#00B4D8"/>
<path d="M719.864 548.284H690.925V581.852H719.864V548.284Z" fill="#00B4D8"/>
<path opacity="0.3" d="M719.864 548.284H690.925V581.852H719.864V548.284Z" fill="white"/>
<path d="M704.67 551.907H694.547V564.343H704.67V551.907Z" fill="#263238"/>
<path d="M716.241 551.907H706.118V564.343H716.241V551.907Z" fill="#263238"/>
<path d="M704.67 565.792H694.547V578.229H704.67V565.792Z" fill="#263238"/>
<path d="M716.241 565.792H706.118V578.229H716.241V565.792Z" fill="#263238"/>
<path d="M592.276 595.456H563.337V629.023H592.276V595.456Z" fill="#00B4D8"/>
<path opacity="0.3" d="M592.276 595.456H563.337V629.023H592.276V595.456Z" fill="white"/>
<path d="M577.062 599.078H566.94V611.515H577.062V599.078Z" fill="#263238"/>
<path d="M588.633 599.078H578.511V611.515H588.633V599.078Z" fill="#263238"/>
<path d="M577.062 612.963H566.94V625.4H577.062V612.963Z" fill="#263238"/>
<path d="M588.633 612.963H578.511V625.4H588.633V612.963Z" fill="#263238"/>
<path d="M649.288 595.456H620.349V629.023H649.288V595.456Z" fill="#00B4D8"/>
<path opacity="0.3" d="M649.288 595.456H620.349V629.023H649.288V595.456Z" fill="white"/>
<path d="M634.094 599.078H623.972V611.515H634.094V599.078Z" fill="#263238"/>
<path d="M645.666 599.078H635.543V611.515H645.666V599.078Z" fill="#263238"/>
<path d="M634.094 612.963H623.972V625.4H634.094V612.963Z" fill="#263238"/>
<path d="M645.666 612.963H635.543V625.4H645.666V612.963Z" fill="#263238"/>
<path d="M690.925 596.904H679.354V627.574H690.925V596.904Z" fill="#00B4D8"/>
<path d="M731.435 596.904H719.864V627.574H731.435V596.904Z" fill="#00B4D8"/>
<path d="M719.864 595.456H690.925V629.023H719.864V595.456Z" fill="#00B4D8"/>
<path opacity="0.3" d="M719.864 595.456H690.925V629.023H719.864V595.456Z" fill="white"/>
<path d="M704.67 599.078H694.547V611.515H704.67V599.078Z" fill="#263238"/>
<path d="M716.241 599.078H706.118V611.515H716.241V599.078Z" fill="#263238"/>
<path d="M704.67 612.963H694.547V625.4H704.67V612.963Z" fill="#263238"/>
<path d="M716.241 612.963H706.118V625.4H716.241V612.963Z" fill="#263238"/>
<path d="M745.703 666.494H546.091V717.126H745.703V666.494Z" fill="#00B4D8"/>
<path opacity="0.1" d="M665.789 666.494H546.091V717.126H665.789V666.494Z" fill="black"/>
<path d="M621.295 656.13H583.502V717.126H621.295V656.13Z" fill="#00B4D8"/>
<path opacity="0.3" d="M621.295 656.13H583.502V717.126H621.295V656.13Z" fill="white"/>
<path d="M618.961 643.351H585.836L577.807 658.283H627.01L618.961 643.351Z" fill="#00B4D8"/>
<path d="M601.674 666.494H590.103V682.291H601.674V666.494Z" fill="#263238"/>
<path d="M614.694 666.494H603.123V682.291H614.694V666.494Z" fill="#263238"/>
<path d="M601.674 683.901H590.103V699.699H601.674V683.901Z" fill="#263238"/>
<path d="M614.694 683.901H603.123V699.699H614.694V683.901Z" fill="#263238"/>
<path d="M601.674 701.329H590.103V717.127H601.674V701.329Z" fill="#263238"/>
<path d="M614.694 701.329H603.123V717.127H614.694V701.329Z" fill="#263238"/>
<path d="M589.861 522.344V473.704H652.085L625.883 522.344H589.861Z" fill="#00B4D8"/>
<path opacity="0.8" d="M589.861 522.344V473.704H652.085L625.883 522.344H589.861Z" fill="white"/>
<path d="M588.03 522.364H625.823V484.571H588.03V522.364Z" fill="#00B4D8"/>
<path opacity="0.6" d="M588.03 522.364H625.823V484.571H588.03V522.364Z" fill="white"/>
<path d="M614.896 517.877H598.958C598.614 517.877 598.274 517.809 597.957 517.677C597.639 517.546 597.351 517.353 597.108 517.11C596.865 516.867 596.672 516.579 596.541 516.262C596.409 515.944 596.341 515.604 596.341 515.26V513.349H617.512V515.26C617.512 515.954 617.237 516.62 616.746 517.11C616.255 517.601 615.59 517.877 614.896 517.877Z" fill="#00B4D8"/>
<path d="M613.627 498.799H607.469V504.957H613.627V498.799Z" fill="#263238"/>
<path d="M606.403 498.799H600.245V504.957H606.403V498.799Z" fill="#263238"/>
<path d="M613.627 506.044H607.469V512.202H613.627V506.044Z" fill="#263238"/>
<path d="M606.403 506.044H600.245V512.202H606.403V506.044Z" fill="#263238"/>
<path d="M613.628 497.752C613.677 496.843 613.541 495.933 613.228 495.077C612.914 494.222 612.429 493.44 611.803 492.778C611.177 492.117 610.422 491.59 609.585 491.23C608.749 490.87 607.847 490.684 606.936 490.684C606.025 490.684 605.124 490.87 604.287 491.23C603.45 491.59 602.696 492.117 602.07 492.778C601.443 493.44 600.959 494.222 600.645 495.077C600.331 495.933 600.195 496.843 600.245 497.752H613.628Z" fill="#263238"/>
<path d="M613.628 486.724L620.631 473.704H652.085L645.082 486.724H613.628Z" fill="#00B4D8"/>
<path opacity="0.2" d="M613.628 486.724L620.631 473.704H652.085L645.082 486.724H613.628Z" fill="black"/>
<path d="M624.515 473.704L631.538 486.724H582.314L589.338 473.704H624.515Z" fill="#00B4D8"/>
<path d="M454.586 554.241H263.607V717.126H454.586V554.241Z" fill="#00B4D8"/>
<path opacity="0.5" d="M454.586 554.241H263.607V717.126H454.586V554.241Z" fill="white"/>
<path d="M472.597 561.325L440.982 502.643H277.211L245.596 561.325H472.597Z" fill="#00B4D8"/>
<path opacity="0.3" d="M472.597 561.325L440.982 502.643H277.211L245.596 561.325H472.597Z" fill="black"/>
<path d="M492.379 554.241H301.401V717.126H492.379V554.241Z" fill="#00B4D8"/>
<path opacity="0.8" d="M492.379 554.241H301.401V717.126H492.379V554.241Z" fill="white"/>
<path d="M453.56 480.264H435.831V487.268H438.728V504.856H450.662V487.268H453.56V480.264Z" fill="#00B4D8"/>
<path d="M510.391 561.325L478.775 502.643H315.005L283.389 561.325H510.391Z" fill="#00B4D8"/>
<path opacity="0.2" d="M510.391 561.325L478.775 502.643H315.005L283.389 561.325H510.391Z" fill="black"/>
<path d="M415.787 656.13H377.993V717.126H415.787V656.13Z" fill="#00B4D8"/>
<path opacity="0.4" d="M415.787 656.13H377.993V717.126H415.787V656.13Z" fill="white"/>
<path d="M413.432 643.351H380.328L372.278 658.283H421.482L413.432 643.351Z" fill="#00B4D8"/>
<path d="M396.165 666.494H384.594V682.291H396.165V666.494Z" fill="#263238"/>
<path d="M409.186 666.494H397.615V682.291H409.186V666.494Z" fill="#263238"/>
<path d="M396.165 683.901H384.594V699.699H396.165V683.901Z" fill="#263238"/>
<path d="M409.186 683.901H397.615V699.699H409.186V683.901Z" fill="#263238"/>
<path d="M396.165 701.329H384.594V717.127H396.165V701.329Z" fill="#263238"/>
<path d="M409.186 701.329H397.615V717.127H409.186V701.329Z" fill="#263238"/>
<path d="M376.564 574.748H321.585V608.315H376.564V574.748Z" fill="#00B4D8"/>
<path opacity="0.4" d="M376.564 574.748H321.585V608.315H376.564V574.748Z" fill="white"/>
<path d="M335.33 578.35H325.208V590.787H335.33V578.35Z" fill="#263238"/>
<path d="M346.902 578.35H336.779V590.787H346.902V578.35Z" fill="#263238"/>
<path d="M335.33 592.236H325.208V604.672H335.33V592.236Z" fill="#263238"/>
<path d="M346.902 592.236H336.779V604.672H346.902V592.236Z" fill="#263238"/>
<path d="M321.585 576.176H310.014V606.846H321.585V576.176Z" fill="#00B4D8"/>
<path d="M388.136 576.176H376.564V606.846H388.136V576.176Z" fill="#00B4D8"/>
<path d="M361.371 578.35H351.248V590.787H361.371V578.35Z" fill="#263238"/>
<path d="M372.942 578.35H362.82V590.787H372.942V578.35Z" fill="#263238"/>
<path d="M361.371 592.236H351.248V604.672H361.371V592.236Z" fill="#263238"/>
<path d="M372.942 592.236H362.82V604.672H372.942V592.236Z" fill="#263238"/>
<path d="M472.175 574.748H417.196V608.315H472.175V574.748Z" fill="#00B4D8"/>
<path opacity="0.4" d="M472.175 574.748H417.196V608.315H472.175V574.748Z" fill="white"/>
<path d="M430.94 578.35H420.817V590.787H430.94V578.35Z" fill="#263238"/>
<path d="M442.511 578.35H432.389V590.787H442.511V578.35Z" fill="#263238"/>
<path d="M430.94 592.236H420.817V604.672H430.94V592.236Z" fill="#263238"/>
<path d="M442.511 592.236H432.389V604.672H442.511V592.236Z" fill="#263238"/>
<path d="M417.195 576.176H405.624V606.846H417.195V576.176Z" fill="#00B4D8"/>
<path d="M483.746 576.176H472.175V606.846H483.746V576.176Z" fill="#00B4D8"/>
<path d="M456.981 578.35H446.858V590.787H456.981V578.35Z" fill="#263238"/>
<path d="M468.552 578.35H458.43V590.787H468.552V578.35Z" fill="#263238"/>
<path d="M456.981 592.236H446.858V604.672H456.981V592.236Z" fill="#263238"/>
<path d="M468.552 592.236H458.43V604.672H468.552V592.236Z" fill="#263238"/>
<path d="M321.585 646.35H310.014V677.019H321.585V646.35Z" fill="#00B4D8"/>
<path d="M362.095 646.35H350.524V677.019H362.095V646.35Z" fill="#00B4D8"/>
<path d="M350.524 644.901H321.585V678.468H350.524V644.901Z" fill="#00B4D8"/>
<path opacity="0.4" d="M350.524 644.901H321.585V678.468H350.524V644.901Z" fill="white"/>
<path d="M335.33 648.523H325.208V660.96H335.33V648.523Z" fill="#263238"/>
<path d="M346.902 648.523H336.779V660.96H346.902V648.523Z" fill="#263238"/>
<path d="M335.33 662.409H325.208V674.845H335.33V662.409Z" fill="#263238"/>
<path d="M346.902 662.409H336.779V674.845H346.902V662.409Z" fill="#263238"/>
<path d="M443.236 646.35H431.665V677.019H443.236V646.35Z" fill="#00B4D8"/>
<path d="M483.746 646.35H472.175V677.019H483.746V646.35Z" fill="#00B4D8"/>
<path d="M472.174 644.901H443.236V678.468H472.174V644.901Z" fill="#00B4D8"/>
<path opacity="0.4" d="M472.174 644.901H443.236V678.468H472.174V644.901Z" fill="white"/>
<path d="M456.981 648.523H446.858V660.96H456.981V648.523Z" fill="#263238"/>
<path d="M468.552 648.523H458.43V660.96H468.552V648.523Z" fill="#263238"/>
<path d="M456.981 662.409H446.858V674.845H456.981V662.409Z" fill="#263238"/>
<path d="M468.552 662.409H458.43V674.845H468.552V662.409Z" fill="#263238"/>
<path d="M413.955 551.283V502.643H351.731L377.933 551.283H413.955Z" fill="#00B4D8"/>
<path opacity="0.5" d="M413.955 551.283V502.643H351.731L377.933 551.283H413.955Z" fill="white"/>
<path d="M415.787 513.49H377.993V551.283H415.787V513.49Z" fill="#00B4D8"/>
<path opacity="0.8" d="M415.787 513.49H377.993V551.283H415.787V513.49Z" fill="white"/>
<path d="M386.385 542.187H407.535V544.098C407.535 544.792 407.26 545.458 406.769 545.948C406.279 546.439 405.613 546.715 404.919 546.715H388.981C388.287 546.715 387.622 546.439 387.131 545.948C386.64 545.458 386.365 544.792 386.365 544.098V542.187H386.385Z" fill="#00B4D8"/>
<path d="M396.346 527.737H390.188V533.895H396.346V527.737Z" fill="#263238"/>
<path d="M403.591 527.737H397.433V533.895H403.591V527.737Z" fill="#263238"/>
<path d="M396.346 534.982H390.188V541.14H396.346V534.982Z" fill="#263238"/>
<path d="M403.591 534.982H397.433V541.14H403.591V534.982Z" fill="#263238"/>
<path d="M390.189 526.691C390.139 525.781 390.275 524.871 390.588 524.016C390.902 523.161 391.387 522.379 392.013 521.717C392.639 521.055 393.394 520.529 394.231 520.168C395.068 519.808 395.969 519.623 396.88 519.623C397.791 519.623 398.692 519.808 399.529 520.168C400.366 520.529 401.12 521.055 401.746 521.717C402.373 522.379 402.858 523.161 403.171 524.016C403.485 524.871 403.621 525.781 403.571 526.691H390.189Z" fill="#263238"/>
<path d="M390.189 515.643L383.185 502.643H351.731L358.734 515.643H390.189Z" fill="#00B4D8"/>
<path opacity="0.3" d="M390.189 515.643L383.185 502.643H351.731L358.734 515.643H390.189Z" fill="black"/>
<path d="M379.281 502.643L372.278 515.643H421.482L414.479 502.643H379.281Z" fill="#00B4D8"/>
<path d="M273.347 684.223C273.347 684.223 237.989 680.199 234.347 670.438C231.409 662.59 248.756 649.328 250.768 641.178C252.318 634.899 248.132 621.456 250.044 615.258C251.754 609.784 262.319 602.318 263.607 596.723C264.211 594.067 261.051 588.674 261.595 586.017C263.084 579.98 270.711 565.531 276.829 566.517C286.448 568.066 290.554 593.161 290.916 602.901C291.057 606.564 286.227 613.286 286.589 616.988C287.253 623.529 299.428 633.49 299.187 640.051C299.187 642.808 293.331 646.571 293.15 649.328C293.009 654.299 304.198 661.886 302.89 666.695C300.837 674.926 273.347 684.223 273.347 684.223Z" fill="#00B4D8"/>
<path d="M283.369 632.222L287.796 627.996L287.595 627.513L283.751 631.216C283.487 631.468 283.167 631.655 282.818 631.764C282.469 631.872 282.1 631.898 281.739 631.84L274.877 630.492L273.87 590.887H272.442L270.771 655.405C265.479 657.075 260.105 658.479 254.672 659.611C252.499 659.893 245.878 659.611 245.878 659.611V660.396C245.878 660.396 252.841 660.899 255.155 660.718C256.302 660.718 259.683 659.853 259.683 659.853L255.155 664.099L255.638 664.642L261.293 659.591L270.61 657.297L269.061 717.086H276.97L274.796 631.578C274.796 631.578 280.994 632.786 283.087 632.846C285.18 632.907 290.714 632.102 290.714 632.102L290.996 631.719L283.369 632.222Z" fill="#263238"/>
</svg>
