<svg xmlns="http://www.w3.org/2000/svg" viewBox="0 0 750 500"><g id="freepik--background-complete--inject-30"><path d="M277,63.21c-7.05,0-125.72.78-133.17.54-.54,0-.83-.8-.29-1.06,4.7-2.33,10-1.86,14.91-3.51,2.88-1,4.64-2.85,6.64-5a13.63,13.63,0,0,1,6.17-4,13,13,0,0,1,6.73-.22c2.41.58,4.5,2,6.79,2.83,5.7,2.15,11.24.1,15.31-4.12,3.36-3.47,6.66-6.75,11.22-8.62a14.9,14.9,0,0,1,11.89-.17c4.35,2,7.34,5.94,11.43,8.32,4.84,2.84,10.64,2.17,16,3s9.47,5.36,14.16,8a10,10,0,0,0,5.12,1.58,30,30,0,0,0,3.12-.44c1.61-.2,3.15-.15,4.23,1.2C277.5,61.82,277.44,63.21,277,63.21Z" style="fill:#ebebeb"></path><path d="M699.89,76.69c-5.15,0-91.78.58-97.23.4-.39,0-.6-.59-.21-.78,3.43-1.7,7.33-1.36,10.89-2.56,2.1-.71,3.39-2.08,4.85-3.65a9.91,9.91,0,0,1,4.5-2.94A9.51,9.51,0,0,1,627.6,67a42.13,42.13,0,0,1,5,2.06c4.17,1.57,8.21.08,11.18-3,2.45-2.54,4.86-4.93,8.19-6.3a10.88,10.88,0,0,1,8.68-.12C663.79,61.08,666,64,669,65.72c3.53,2.06,7.77,1.58,11.67,2.2s6.91,3.91,10.34,5.81a7.34,7.34,0,0,0,3.74,1.16,22.17,22.17,0,0,0,2.27-.33,3.13,3.13,0,0,1,3.1.88C700.27,75.68,700.23,76.69,699.89,76.69Z" style="fill:#ebebeb"></path><path d="M189.85,135.26c-5.15,0-91.79.57-97.23.39a.42.42,0,0,1-.21-.78c3.43-1.7,7.32-1.35,10.89-2.56,2.1-.7,3.39-2.08,4.84-3.65a10.08,10.08,0,0,1,4.51-2.94,9.51,9.51,0,0,1,4.91-.16c1.76.42,3.28,1.43,5,2.06,4.16,1.57,8.21.08,11.18-3,2.45-2.54,4.86-4.93,8.19-6.3a10.92,10.92,0,0,1,8.68-.12c3.18,1.44,5.36,4.34,8.34,6.08,3.54,2.07,7.77,1.58,11.68,2.2s6.91,3.92,10.34,5.81a7.34,7.34,0,0,0,3.73,1.16c.77,0,1.52-.23,2.28-.32A3.08,3.08,0,0,1,190,134C190.23,134.24,190.19,135.26,189.85,135.26Z" style="fill:#ebebeb"></path><path d="M147.46,237.57c-5.15,0-91.79.57-97.23.4-.39,0-.6-.59-.22-.78,3.44-1.7,7.33-1.36,10.9-2.56,2.1-.71,3.38-2.08,4.84-3.65A10.1,10.1,0,0,1,70.26,228a9.62,9.62,0,0,1,4.91-.15c1.76.42,3.28,1.43,5,2.06,4.16,1.57,8.21.08,11.18-3,2.45-2.54,4.86-4.93,8.19-6.3a10.83,10.83,0,0,1,8.68-.12c3.18,1.44,5.36,4.33,8.34,6.07,3.54,2.07,7.77,1.58,11.68,2.21s6.91,3.91,10.33,5.81a7.4,7.4,0,0,0,3.74,1.16,22,22,0,0,0,2.28-.33,3.11,3.11,0,0,1,3.09.88C147.83,236.56,147.79,237.57,147.46,237.57Z" style="fill:#ebebeb"></path><path d="M362.6,181.24c-.1.29-136.55,0-134.83,0,.79,0-1.19-1.18-.42-1.55,4.44-2.21,9.3-2.27,14.14-2.71a21.8,21.8,0,0,0,8.26-2c2.57-1.35,4.17-3.68,6-5.84a25.63,25.63,0,0,1,23.3-8.83c9.7,1.52,17.35,8.91,27.07,10.27,5.84.82,11.36-1.44,17.06-2.24A20.92,20.92,0,0,1,336,170.67c3.08,1.53,5.92,2.82,9.4,3.05,2.67.19,5.35-.11,8-.14a18,18,0,0,1,11.82,4.72C365.68,178.69,367.06,181.24,362.6,181.24Z" style="fill:#ebebeb"></path><rect x="171.56" y="161.32" width="55.59" height="291.42" transform="translate(398.72 614.06) rotate(180)" style="fill:#ebebeb"></rect><rect x="207.72" y="170.79" width="10.81" height="11.13" transform="translate(426.25 352.71) rotate(180)" style="fill:#fff"></rect><rect x="193.9" y="170.79" width="10.81" height="11.13" transform="translate(398.6 352.71) rotate(180)" style="fill:#fff"></rect><rect x="207.72" y="189.68" width="10.81" height="11.13" transform="translate(426.25 390.49) rotate(180)" style="fill:#fff"></rect><rect x="193.9" y="189.68" width="10.81" height="11.13" transform="translate(398.6 390.49) rotate(180)" style="fill:#fff"></rect><rect x="207.72" y="208.57" width="10.81" height="11.13" transform="translate(426.25 428.27) rotate(180)" style="fill:#fff"></rect><rect x="193.9" y="208.57" width="10.81" height="11.13" transform="translate(398.6 428.27) rotate(180)" style="fill:#fff"></rect><rect x="207.72" y="227.46" width="10.81" height="11.13" transform="translate(426.25 466.06) rotate(180)" style="fill:#fff"></rect><rect x="193.9" y="227.46" width="10.81" height="11.13" transform="translate(398.6 466.06) rotate(180)" style="fill:#fff"></rect><rect x="207.72" y="246.36" width="10.81" height="11.13" transform="translate(426.25 503.84) rotate(180)" style="fill:#fff"></rect><rect x="193.9" y="246.36" width="10.81" height="11.13" transform="translate(398.6 503.84) rotate(180)" style="fill:#fff"></rect><rect x="207.72" y="265.25" width="10.81" height="11.13" transform="translate(426.25 541.62) rotate(180)" style="fill:#fff"></rect><rect x="193.9" y="265.25" width="10.81" height="11.13" transform="translate(398.6 541.62) rotate(180)" style="fill:#fff"></rect><rect x="207.72" y="284.14" width="10.81" height="11.13" transform="translate(426.25 579.4) rotate(180)" style="fill:#fff"></rect><rect x="193.9" y="284.14" width="10.81" height="11.13" transform="translate(398.6 579.4) rotate(180)" style="fill:#fff"></rect><rect x="207.72" y="303.03" width="10.81" height="11.13" transform="translate(426.25 617.19) rotate(180)" style="fill:#fff"></rect><rect x="193.9" y="303.03" width="10.81" height="11.13" transform="translate(398.6 617.19) rotate(180)" style="fill:#fff"></rect><rect x="207.72" y="321.92" width="10.81" height="11.13" transform="translate(426.25 654.97) rotate(180)" style="fill:#fff"></rect><rect x="193.9" y="321.92" width="10.81" height="11.13" transform="translate(398.6 654.97) rotate(180)" style="fill:#fff"></rect><rect x="207.72" y="340.81" width="10.81" height="11.13" transform="translate(426.25 692.75) rotate(180)" style="fill:#fff"></rect><rect x="193.9" y="340.81" width="10.81" height="11.13" transform="translate(398.6 692.75) rotate(180)" style="fill:#fff"></rect><rect x="207.72" y="359.7" width="10.81" height="11.13" transform="translate(426.25 730.54) rotate(180)" style="fill:#fff"></rect><rect x="193.9" y="359.7" width="10.81" height="11.13" transform="translate(398.6 730.54) rotate(180)" style="fill:#fff"></rect><rect x="207.72" y="378.6" width="10.81" height="11.13" transform="translate(426.25 768.32) rotate(180)" style="fill:#fff"></rect><rect x="193.9" y="378.6" width="10.81" height="11.13" transform="translate(398.6 768.32) rotate(180)" style="fill:#fff"></rect><rect x="207.72" y="397.49" width="10.81" height="11.13" transform="translate(426.25 806.1) rotate(180)" style="fill:#fff"></rect><rect x="193.9" y="397.49" width="10.81" height="11.13" transform="translate(398.6 806.1) rotate(180)" style="fill:#fff"></rect><rect x="207.72" y="416.38" width="10.81" height="11.13" transform="translate(426.25 843.88) rotate(180)" style="fill:#fff"></rect><rect x="180.19" y="416.38" width="10.81" height="11.13" style="fill:#fff"></rect><rect x="180.19" y="397.49" width="10.81" height="11.13" style="fill:#fff"></rect><rect x="180.19" y="378.6" width="10.81" height="11.13" style="fill:#fff"></rect><rect x="180.19" y="359.7" width="10.81" height="11.13" style="fill:#fff"></rect><rect x="180.19" y="340.81" width="10.81" height="11.13" style="fill:#fff"></rect><rect x="180.19" y="321.92" width="10.81" height="11.13" style="fill:#fff"></rect><rect x="180.19" y="303.03" width="10.81" height="11.13" style="fill:#fff"></rect><rect x="180.19" y="284.14" width="10.81" height="11.13" style="fill:#fff"></rect><rect x="180.19" y="265.25" width="10.81" height="11.13" style="fill:#fff"></rect><rect x="180.19" y="246.36" width="10.81" height="11.13" style="fill:#fff"></rect><rect x="180.19" y="227.46" width="10.81" height="11.13" style="fill:#fff"></rect><rect x="180.19" y="208.57" width="10.81" height="11.13" style="fill:#fff"></rect><rect x="180.19" y="189.68" width="10.81" height="11.13" style="fill:#fff"></rect><rect x="180.19" y="170.79" width="10.81" height="11.13" style="fill:#fff"></rect><rect x="193.9" y="416.38" width="10.81" height="11.13" transform="translate(398.6 843.88) rotate(180)" style="fill:#fff"></rect><rect x="127.73" y="161.32" width="43.83" height="291.42" transform="translate(299.3 614.06) rotate(180)" style="fill:#dbdbdb"></rect><rect x="132.25" y="416.38" width="8.92" height="11.13" style="fill:#c7c7c7"></rect><rect x="143.67" y="416.38" width="8.92" height="11.13" style="fill:#c7c7c7"></rect><rect x="132.25" y="397.49" width="8.92" height="11.13" style="fill:#c7c7c7"></rect><rect x="143.67" y="397.49" width="8.92" height="11.13" style="fill:#c7c7c7"></rect><rect x="132.25" y="378.6" width="8.92" height="11.13" style="fill:#c7c7c7"></rect><rect x="143.67" y="378.6" width="8.92" height="11.13" style="fill:#c7c7c7"></rect><rect x="132.25" y="359.7" width="8.92" height="11.13" style="fill:#c7c7c7"></rect><rect x="143.67" y="359.7" width="8.92" height="11.13" style="fill:#c7c7c7"></rect><rect x="132.25" y="340.81" width="8.92" height="11.13" style="fill:#c7c7c7"></rect><rect x="143.67" y="340.81" width="8.92" height="11.13" style="fill:#c7c7c7"></rect><rect x="132.25" y="321.92" width="8.92" height="11.13" style="fill:#c7c7c7"></rect><rect x="143.67" y="321.92" width="8.92" height="11.13" style="fill:#c7c7c7"></rect><rect x="132.25" y="303.03" width="8.92" height="11.13" style="fill:#c7c7c7"></rect><rect x="143.67" y="303.03" width="8.92" height="11.13" style="fill:#c7c7c7"></rect><rect x="132.25" y="284.14" width="8.92" height="11.13" style="fill:#c7c7c7"></rect><rect x="143.67" y="284.14" width="8.92" height="11.13" style="fill:#c7c7c7"></rect><rect x="132.25" y="265.25" width="8.92" height="11.13" style="fill:#c7c7c7"></rect><rect x="143.67" y="265.25" width="8.92" height="11.13" style="fill:#c7c7c7"></rect><rect x="132.25" y="246.36" width="8.92" height="11.13" style="fill:#c7c7c7"></rect><rect x="143.67" y="246.36" width="8.92" height="11.13" style="fill:#c7c7c7"></rect><rect x="132.25" y="227.46" width="8.92" height="11.13" style="fill:#c7c7c7"></rect><rect x="143.67" y="227.46" width="8.92" height="11.13" style="fill:#c7c7c7"></rect><rect x="132.25" y="208.57" width="8.92" height="11.13" style="fill:#c7c7c7"></rect><rect x="143.67" y="208.57" width="8.92" height="11.13" style="fill:#c7c7c7"></rect><rect x="132.25" y="189.68" width="8.92" height="11.13" style="fill:#c7c7c7"></rect><rect x="143.67" y="189.68" width="8.92" height="11.13" style="fill:#c7c7c7"></rect><rect x="132.25" y="170.79" width="8.92" height="11.13" style="fill:#c7c7c7"></rect><rect x="154.98" y="170.79" width="8.92" height="11.13" transform="translate(318.89 352.71) rotate(180)" style="fill:#c7c7c7"></rect><rect x="154.98" y="189.68" width="8.92" height="11.13" transform="translate(318.89 390.49) rotate(180)" style="fill:#c7c7c7"></rect><rect x="154.98" y="208.57" width="8.92" height="11.13" transform="translate(318.89 428.27) rotate(180)" style="fill:#c7c7c7"></rect><rect x="154.98" y="227.46" width="8.92" height="11.13" transform="translate(318.89 466.06) rotate(180)" style="fill:#c7c7c7"></rect><rect x="154.98" y="246.36" width="8.92" height="11.13" transform="translate(318.89 503.84) rotate(180)" style="fill:#c7c7c7"></rect><rect x="154.98" y="265.25" width="8.92" height="11.13" transform="translate(318.89 541.62) rotate(180)" style="fill:#c7c7c7"></rect><rect x="154.98" y="284.14" width="8.92" height="11.13" transform="translate(318.89 579.4) rotate(180)" style="fill:#c7c7c7"></rect><rect x="154.98" y="303.03" width="8.92" height="11.13" transform="translate(318.89 617.19) rotate(180)" style="fill:#c7c7c7"></rect><rect x="154.98" y="321.92" width="8.92" height="11.13" transform="translate(318.89 654.97) rotate(180)" style="fill:#c7c7c7"></rect><rect x="154.98" y="340.81" width="8.92" height="11.13" transform="translate(318.89 692.75) rotate(180)" style="fill:#c7c7c7"></rect><rect x="154.98" y="359.7" width="8.92" height="11.13" transform="translate(318.89 730.54) rotate(180)" style="fill:#c7c7c7"></rect><rect x="154.98" y="378.6" width="8.92" height="11.13" transform="translate(318.89 768.32) rotate(180)" style="fill:#c7c7c7"></rect><rect x="154.98" y="397.49" width="8.92" height="11.13" transform="translate(318.89 806.1) rotate(180)" style="fill:#c7c7c7"></rect><rect x="154.98" y="416.38" width="8.92" height="11.13" transform="translate(318.89 843.88) rotate(180)" style="fill:#c7c7c7"></rect><rect x="143.67" y="170.79" width="8.92" height="11.13" style="fill:#c7c7c7"></rect><rect x="282.23" y="244.15" width="55" height="208.59" transform="translate(619.47 696.89) rotate(180)" style="fill:#ebebeb"></rect><rect x="282.23" y="230.31" width="47.18" height="13.83" transform="translate(611.65 474.46) rotate(180)" style="fill:#c7c7c7"></rect><rect x="288.26" y="251.37" width="42.94" height="155.94" transform="translate(619.47 658.67) rotate(180)" style="fill:#dbdbdb"></rect><rect x="288.26" y="266.25" width="42.94" height="3.69" transform="translate(619.47 536.19) rotate(180)" style="fill:#fff"></rect><rect x="288.26" y="281.51" width="42.94" height="3.68" transform="translate(619.47 566.71) rotate(180)" style="fill:#fff"></rect><rect x="288.26" y="296.78" width="42.94" height="3.68" transform="translate(619.47 597.24) rotate(180)" style="fill:#fff"></rect><rect x="288.26" y="312.04" width="42.94" height="3.69" transform="translate(619.47 627.77) rotate(180)" style="fill:#fff"></rect><rect x="288.26" y="327.3" width="42.94" height="3.68" transform="translate(619.47 658.29) rotate(180)" style="fill:#fff"></rect><rect x="288.26" y="342.57" width="42.94" height="3.69" transform="translate(619.47 688.82) rotate(180)" style="fill:#fff"></rect><rect x="288.26" y="357.83" width="42.94" height="3.68" transform="translate(619.47 719.35) rotate(180)" style="fill:#fff"></rect><rect x="288.26" y="373.09" width="42.94" height="3.68" transform="translate(619.47 749.87) rotate(180)" style="fill:#fff"></rect><rect x="288.26" y="388.36" width="42.94" height="3.69" transform="translate(619.47 780.4) rotate(180)" style="fill:#fff"></rect><rect x="288.26" y="403.62" width="42.94" height="3.69" transform="translate(619.47 810.92) rotate(180)" style="fill:#fff"></rect><rect x="247.78" y="244.15" width="34.45" height="208.59" transform="translate(530.02 696.89) rotate(180)" style="fill:#dbdbdb"></rect><rect x="252.95" y="230.31" width="29.28" height="13.83" transform="translate(535.19 474.46) rotate(180)" style="fill:#a6a6a6"></rect><rect x="251" y="251.37" width="26.49" height="155.94" transform="translate(528.48 658.67) rotate(180)" style="fill:#c7c7c7"></rect><rect x="251" y="266.25" width="26.49" height="3.69" transform="translate(528.48 536.19) rotate(180)" style="fill:#fff"></rect><rect x="251" y="281.51" width="26.49" height="3.68" transform="translate(528.48 566.71) rotate(180)" style="fill:#fff"></rect><rect x="251" y="296.78" width="26.49" height="3.68" transform="translate(528.48 597.24) rotate(180)" style="fill:#fff"></rect><rect x="251" y="312.04" width="26.49" height="3.69" transform="translate(528.48 627.77) rotate(180)" style="fill:#fff"></rect><rect x="251" y="327.3" width="26.49" height="3.68" transform="translate(528.48 658.29) rotate(180)" style="fill:#fff"></rect><rect x="251" y="342.57" width="26.49" height="3.69" transform="translate(528.48 688.82) rotate(180)" style="fill:#fff"></rect><rect x="251" y="357.83" width="26.49" height="3.68" transform="translate(528.48 719.35) rotate(180)" style="fill:#fff"></rect><rect x="251" y="373.09" width="26.49" height="3.68" transform="translate(528.48 749.87) rotate(180)" style="fill:#fff"></rect><rect x="251" y="388.36" width="26.49" height="3.69" transform="translate(528.48 780.4) rotate(180)" style="fill:#fff"></rect><rect x="251" y="403.62" width="26.49" height="3.69" transform="translate(528.48 810.92) rotate(180)" style="fill:#fff"></rect><rect x="95.16" y="247.67" width="29.37" height="34.7" transform="translate(219.69 530.03) rotate(180)" style="fill:#dbdbdb"></rect><rect x="76.53" y="247.67" width="18.63" height="35.97" transform="translate(171.69 531.3) rotate(180)" style="fill:#c7c7c7"></rect><rect x="75.29" y="262.99" width="18.48" height="20.65" transform="translate(169.07 546.63) rotate(180)" style="fill:#dbdbdb"></rect><rect x="63.76" y="262.99" width="11.53" height="20.65" transform="translate(139.05 546.63) rotate(180)" style="fill:#c7c7c7"></rect><rect x="88.3" y="280.11" width="47.5" height="172.63" transform="translate(224.1 732.85) rotate(180)" style="fill:#ebebeb"></rect><rect x="115.43" y="287.53" width="14.94" height="6.1" transform="translate(245.8 581.17) rotate(180)" style="fill:#fff"></rect><rect x="96.32" y="287.53" width="14.94" height="6.1" transform="translate(207.59 581.17) rotate(180)" style="fill:#fff"></rect><rect x="115.43" y="297.89" width="14.94" height="6.1" transform="translate(245.8 601.89) rotate(180)" style="fill:#fff"></rect><rect x="96.32" y="297.89" width="14.94" height="6.1" transform="translate(207.59 601.89) rotate(180)" style="fill:#fff"></rect><rect x="115.43" y="308.25" width="14.94" height="6.1" transform="translate(245.8 622.61) rotate(180)" style="fill:#fff"></rect><rect x="96.32" y="308.25" width="14.94" height="6.1" transform="translate(207.59 622.61) rotate(180)" style="fill:#fff"></rect><rect x="115.43" y="318.62" width="14.94" height="6.1" transform="translate(245.8 643.34) rotate(180)" style="fill:#fff"></rect><rect x="96.32" y="318.62" width="14.94" height="6.1" transform="translate(207.59 643.34) rotate(180)" style="fill:#fff"></rect><rect x="115.43" y="328.98" width="14.94" height="6.1" transform="translate(245.8 664.06) rotate(180)" style="fill:#fff"></rect><rect x="96.32" y="328.98" width="14.94" height="6.1" transform="translate(207.59 664.06) rotate(180)" style="fill:#fff"></rect><rect x="115.43" y="339.34" width="14.94" height="6.1" transform="translate(245.8 684.78) rotate(180)" style="fill:#fff"></rect><rect x="96.32" y="339.34" width="14.94" height="6.1" transform="translate(207.59 684.78) rotate(180)" style="fill:#fff"></rect><rect x="115.43" y="349.7" width="14.94" height="6.1" transform="translate(245.8 705.51) rotate(180)" style="fill:#fff"></rect><rect x="96.32" y="349.7" width="14.94" height="6.1" transform="translate(207.59 705.51) rotate(180)" style="fill:#fff"></rect><rect x="115.43" y="360.06" width="14.94" height="6.1" transform="translate(245.8 726.23) rotate(180)" style="fill:#fff"></rect><rect x="96.32" y="360.06" width="14.94" height="6.1" transform="translate(207.59 726.23) rotate(180)" style="fill:#fff"></rect><rect x="115.43" y="370.43" width="14.94" height="6.1" transform="translate(245.8 746.95) rotate(180)" style="fill:#fff"></rect><rect x="96.32" y="370.43" width="14.94" height="6.1" transform="translate(207.59 746.95) rotate(180)" style="fill:#fff"></rect><rect x="115.43" y="380.79" width="14.94" height="6.1" transform="translate(245.8 767.68) rotate(180)" style="fill:#fff"></rect><rect x="96.32" y="380.79" width="14.94" height="6.1" transform="translate(207.59 767.68) rotate(180)" style="fill:#fff"></rect><rect x="115.43" y="391.15" width="14.94" height="6.1" transform="translate(245.8 788.4) rotate(180)" style="fill:#fff"></rect><rect x="96.32" y="391.15" width="14.94" height="6.1" transform="translate(207.59 788.4) rotate(180)" style="fill:#fff"></rect><rect x="115.43" y="401.51" width="14.94" height="6.1" transform="translate(245.8 809.12) rotate(180)" style="fill:#fff"></rect><rect x="96.32" y="401.51" width="14.94" height="6.1" transform="translate(207.59 809.12) rotate(180)" style="fill:#fff"></rect><rect x="115.43" y="411.87" width="14.94" height="6.1" transform="translate(245.8 829.85) rotate(180)" style="fill:#fff"></rect><rect x="96.32" y="411.87" width="14.94" height="6.1" transform="translate(207.59 829.85) rotate(180)" style="fill:#fff"></rect><rect x="115.43" y="422.23" width="14.94" height="6.1" transform="translate(245.8 850.57) rotate(180)" style="fill:#fff"></rect><rect x="96.32" y="422.23" width="14.94" height="6.1" transform="translate(207.59 850.57) rotate(180)" style="fill:#fff"></rect><rect x="49.81" y="280.11" width="38.49" height="172.63" transform="translate(138.11 732.85) rotate(180)" style="fill:#c7c7c7"></rect><rect x="53.67" y="422.23" width="12.26" height="6.1" style="fill:#ebebeb"></rect><rect x="69.36" y="422.23" width="12.26" height="6.1" style="fill:#ebebeb"></rect><rect x="53.67" y="411.87" width="12.26" height="6.1" style="fill:#ebebeb"></rect><rect x="69.36" y="411.87" width="12.26" height="6.1" style="fill:#ebebeb"></rect><rect x="53.67" y="401.51" width="12.26" height="6.1" style="fill:#ebebeb"></rect><rect x="69.36" y="401.51" width="12.26" height="6.1" style="fill:#ebebeb"></rect><rect x="53.67" y="391.15" width="12.26" height="6.1" style="fill:#ebebeb"></rect><rect x="69.36" y="391.15" width="12.26" height="6.1" style="fill:#ebebeb"></rect><rect x="53.67" y="380.79" width="12.26" height="6.1" style="fill:#ebebeb"></rect><rect x="69.36" y="380.79" width="12.26" height="6.1" style="fill:#ebebeb"></rect><rect x="53.67" y="370.43" width="12.26" height="6.1" style="fill:#ebebeb"></rect><rect x="69.36" y="370.43" width="12.26" height="6.1" style="fill:#ebebeb"></rect><rect x="53.67" y="360.06" width="12.26" height="6.1" style="fill:#ebebeb"></rect><rect x="69.36" y="360.06" width="12.26" height="6.1" style="fill:#ebebeb"></rect><rect x="53.67" y="349.7" width="12.26" height="6.1" style="fill:#ebebeb"></rect><rect x="69.36" y="349.7" width="12.26" height="6.1" style="fill:#ebebeb"></rect><rect x="53.67" y="339.34" width="12.26" height="6.1" style="fill:#ebebeb"></rect><rect x="69.36" y="339.34" width="12.26" height="6.1" style="fill:#ebebeb"></rect><rect x="53.67" y="328.98" width="12.26" height="6.1" style="fill:#ebebeb"></rect><rect x="69.36" y="328.98" width="12.26" height="6.1" style="fill:#ebebeb"></rect><rect x="53.67" y="318.62" width="12.26" height="6.1" style="fill:#ebebeb"></rect><rect x="69.36" y="318.62" width="12.26" height="6.1" style="fill:#ebebeb"></rect><rect x="53.67" y="308.25" width="12.26" height="6.1" style="fill:#ebebeb"></rect><rect x="69.36" y="308.25" width="12.26" height="6.1" style="fill:#ebebeb"></rect><rect x="53.67" y="297.89" width="12.26" height="6.1" style="fill:#ebebeb"></rect><rect x="69.36" y="297.89" width="12.26" height="6.1" style="fill:#ebebeb"></rect><rect x="53.67" y="287.53" width="12.26" height="6.1" style="fill:#ebebeb"></rect><rect x="69.36" y="287.53" width="12.26" height="6.1" style="fill:#ebebeb"></rect><rect x="349.87" y="340.25" width="56.03" height="112.49" transform="translate(755.76 792.99) rotate(180)" style="fill:#ebebeb"></rect><rect x="387.17" y="349.99" width="9.91" height="6.89" transform="translate(784.25 706.87) rotate(180)" style="fill:#dbdbdb"></rect><rect x="387.17" y="364.71" width="9.91" height="6.89" transform="translate(784.25 736.31) rotate(180)" style="fill:#dbdbdb"></rect><rect x="387.17" y="379.43" width="9.91" height="6.89" transform="translate(784.25 765.75) rotate(180)" style="fill:#dbdbdb"></rect><rect x="387.17" y="394.15" width="9.91" height="6.89" transform="translate(784.25 795.19) rotate(180)" style="fill:#dbdbdb"></rect><rect x="387.17" y="408.87" width="9.91" height="6.89" transform="translate(784.25 824.63) rotate(180)" style="fill:#dbdbdb"></rect><rect x="387.17" y="423.59" width="9.91" height="6.89" transform="translate(784.25 854.07) rotate(180)" style="fill:#dbdbdb"></rect><rect x="387.17" y="438.31" width="9.91" height="6.89" transform="translate(784.25 883.51) rotate(180)" style="fill:#dbdbdb"></rect><rect x="372.91" y="349.99" width="9.91" height="6.89" transform="translate(755.73 706.87) rotate(180)" style="fill:#dbdbdb"></rect><rect x="372.91" y="364.71" width="9.91" height="6.89" transform="translate(755.73 736.31) rotate(180)" style="fill:#dbdbdb"></rect><rect x="372.91" y="379.43" width="9.91" height="6.89" transform="translate(755.73 765.75) rotate(180)" style="fill:#dbdbdb"></rect><rect x="372.91" y="394.15" width="9.91" height="6.89" transform="translate(755.73 795.19) rotate(180)" style="fill:#dbdbdb"></rect><rect x="372.91" y="408.87" width="9.91" height="6.89" transform="translate(755.73 824.63) rotate(180)" style="fill:#dbdbdb"></rect><rect x="372.91" y="423.59" width="9.91" height="6.89" transform="translate(755.73 854.07) rotate(180)" style="fill:#dbdbdb"></rect><rect x="372.91" y="438.31" width="9.91" height="6.89" transform="translate(755.73 883.51) rotate(180)" style="fill:#dbdbdb"></rect><rect x="358.68" y="349.99" width="9.91" height="6.89" transform="translate(727.27 706.87) rotate(180)" style="fill:#dbdbdb"></rect><rect x="358.68" y="364.71" width="9.91" height="6.89" transform="translate(727.27 736.31) rotate(180)" style="fill:#dbdbdb"></rect><rect x="358.68" y="379.43" width="9.91" height="6.89" transform="translate(727.27 765.75) rotate(180)" style="fill:#dbdbdb"></rect><rect x="358.68" y="394.15" width="9.91" height="6.89" transform="translate(727.27 795.19) rotate(180)" style="fill:#dbdbdb"></rect><rect x="358.68" y="408.87" width="9.91" height="6.89" transform="translate(727.27 824.63) rotate(180)" style="fill:#dbdbdb"></rect><rect x="358.68" y="423.59" width="9.91" height="6.89" transform="translate(727.27 854.07) rotate(180)" style="fill:#dbdbdb"></rect><rect x="358.68" y="438.31" width="9.91" height="6.89" transform="translate(727.27 883.51) rotate(180)" style="fill:#dbdbdb"></rect><rect x="349.87" y="328.53" width="37.3" height="11.72" transform="translate(737.04 668.78) rotate(180)" style="fill:#dbdbdb"></rect><rect x="349.87" y="321.28" width="23.65" height="7.26" transform="translate(723.38 649.81) rotate(180)" style="fill:#ebebeb"></rect><rect x="310.56" y="340.25" width="39.31" height="112.49" transform="translate(660.43 792.99) rotate(180)" style="fill:#dbdbdb"></rect><rect x="314.58" y="437.21" width="8.07" height="6.89" style="fill:#c7c7c7"></rect><rect x="314.58" y="422.49" width="8.07" height="6.89" style="fill:#c7c7c7"></rect><rect x="314.58" y="407.77" width="8.07" height="6.89" style="fill:#c7c7c7"></rect><rect x="314.58" y="393.05" width="8.07" height="6.89" style="fill:#c7c7c7"></rect><rect x="314.58" y="378.33" width="8.07" height="6.89" style="fill:#c7c7c7"></rect><rect x="314.58" y="363.61" width="8.07" height="6.89" style="fill:#c7c7c7"></rect><rect x="314.58" y="348.89" width="8.07" height="6.89" style="fill:#c7c7c7"></rect><rect x="326.19" y="437.21" width="8.07" height="6.89" style="fill:#c7c7c7"></rect><rect x="326.19" y="422.49" width="8.07" height="6.89" style="fill:#c7c7c7"></rect><rect x="326.19" y="407.77" width="8.07" height="6.89" style="fill:#c7c7c7"></rect><rect x="326.19" y="393.05" width="8.07" height="6.89" style="fill:#c7c7c7"></rect><rect x="326.19" y="378.33" width="8.07" height="6.89" style="fill:#c7c7c7"></rect><rect x="326.19" y="363.61" width="8.07" height="6.89" style="fill:#c7c7c7"></rect><rect x="326.19" y="348.89" width="8.07" height="6.89" style="fill:#c7c7c7"></rect><rect x="337.77" y="437.21" width="8.07" height="6.89" style="fill:#c7c7c7"></rect><rect x="337.77" y="422.49" width="8.07" height="6.89" style="fill:#c7c7c7"></rect><rect x="337.77" y="407.77" width="8.07" height="6.89" style="fill:#c7c7c7"></rect><rect x="337.77" y="393.05" width="8.07" height="6.89" style="fill:#c7c7c7"></rect><rect x="337.77" y="378.33" width="8.07" height="6.89" style="fill:#c7c7c7"></rect><rect x="337.77" y="363.61" width="8.07" height="6.89" style="fill:#c7c7c7"></rect><rect x="337.77" y="348.89" width="8.07" height="6.89" style="fill:#c7c7c7"></rect><rect x="316.52" y="328.53" width="33.35" height="11.72" transform="translate(666.38 668.78) rotate(180)" style="fill:#c7c7c7"></rect><rect x="331.79" y="321.28" width="18.07" height="7.26" transform="translate(681.66 649.81) rotate(180)" style="fill:#dbdbdb"></rect></g><g id="freepik--Floor--inject-30"><polygon points="49.81 452.49 131.11 452.24 212.4 452.15 375 451.99 537.6 452.15 618.89 452.24 700.19 452.49 618.89 452.73 537.6 452.82 375 452.99 212.4 452.82 131.11 452.73 49.81 452.49" style="fill:#263238"></polygon></g><g id="freepik--Trees--inject-30"><path d="M83.7,369s22.6,50.19-14.29,50.23-13-51.91-13-51.91-8.54-3.75,1.33-31.77,14.31-28,18.42-28c5.2,0,10,12.11,6.52,30.73C82.64,338.2,95.65,361.42,83.7,369Z" style="fill:#37474f"></path><polygon points="66.17 452.49 69.65 376.83 73.28 452.48 66.17 452.49" style="fill:#263238"></polygon><polygon points="68.23 408.55 81.63 392.88 71.13 410.62 68.23 408.55" style="fill:#263238"></polygon><path d="M87.72,374.38s-10.53-4.17-18.86,10.37c-8.55,14.91,2.2,24.72,10.71,18.86,0,0,6.69,14,20.05,10.67s15.52-14,15.52-14,11.85.82,12.18-8S119,375.51,119,375.51s-.53-22-14.89-21.86S87.72,374.38,87.72,374.38Z" style="fill:#455a64"></path><polygon points="97.57 452.49 100.51 386.89 103.59 452.48 97.57 452.49" style="fill:#263238"></polygon><polygon points="99.64 411.54 90.4 393.15 101.16 408.67 99.64 411.54" style="fill:#263238"></polygon><path d="M694.36,369s22.6,50.19-14.29,50.23-13-51.91-13-51.91-8.54-3.75,1.33-31.77,14.31-28,18.42-28c5.2,0,10.05,12.11,6.53,30.73C693.31,338.2,706.31,361.42,694.36,369Z" style="fill:#37474f"></path><polygon points="676.84 452.49 680.31 376.83 683.95 452.48 676.84 452.49" style="fill:#263238"></polygon><polygon points="678.9 408.55 692.29 392.88 681.79 410.62 678.9 408.55" style="fill:#263238"></polygon><path d="M167.08,379.34s-19.7,44,12.62,44S191,377.82,191,377.82s7.48-3.3-1.23-27.83-12.58-24.52-16.18-24.52c-4.56,0-8.78,10.63-5.66,26.94C168,352.41,156.6,372.77,167.08,379.34Z" style="fill:#37474f"></path><polygon points="182.6 452.48 179.41 386.22 176.37 452.49 182.6 452.48" style="fill:#263238"></polygon><polygon points="180.71 414 168.95 400.3 178.18 415.82 180.71 414" style="fill:#263238"></polygon><path d="M627.92,374.38s-10.52-4.17-18.86,10.37c-8.54,14.91,2.2,24.72,10.71,18.86,0,0,6.7,14,20.06,10.67s15.51-14,15.51-14,11.86.82,12.18-8-8.36-16.69-8.36-16.69-.53-22-14.89-21.86S627.92,374.38,627.92,374.38Z" style="fill:#455a64"></path><polygon points="637.78 452.49 640.71 386.89 643.79 452.48 637.78 452.49" style="fill:#263238"></polygon><polygon points="639.81 411.47 630.61 393.15 641.63 408.64 639.81 411.47" style="fill:#263238"></polygon></g><g id="freepik--Device--inject-30"><path d="M700.19,67.68V329.75a12.11,12.11,0,0,1-12.11,12.11H284.39a12.12,12.12,0,0,1-12.12-12.11V67.68a12.12,12.12,0,0,1,12.12-12.12H688.08A12.12,12.12,0,0,1,700.19,67.68Z" style="fill:#263238"></path><rect x="292.4" y="72.8" width="387.67" height="251.83" style="fill:#fff"></rect><polygon points="493.31 263.82 568.81 263.81 567.44 252.85 598.49 252.85 595.22 233.56 492.8 233.59 493.31 263.82" style="fill:#ebebeb"></polygon><polygon points="594.86 72.8 596.76 81.33 655.87 81.28 653.01 72.8 594.86 72.8" style="fill:#ebebeb"></polygon><polygon points="629.84 102.75 625.09 85.44 597.67 85.46 601.52 102.76 629.84 102.75" style="fill:#ebebeb"></polygon><polygon points="641.07 153.98 648.61 181.91 680.07 181.9 680.07 136.5 641.07 153.98" style="fill:#dbdbdb"></polygon><polygon points="677.94 132.21 639.36 149.63 627.87 106.89 669.21 106.86 677.94 132.21" style="fill:#ebebeb"></polygon><path d="M292.4,178.73v25.81l7.14,9.84L384.45,198l3-20-27.66-34-42.89,8.92,0,.07C314.27,162.51,305.48,171.38,292.4,178.73Z" style="fill:#ebebeb"></path><polygon points="324.81 324.62 388.81 324.62 397.1 256.32 338.84 256.28 324.81 324.62" style="fill:#dbdbdb"></polygon><polygon points="292.4 225.08 292.4 286.71 314.05 286.71 320.46 258.9 292.4 225.08" style="fill:#ebebeb"></polygon><polygon points="448.16 85.57 446.23 116.09 477.58 116.07 477.63 85.55 448.16 85.57" style="fill:#ebebeb"></polygon><polygon points="381.06 132.21 435.43 120.86 439.38 72.8 391.52 72.8 381.06 132.21" style="fill:#ebebeb"></polygon><polygon points="470.83 81.42 477.62 81.41 477.63 72.8 471.01 72.8 470.83 81.42" style="fill:#ebebeb"></polygon><polygon points="448.43 81.44 464.48 81.42 464.76 72.8 448.97 72.8 448.43 81.44" style="fill:#ebebeb"></polygon><polygon points="292.4 295.31 292.4 324.62 305.29 324.62 312.05 295.31 292.4 295.31" style="fill:#ebebeb"></polygon><polygon points="476.69 256.25 410.04 256.37 405.55 300.07 476.39 300.06 476.69 256.25" style="fill:#ebebeb"></polygon><polygon points="403.03 324.62 436.69 324.62 437.84 305.14 405.03 305.14 403.03 324.62" style="fill:#ebebeb"></polygon><polygon points="476.27 318.21 476.36 305.13 446.57 305.14 445.95 318.21 476.27 318.21" style="fill:#ebebeb"></polygon><polygon points="445.65 324.62 476.23 324.62 476.25 321.46 445.81 321.46 445.65 324.62" style="fill:#ebebeb"></polygon><polygon points="383.28 205.63 377.03 246.62 329.08 246.63 306.93 220.43 383.28 205.63" style="fill:#dbdbdb"></polygon><path d="M292.4,128.78V167.9c6.21-4.54,10.43-9.62,12-15C307.24,143.54,302.46,135.05,292.4,128.78Z" style="fill:#ebebeb"></path><polygon points="658.67 72.8 662.15 82.83 680.07 88.7 680.07 72.8 658.67 72.8" style="fill:#ebebeb"></polygon><polygon points="633.07 85.44 638.08 102.74 680.07 102.71 680.07 92.77 658.49 85.42 633.07 85.44" style="fill:#ebebeb"></polygon><polygon points="677.72 106.86 680.07 113.39 680.07 106.86 677.72 106.86" style="fill:#ebebeb"></polygon><polygon points="494.01 305.02 494.35 324.62 647.33 324.62 680.07 311.49 680.07 305 494.01 305.02" style="fill:#ebebeb"></polygon><polygon points="573.3 299.87 569.38 268.37 493.39 268.38 493.92 299.88 573.3 299.87" style="fill:#ebebeb"></polygon><polygon points="623.58 153.34 548.05 153.38 556.4 227.47 641.38 227.44 623.58 153.34" style="fill:#ebebeb"></polygon><polygon points="545.04 211.76 492.43 211.78 492.69 227.38 546.57 227.36 545.04 211.76" style="fill:#ebebeb"></polygon><polygon points="647.49 252.84 642.85 233.55 607.02 233.56 610.63 252.84 647.49 252.84" style="fill:#ebebeb"></polygon><polygon points="585.6 258.07 590.31 289.56 619.12 289.55 621.07 299.87 680.07 299.86 680.07 262.49 666.6 258.05 585.6 258.07" style="fill:#dbdbdb"></polygon><polygon points="658.5 215.9 666.44 248.11 680.07 252.95 680.07 215.89 658.5 215.9" style="fill:#ebebeb"></polygon><polygon points="649.83 186.47 656.85 212.51 680.07 212.5 680.07 186.46 649.83 186.47" style="fill:#ebebeb"></polygon><polygon points="477.03 205.6 395.3 205.62 389.34 250.2 476.73 250.18 477.03 205.6" style="fill:#ebebeb"></polygon><polygon points="491.43 153.4 539.32 153.38 544.63 207.58 492.35 207.6 491.43 153.4" style="fill:#dbdbdb"></polygon><polygon points="490.86 123.28 616.44 123.65 622.49 148.81 491.36 148.87 490.86 123.28" style="fill:#ebebeb"></polygon><polygon points="398.94 178.4 477.21 178.36 477.07 200.23 396.02 200.26 398.94 178.4" style="fill:#ebebeb"></polygon><polygon points="399.68 172.9 370.72 141.27 426.34 129.43 422.13 172.89 399.68 172.9" style="fill:#ebebeb"></polygon><polygon points="431.22 172.89 477.25 172.87 477.6 120.77 462.89 120.78 434.97 127.24 431.22 172.89" style="fill:#ebebeb"></polygon><polygon points="489.52 72.8 490.45 116.06 615.8 115.99 613.59 106.9 592.43 106.92 585.49 72.8 489.52 72.8" style="fill:#ebebeb"></polygon><polygon points="330.76 102.94 375.91 102.92 381.79 72.8 339.17 72.8 330.76 102.94" style="fill:#ebebeb"></polygon><polygon points="318.52 146.9 369.57 135.44 374.91 108.06 329.33 108.09 318.52 146.9" style="fill:#ebebeb"></polygon><path d="M292.4,72.8v47.25c9.31,3.84,16.36,9,20.49,14.89L331.17,72.8Z" style="fill:#ebebeb"></path><polygon points="489.57 282.56 481.57 282.56 481.57 115.74 618.82 115.74 615.78 101.52 680.07 101.52 680.07 109.52 625.67 109.52 628.71 123.74 489.57 123.74 489.57 282.56" style="fill:#00B4D8"></polygon><polygon points="503.2 291.24 485.57 283.94 467.94 291.24 485.57 265.08 503.2 291.24" style="fill:#37474f"></polygon><rect x="292.4" y="72.8" width="106.08" height="31.07" style="fill:#455a64"></rect><path d="M342,94.51a1.19,1.19,0,0,1-1.2,1.21H333a1.2,1.2,0,0,1-.9-.4,1.21,1.21,0,0,1,.06-1.71l6.5-5.88a2.78,2.78,0,0,0,.92-2.11,2.86,2.86,0,0,0-.72-1.91,2.82,2.82,0,0,0-2.11-.92,2.86,2.86,0,0,0-1.91.73l-.68.61a1.19,1.19,0,0,1-1.71-.09,1.21,1.21,0,0,1,.09-1.71l.68-.61a5.17,5.17,0,0,1,3.53-1.36,5.26,5.26,0,0,1,3.9,1.73A5.14,5.14,0,0,1,342,85.62a5.28,5.28,0,0,1-1.73,3.91l-4.15,3.75h4.68A1.2,1.2,0,0,1,342,94.51Z" style="fill:#fff"></path><path d="M345,88a9.37,9.37,0,0,1,1.49-5.25,4.62,4.62,0,0,1,8.14,0,10.09,10.09,0,0,1,0,10.49,4.61,4.61,0,0,1-8.14,0A9.39,9.39,0,0,1,345,88Zm8.66,0a7.33,7.33,0,0,0-1.05-3.91,2.56,2.56,0,0,0-2-1.34,2.66,2.66,0,0,0-2.09,1.34,7.33,7.33,0,0,0-1,3.91,7.24,7.24,0,0,0,1,3.88,2.69,2.69,0,0,0,2.09,1.36,2.59,2.59,0,0,0,2-1.36A7.24,7.24,0,0,0,353.7,88Z" style="fill:#fff"></path><path d="M360.62,88a9.37,9.37,0,0,1,1.49-5.25,4.62,4.62,0,0,1,8.14,0,10.09,10.09,0,0,1,0,10.49,4.61,4.61,0,0,1-8.14,0A9.39,9.39,0,0,1,360.62,88Zm8.66,0a7.33,7.33,0,0,0-1-3.91,2.56,2.56,0,0,0-2-1.34,2.66,2.66,0,0,0-2.09,1.34A7.33,7.33,0,0,0,363.05,88a7.24,7.24,0,0,0,1.05,3.88,2.69,2.69,0,0,0,2.09,1.36,2.59,2.59,0,0,0,2-1.36A7.24,7.24,0,0,0,369.28,88Z" style="fill:#fff"></path><path d="M382.32,88.82v6.31a.6.6,0,0,1-.6.59.58.58,0,0,1-.58-.59V90.62l-1.54,2.14a.6.6,0,0,1-.49.25h0a.61.61,0,0,1-.49-.25l-1.53-2.14v4.51a.6.6,0,0,1-1.19,0V88.82a.59.59,0,0,1,.59-.59h0a.55.55,0,0,1,.47.24l2.13,3,2.13-3a.58.58,0,0,1,.48-.24h0A.6.6,0,0,1,382.32,88.82Z" style="fill:#fff"></path><path d="M322.22,97.05h-4V89.11a3.42,3.42,0,0,0-3.42-3.42h-2.72v-4h2.72a7.43,7.43,0,0,1,7.42,7.42Z" style="fill:#fff"></path><polygon points="312.9 89.77 312.9 77.62 306.83 83.69 312.9 89.77" style="fill:#fff"></polygon><rect x="292.4" y="293.7" width="387.67" height="30.92" style="fill:#fff"></rect><rect x="292.4" y="293.7" width="30.92" height="30.92" style="fill:#37474f"></rect><rect x="643.04" y="276.14" width="30.92" height="30.92" style="fill:#37474f"></rect><path d="M335.8,301.55h-1.38l-.28.74a.33.33,0,0,1-.3.2l-.11,0a.32.32,0,0,1-.18-.41l1.25-3.35a.32.32,0,0,1,.31-.2.3.3,0,0,1,.3.2l1.26,3.35a.34.34,0,0,1-.19.41l-.11,0a.31.31,0,0,1-.29-.2Zm-.23-.63-.46-1.22-.46,1.22Z" style="fill:#37474f"></path><path d="M340.08,302a.31.31,0,0,1-.19.4l-.13,0h0a.43.43,0,0,1-.22-.06.7.7,0,0,1-.18-.2,1.55,1.55,0,0,1-.12-.69.43.43,0,0,0-.07-.24.55.55,0,0,0-.17-.17,1,1,0,0,0-.32-.13H338v1.23a.32.32,0,1,1-.63,0v-3.36a.31.31,0,0,1,.31-.31h1a1.22,1.22,0,0,1,.78,2.16,1,1,0,0,1,.2.21,1.07,1.07,0,0,1,.18.61,1.24,1.24,0,0,0,0,.34A.3.3,0,0,1,340.08,302Zm-.79-2.29a.58.58,0,0,0-.59-.59H338v1.18h.7A.59.59,0,0,0,339.29,299.72Z" style="fill:#37474f"></path><path d="M343.65,302a.33.33,0,0,1-.2.4l-.13,0h0a.44.44,0,0,1-.23-.06.7.7,0,0,1-.18-.2,1.55,1.55,0,0,1-.12-.69.43.43,0,0,0-.07-.24.55.55,0,0,0-.17-.17.92.92,0,0,0-.32-.13h-.67v1.23a.32.32,0,1,1-.63,0v-3.36a.31.31,0,0,1,.31-.31h1a1.22,1.22,0,0,1,.78,2.16,1,1,0,0,1,.2.21,1.07,1.07,0,0,1,.18.61,1.87,1.87,0,0,0,0,.34A.34.34,0,0,1,343.65,302Zm-.8-2.29a.58.58,0,0,0-.59-.59h-.7v1.18h.7A.59.59,0,0,0,342.85,299.72Z" style="fill:#37474f"></path><path d="M344.61,298.81a.31.31,0,0,1,.31-.31.32.32,0,0,1,.32.31v3.36a.32.32,0,0,1-.32.32.31.31,0,0,1-.31-.32Z" style="fill:#37474f"></path><path d="M347.61,302.43l0,0v0l0,0h0l0,0L346.1,299a.3.3,0,0,1,.17-.4.31.31,0,0,1,.41.16l1.11,2.64,1.11-2.64a.31.31,0,0,1,.58.24l-1.41,3.33,0,0s0,0,0,0l0,0v0l0,0h0a.09.09,0,0,1,0,0h-.25l-.05,0Z" style="fill:#37474f"></path><path d="M351.84,301.55h-1.38l-.28.74a.32.32,0,0,1-.29.2l-.11,0a.32.32,0,0,1-.19-.41l1.26-3.35a.33.33,0,0,1,.6,0l1.26,3.35a.32.32,0,0,1-.19.41l-.11,0a.32.32,0,0,1-.29-.2Zm-.23-.63-.46-1.22-.46,1.22Z" style="fill:#37474f"></path><path d="M353.49,302.17v-3.36a.32.32,0,0,1,.63,0v3h1.55a.32.32,0,0,1,0,.64H353.8A.32.32,0,0,1,353.49,302.17Z" style="fill:#37474f"></path><path d="M337.38,307.93V317a.86.86,0,0,1-.86.85.84.84,0,0,1-.85-.85v-7.58l-.61.35a.75.75,0,0,1-.44.13.86.86,0,0,1-.44-1.59l1.89-1.13s.05,0,.07,0,0,0,.07,0l.1,0h.06a.18.18,0,0,1,.1,0h.17a.1.1,0,0,0,.07,0,.14.14,0,0,1,.09,0h.06c.05,0,.06.05.09.05l.06.05.07,0,.06.06s0,0,0,.06l.07.07v0s0,0,0,0,0,0,0,.08,0,.06,0,.08a.56.56,0,0,0,0,.07c0,.05,0,.08,0,.11Z" style="fill:#37474f"></path><path d="M345,311.34a3.75,3.75,0,0,1,1.13,2.71,3.85,3.85,0,0,1-1.13,2.7,3.79,3.79,0,0,1-2.7,1.12h0a3.75,3.75,0,0,1-2.68-1.12.87.87,0,0,1,1.23-1.24,2.06,2.06,0,0,0,2.95,0,2.09,2.09,0,0,0,.61-1.46,2,2,0,0,0-.61-1.48,2,2,0,0,0-1.47-.6,2,2,0,0,0-1.48.6.87.87,0,0,1-1.23,0c-.06-.06-.11-.14-.17-.2s0-.05,0-.05a.08.08,0,0,0,0-.07c0-.05,0-.08,0-.11s0,0,0,0a1.22,1.22,0,0,1,0-.27l.47-4a.88.88,0,0,1,.38-.61s0,0,.06,0l.05,0a.87.87,0,0,1,.4-.09h4.55a.87.87,0,1,1,0,1.74h-3.8l-.18,1.53a4.06,4.06,0,0,1,1-.14A3.76,3.76,0,0,1,345,311.34Z" style="fill:#37474f"></path><path d="M350.15,309.55a1.16,1.16,0,0,1,1.15,1.15,1.15,1.15,0,1,1-1.15-1.15Zm0,6.13a1.17,1.17,0,0,1,1.15,1.16,1.15,1.15,0,1,1-1.15-1.16Z" style="fill:#37474f"></path><path d="M358.21,311.32a3.76,3.76,0,0,1,1.13,2.7,3.8,3.8,0,0,1-1.13,2.71,3.8,3.8,0,0,1-5.41,0A.87.87,0,1,1,354,315.5a2.06,2.06,0,0,0,1.47.6,2.12,2.12,0,0,0,1.48-.6,2.09,2.09,0,0,0,.61-1.48,2,2,0,0,0-.61-1.47,2.07,2.07,0,0,0-1.47-.61.81.81,0,0,1-.63-.28s0,0,0,0a.86.86,0,0,1,0-1.23l1.57-1.6h-2.5a.86.86,0,0,1-.86-.88.85.85,0,0,1,.86-.86h4.55a.86.86,0,0,1,.88.86,1,1,0,0,1-.11.42,1.06,1.06,0,0,1-.16.21l-1.94,2A3.71,3.71,0,0,1,358.21,311.32Z" style="fill:#37474f"></path><path d="M370,315a.85.85,0,0,1-.86.85H369V317a.85.85,0,1,1-1.69,0v-1.17h-4.86a.74.74,0,0,1-.52-.18.83.83,0,0,1-.14-1.19l5.7-7.09s0,0,0,0l.05-.06a.18.18,0,0,0,.08-.05l.06-.05s0,0,.09,0,0,0,.06,0,.05,0,.09,0a.1.1,0,0,0,.07,0h.26a.11.11,0,0,0,.08,0l.09,0h.06l.08.06s0,0,.07.05a0,0,0,0,1,0,0s.05,0,.05,0l.06.06,0,.06a.32.32,0,0,1,.06.08l0,.06a.92.92,0,0,0,0,.09s0,.05,0,.06a.15.15,0,0,1,0,.1s0,0,0,.07v6.28h.16A.86.86,0,0,1,370,315Zm-2.71-4.65-3.07,3.81h3.07Z" style="fill:#37474f"></path><path d="M373.55,315.83h-.93v1.63a.42.42,0,0,1-.83,0V313a.41.41,0,0,1,.41-.42h1.35a1.61,1.61,0,1,1,0,3.22Zm-.93-.84h.93a.77.77,0,1,0,0-1.54h-.93Z" style="fill:#37474f"></path><path d="M380.7,313v4.43a.43.43,0,0,1-.43.41.41.41,0,0,1-.41-.41V314.3l-1.08,1.5a.41.41,0,0,1-.34.17h0a.43.43,0,0,1-.35-.17L377,314.3v3.16a.42.42,0,0,1-.84,0V313a.42.42,0,0,1,.42-.42h0a.42.42,0,0,1,.33.17l1.49,2.08,1.5-2.08a.41.41,0,0,1,.34-.17h0A.44.44,0,0,1,380.7,313Z" style="fill:#37474f"></path><path d="M620.39,301.5a.29.29,0,0,1,.41-.05,1.82,1.82,0,0,0,1.09.44,1.17,1.17,0,0,0,.71-.21.5.5,0,0,0,.25-.41.37.37,0,0,0-.05-.18.68.68,0,0,0-.17-.17,2.5,2.5,0,0,0-.78-.27h0a3.27,3.27,0,0,1-.73-.22,1.2,1.2,0,0,1-.53-.44,1,1,0,0,1-.13-.47,1,1,0,0,1,.46-.83,1.68,1.68,0,0,1,1-.3,2.2,2.2,0,0,1,1.24.45.3.3,0,0,1,.08.41.29.29,0,0,1-.4.08,1.67,1.67,0,0,0-.92-.36,1.13,1.13,0,0,0-.64.19.45.45,0,0,0-.21.36.27.27,0,0,0,0,.16.7.7,0,0,0,.15.15,2.06,2.06,0,0,0,.71.25h0a3,3,0,0,1,.79.24,1.32,1.32,0,0,1,.57.47,1,1,0,0,1,.13.48,1.12,1.12,0,0,1-.48.89,1.82,1.82,0,0,1-1.06.32,2.49,2.49,0,0,1-1.46-.57A.3.3,0,0,1,620.39,301.5Z" style="fill:#37474f"></path><path d="M625.65,300.94H625v1.23a.32.32,0,0,1-.64,0v-3.36a.32.32,0,0,1,.32-.31h1a1.22,1.22,0,0,1,0,2.44Zm-.7-.63h.7a.6.6,0,0,0,.59-.59.59.59,0,0,0-.59-.59H625Z" style="fill:#37474f"></path><path d="M627.64,302.17v-3.36a.31.31,0,0,1,.31-.31h1.86a.32.32,0,0,1,0,.63h-1.54v1h1.32a.32.32,0,1,1,0,.64h-1.32v1h1.54a.32.32,0,0,1,0,.64H628A.31.31,0,0,1,627.64,302.17Z" style="fill:#37474f"></path><path d="M631,302.17v-3.36a.31.31,0,0,1,.32-.31h1.86a.32.32,0,0,1,0,.63h-1.54v1H633a.32.32,0,0,1,0,.64h-1.32v1h1.54a.32.32,0,0,1,0,.64h-1.86A.32.32,0,0,1,631,302.17Z" style="fill:#37474f"></path><path d="M634.39,302.17v-3.36a.31.31,0,0,1,.31-.31h.68a2,2,0,0,1,0,4h-.68A.32.32,0,0,1,634.39,302.17Zm.63-.32h.36a1.36,1.36,0,0,0,0-2.72H635Z" style="fill:#37474f"></path><path d="M626.77,311.32a3.79,3.79,0,0,1,1.12,2.7,3.83,3.83,0,0,1-6.54,2.71.87.87,0,0,1,1.24-1.23,2,2,0,0,0,1.46.6,2.1,2.1,0,0,0,1.48-.6,2.06,2.06,0,0,0,.62-1.48,2,2,0,0,0-.62-1.47,2.05,2.05,0,0,0-1.46-.61.78.78,0,0,1-.63-.28s0,0,0,0a.88.88,0,0,1,0-1.23l1.57-1.6h-2.49a.87.87,0,0,1-.87-.88.86.86,0,0,1,.87-.86H627a.86.86,0,0,1,.88.86.88.88,0,0,1-.11.42,1,1,0,0,1-.15.21l-1.94,2A3.71,3.71,0,0,1,626.77,311.32Z" style="fill:#37474f"></path><path d="M638.58,315a.85.85,0,0,1-.87.85h-.15V317a.85.85,0,1,1-1.7,0v-1.17H631a.76.76,0,0,1-.53-.18.84.84,0,0,1-.14-1.19l5.71-7.09s0,0,0,0,0,0,0-.06.07,0,.08-.05a.15.15,0,0,0,.06-.05.24.24,0,0,1,.09,0,.08.08,0,0,1,.07,0s0,0,.09,0,0,0,.06,0h.26a.12.12,0,0,0,.08,0l.09,0h.06l.08.06.08.05s0,0,0,0,0,0,0,0,.05,0,.06.06,0,0,0,.06l.06.08a.11.11,0,0,0,0,.06.19.19,0,0,1,0,.09s0,.05,0,.06a.28.28,0,0,1,0,.1s0,0,0,.07v6.28h.15A.86.86,0,0,1,638.58,315Zm-2.72-4.65-3.07,3.81h3.07Z" style="fill:#37474f"></path><path d="M644.87,313v4.43a.43.43,0,0,1-.42.41.41.41,0,0,1-.42-.41V314.3L643,315.8a.41.41,0,0,1-.34.17h0a.43.43,0,0,1-.35-.17l-1.07-1.5v3.16a.42.42,0,0,1-.84,0V313a.42.42,0,0,1,.42-.42h0a.42.42,0,0,1,.33.17l1.49,2.08,1.5-2.08a.41.41,0,0,1,.34-.17h0A.44.44,0,0,1,644.87,313Z" style="fill:#37474f"></path><path d="M646.69,317.46V313a.42.42,0,1,1,.83,0v1.8h2V313a.42.42,0,1,1,.83,0v4.43a.42.42,0,0,1-.83,0v-1.8h-2v1.8a.42.42,0,0,1-.83,0Z" style="fill:#37474f"></path><path d="M651.49,285.19v-3.36a.31.31,0,0,1,.31-.31.31.31,0,0,1,.32.31v3h1.54a.32.32,0,1,1,0,.63H651.8A.31.31,0,0,1,651.49,285.19Z" style="fill:#fff"></path><path d="M654.76,281.83a.31.31,0,0,1,.32-.31.32.32,0,0,1,.32.31v3.36a.31.31,0,0,1-.32.31.31.31,0,0,1-.32-.31Z" style="fill:#fff"></path><path d="M659.89,281.83v3.36a.32.32,0,0,1-.32.31.31.31,0,0,1-.31-.31v-2.4l-.82,1.14a.32.32,0,0,1-.26.13h0a.3.3,0,0,1-.26-.13l-.82-1.14v2.4a.32.32,0,0,1-.63,0v-3.36a.31.31,0,0,1,.31-.31h0a.3.3,0,0,1,.25.13l1.13,1.57,1.14-1.57a.29.29,0,0,1,.25-.13h0A.32.32,0,0,1,659.89,281.83Z" style="fill:#fff"></path><path d="M661.31,281.83a.31.31,0,0,1,.31-.31.32.32,0,0,1,.32.31v3.36a.31.31,0,0,1-.32.31.3.3,0,0,1-.31-.31Z" style="fill:#fff"></path><path d="M665.44,282.15h-.9v3a.32.32,0,0,1-.63,0v-3H663a.32.32,0,0,1-.31-.32.31.31,0,0,1,.31-.31h2.43a.32.32,0,0,1,.32.31A.33.33,0,0,1,665.44,282.15Z" style="fill:#fff"></path><path d="M657.16,298a.85.85,0,0,1-.86.85h-.16V300a.85.85,0,1,1-1.69,0v-1.17h-4.86a.77.77,0,0,1-.52-.18.82.82,0,0,1-.14-1.19l5.7-7.09s0,0,0,0l.05-.06.07-.05.07,0s0,0,.09,0a.05.05,0,0,1,.06,0s0,0,.09,0h.4s.07,0,.1,0h.06l.08.06.07,0h0s0,0,0,0l.07.06,0,.06s0,0,.06.08l0,.06a.39.39,0,0,1,0,.09v.06a.13.13,0,0,1,0,.09s0,.05,0,.08v6.28h.16A.86.86,0,0,1,657.16,298Zm-2.71-4.65-3.07,3.81h3.07Z" style="fill:#fff"></path><path d="M659.15,295.5a6.57,6.57,0,0,1,1.05-3.69,3.45,3.45,0,0,1,2.86-1.71,3.5,3.5,0,0,1,2.86,1.71,7.11,7.11,0,0,1,0,7.37,3.54,3.54,0,0,1-2.86,1.71,3.5,3.5,0,0,1-2.86-1.71A6.58,6.58,0,0,1,659.15,295.5Zm6.09,0a5.14,5.14,0,0,0-.74-2.75,1.81,1.81,0,0,0-1.44-.94,1.86,1.86,0,0,0-1.46.94,5.14,5.14,0,0,0-.74,2.75,5,5,0,0,0,.74,2.72,1.87,1.87,0,0,0,1.46,1,1.81,1.81,0,0,0,1.44-1A5,5,0,0,0,665.24,295.5Z" style="fill:#fff"></path><path d="M309.14,316.58h-8v-4h8a3.42,3.42,0,1,0,0-6.83h-2.71v-4h2.71a7.42,7.42,0,1,1,0,14.83Z" style="fill:#fff"></path><polygon points="307.24 309.82 307.24 297.67 301.17 303.75 307.24 309.82" style="fill:#fff"></polygon><rect x="657.59" y="176.85" width="16.37" height="16.37" style="fill:#37474f"></rect><rect x="664.97" y="180.35" width="1.61" height="9.38" style="fill:#fff"></rect><rect x="664.97" y="180.35" width="1.61" height="9.38" transform="translate(850.81 -480.74) rotate(90)" style="fill:#fff"></rect><rect x="657.59" y="204.2" width="16.37" height="16.37" style="fill:#37474f"></rect><rect x="664.97" y="207.69" width="1.61" height="9.38" transform="translate(878.16 -453.39) rotate(90)" style="fill:#fff"></rect></g><g id="freepik--Lines--inject-30"><path d="M69.05,429.38c3.92-.2,7.83-.3,11.75-.38s7.83-.08,11.74-.12,7.83,0,11.75.12l5.87.14c2,.08,3.92.13,5.87.24-2,.12-3.91.16-5.87.25l-5.87.14c-3.92.08-7.83.07-11.75.11s-7.83,0-11.74-.11S73,429.59,69.05,429.38Z" style="fill:#263238"></path><path d="M70.82,416.38c3-.21,6-.3,9-.38s6-.11,9-.12,6,0,9,.11l4.49.14c1.49.09,3,.14,4.49.25-1.5.11-3,.16-4.49.24l-4.49.14c-3,.09-6,.11-9,.12s-6,0-9-.12S73.82,416.59,70.82,416.38Z" style="fill:#263238"></path><path d="M51.37,422.93c4.18-.21,8.35-.31,12.53-.39s8.35-.07,12.53-.11,8.35,0,12.52.11l6.26.14c2.09.08,4.18.13,6.27.25-2.09.11-4.18.16-6.27.24l-6.26.14c-4.17.08-8.35.08-12.52.11s-8.35,0-12.53-.11S55.55,423.13,51.37,422.93Z" style="fill:#263238"></path><path d="M389.22,444.1c3.92-.2,7.83-.3,11.75-.38s7.83-.08,11.74-.12,7.83,0,11.75.12l5.87.14c2,.08,3.92.13,5.87.24-1.95.12-3.91.16-5.87.25l-5.87.14c-3.92.08-7.83.07-11.75.11s-7.83,0-11.74-.11S393.14,444.31,389.22,444.1Z" style="fill:#263238"></path><path d="M374.31,437.21c4.18-.21,8.36-.3,12.53-.38s8.35-.08,12.53-.12,8.35,0,12.52.12l6.26.14c2.09.08,4.18.13,6.27.24-2.09.11-4.18.16-6.27.25l-6.26.14c-4.17.07-8.35.07-12.52.11s-8.35,0-12.53-.12S378.49,437.42,374.31,437.21Z" style="fill:#263238"></path></g><g id="freepik--Car--inject-30"><path d="M103.52,409.21h99.36S192,362.79,153.2,362.79,105.22,398.84,103.52,409.21Z" style="fill:#00B4D8"></path><path d="M103.52,409.21h99.36S192,362.79,153.2,362.79,105.22,398.84,103.52,409.21Z" style="opacity:0.2"></path><path d="M391.89,414.22h99.36s-10.88-46.42-49.68-46.42S393.59,403.85,391.89,414.22Z" style="fill:#00B4D8"></path><path d="M391.89,414.22h99.36s-10.88-46.42-49.68-46.42S393.59,403.85,391.89,414.22Z" style="opacity:0.2"></path><path d="M80.8,324.53c-2.13,3.39-5.87,40.67-6.09,42s-3.32,7-3.37,8.1-.82,17.89-.38,19a46.08,46.08,0,0,0,3.42,5.71c.55.65,14.63,12.78,16.2,12.94s16.15.27,16.42,0,2-45.12,46.15-45.12,43.71,47.62,44.52,47.78,198.64,4.68,198.64,4.68c0-7.29.57-50.67,43.92-50.67,28.24,0,42.51,23.28,43,40.45.2,7.14-1,15-.6,15,1.31,0,5.76.33,6.53,0s10-6.41,10.76-6.63,6.09-.33,7.39-.65,10.44-8.32,10.6-8.65.44-3.48.49-3.75,9.3-11.58,9.73-12.83.6-11.58.6-12.61S511.93,351,508,348s-31.8-12.72-40-14.19-53-8.15-54.63-9.3-78.17-45-91.49-48.27c-10.76-2.61-135.36,1-141.88,1.31s-24.57,3.58-26.31,3.58-21.75-.1-22.94.44,0,5.33,1.52,6.2S84.49,318.66,80.8,324.53Z" style="fill:#00B4D8"></path><path d="M83.65,321.71c.47.43,8.26.62,9.08.3s49.88-33,49.92-33.92c0-.48-9.2-.36-10.32-.3S82.75,320.89,83.65,321.71Z" style="fill:#455a64"></path><path d="M138.3,321.19c2.13,6.28,259.86,18,261.27,15,1.05-2.26-22-20.77-32.78-26.8S325.2,285.88,310,284.09,264.1,282.45,237.3,283c-26.58.49-57.89,1.14-69,5.87C158.59,293,136.61,316.2,138.3,321.19Z" style="fill:#263238"></path><path d="M145.49,317.52c.65,2.36,57.56,8.48,124.27,11.58s99.64,3.59,100.45,3.26-2.28-18.1-3.42-19.57-48.93-25.93-56.43-26.58-48-.73-68.49-.41-63.11,2.78-70.37,5.71C165.12,294.09,144.83,315.16,145.49,317.52Z" style="fill:#455a64"></path><g style="opacity:0.1"><path d="M233.78,286l-38.2,38.21c-6.82-.6-13.12-1.2-18.79-1.78L212.22,287C219.77,286.55,227.3,286.21,233.78,286Z" style="fill:#fff"></path><path d="M370.09,328.59l-3.86,3.86c-3.87,0-10.58-.13-20.17-.39l19.88-19.87a4.83,4.83,0,0,1,.85.6C367.6,313.84,369.42,323.21,370.09,328.59Z" style="fill:#fff"></path><path d="M262.28,285.64l-40.62,40.63c-3.26-.23-6.46-.46-9.58-.71L252,285.69C255.23,285.66,258.71,285.64,262.28,285.64Z" style="fill:#fff"></path><path d="M349.49,303.44l-27.84,27.83-9.9-.37L342.63,300C345,301.18,347.29,302.33,349.49,303.44Z" style="fill:#fff"></path><path d="M205.38,287.43,171,321.81h0l-2.62-.3,33.87-33.87Z" style="fill:#fff"></path><path d="M355.41,306.47l-25.09,25.1-2.82-.09,26-26Z" style="fill:#fff"></path><path d="M319.36,289.23l-40.3,40.29-2.8-.11,41-41C317.93,288.64,318.63,288.93,319.36,289.23Z" style="fill:#fff"></path><path d="M178.11,290.05,149.35,318.8c-1-.19-1.76-.38-2.36-.56l27.58-27.57C175.59,290.46,176.77,290.25,178.11,290.05Z" style="fill:#fff"></path></g><path d="M181.19,289.61c.27,0,.39.35.16,1-1.34,3.7-11.77,24.65-14.38,29.54a2.24,2.24,0,0,1-1.47,1l18.38,2a1.51,1.51,0,0,1-.91-1.67c.19-1.16,7-25.79,9.15-31.84a2.55,2.55,0,0,1,1.23-1.29c.36,0-3.14.06-6.46.4C184,289,181.19,289.61,181.19,289.61Z" style="fill:#263238"></path><path d="M205.42,287.42s.34.19.35.86c.12,5.79.77,34.81.21,36.4-.07.21-.16.34-.27.38l3.48.28a1.66,1.66,0,0,1-.32-.87c-.39-4.91-.74-31.5-.68-36.42a1.65,1.65,0,0,1,.33-.83Z" style="fill:#263238"></path><path d="M262.56,286.83c.41,1.29,1.08,39.17,1.08,40.4s-1.39,1.51-1.39,1.51l21.54,1s-1.4-.39-1.64-1.05-7-41.5-7-42,1.1-1,1.1-1h-15A2.32,2.32,0,0,1,262.56,286.83Z" style="fill:#263238"></path><path d="M84.6,329.86c-2.64.34-8.59,6.52-9,7.83s-2.07,10.11-1.2,11.42,4,4.56,6.74,4.67,16-6.2,17.18-7.28,2.07-7.71.65-9.84S88,329.43,84.6,329.86Z" style="fill:#fff"></path><path d="M98.3,346.5c-1.19,1.08-14.46,7.39-17.18,7.28-2.07-.08-4.4-2-5.77-3.49A8.82,8.82,0,0,0,80.66,352c1.47-.13,13.89-5.48,15.49-6.94s1.66-7,1.45-8-8.23-6.16-8.23-6.16c4,1.53,8.63,4.32,9.58,5.75C100.36,338.79,99.49,345.41,98.3,346.5Z" style="fill:#ebebeb"></path><path d="M73.62,379.06c-.73.73-1,6.25-.22,6.74s5.22.43,6.09,0,3.1-4.57,2.94-6S74.49,378.19,73.62,379.06Z" style="fill:#fff"></path><path d="M470.51,348.51c2.34,3.79,19.57,10.52,26,11.58,4.05.66,18.1,1.55,18.92.81s-6-10.11-9.46-12.39-21-8.16-26.34-7.91S468.15,344.67,470.51,348.51Z" style="fill:#fff"></path><path d="M515.44,360.9c-.82.74-14.86-.15-18.92-.81-6.44-1.06-23.67-7.79-26-11.59s3.83-7.65,9.13-7.9a10.57,10.57,0,0,1,1.24,0c-4.94,1.82-5.95,5.68-2.94,7.88s12.64,7.36,16.49,8.44,17.55,3.2,18.74,2.25a2.41,2.41,0,0,0,.53-2C515,359.11,515.75,360.63,515.44,360.9Z" style="fill:#ebebeb"></path><g style="opacity:0.5"><path d="M139.63,347.62a8.77,8.77,0,0,1-2.51,6.21,8.91,8.91,0,1,1,0-12.42A8.77,8.77,0,0,1,139.63,347.62Zm0,0a8.7,8.7,0,0,0-2.59-6.13,8.54,8.54,0,0,0-12.08.18,8.54,8.54,0,0,0,6,14.49,8.55,8.55,0,0,0,6.13-2.41A8.7,8.7,0,0,0,139.63,347.62Z"></path><path d="M103.52,374.11c-.89-2-1.7-4-2.49-5.95s-1.54-4-2.31-6-1.46-4-2.15-6.08-1.37-4.08-2-6.15c.89,2,1.7,4,2.5,6s1.54,4,2.31,6,1.46,4,2.15,6.08S102.92,372,103.52,374.11Z"></path><path d="M72.94,374.11c4.28-.08,8.56-.07,12.84-.06l12.84.14,12.83.31c4.28.13,8.56.28,12.83.5-4.28.08-8.56.08-12.84.06l-12.84-.14-12.83-.3C81.49,374.48,77.21,374.34,72.94,374.11Z"></path><path d="M275,332.47l1.47,10.43.64,5.23c.09.87.19,1.74.26,2.63s0,1.75,0,2.63l-.19,21.07L277,385l-.08,5.27,0,2.63-.2,2.63L275.9,406,275,416.51l.53-10.51.61-10.51.15-2.62,0-2.64.05-5.26.11-10.52.36-21c0-.87.07-1.76,0-2.62s-.12-1.74-.2-2.62l-.53-5.23Z"></path><path d="M390.65,337.25l1.78,10.49.88,5.24.22,1.31a7.43,7.43,0,0,1,.16,1.33c0,.89,0,1.77,0,2.66-.06,7.09-.24,14.17-.46,21.26-.05,1.77-.13,3.54-.22,5.32a19.54,19.54,0,0,1-1,5.24c-1,3.41-2.08,6.78-3.3,10.12a76.69,76.69,0,0,1-4.24,9.77l-.66,1.17c-.23.38-.49.75-.73,1.12a8.45,8.45,0,0,1-.81,1.08l-.43.53a1.79,1.79,0,0,1-.78.23c-1.79.19-3.55.21-5.33.27-14.18.29-28.36.16-42.53.07s-28.36-.31-42.53-.57-28.35-.65-42.52-1.17c-7.08-.29-14.16-.52-21.24-1.16a16.33,16.33,0,0,1-2.69-.43c-.5-.19-.8-.42-1.22-.61s-.79-.38-1.19-.56c-1.6-.73-3.26-1.37-4.86-2.17a18.75,18.75,0,0,1-4.47-3,40.68,40.68,0,0,1-3.22-4.29c-4-5.86-7.81-11.84-11.62-17.81s-7.58-12-11.33-18-7.45-12.06-11.1-18.14l-1.36-2.29c-.11-.18-.21-.4-.32-.6l-.16-.3a1.2,1.2,0,0,1-.05-.33l-.13-1.32c-.15-1.77-.29-3.54-.35-5.31,0-.44,0-.89,0-1.33a8.27,8.27,0,0,1,.29-1.31c.25-.85.53-1.69.83-2.52.59-1.67,1.23-3.33,1.89-5q-1,2.47-1.85,5c-.29.84-.57,1.68-.8,2.53a7.44,7.44,0,0,0-.28,1.29c0,.44,0,.89,0,1.33.08,1.77.23,3.53.4,5.29l.13,1.33a1.8,1.8,0,0,0,.06.32l.15.28c.11.19.2.37.32.56l1.37,2.28c3.7,6,7.47,12,11.25,18,7.57,12,15.1,24,23,35.72a43.45,43.45,0,0,0,3.16,4.2,18.43,18.43,0,0,0,4.36,2.88c1.58.78,3.23,1.42,4.85,2.15.41.18.82.37,1.22.57s.82.47,1.15.58A16.93,16.93,0,0,0,227,411c7,.61,14.14.82,21.22,1.09,14.16.49,28.33.79,42.5,1.06s28.35.53,42.52.69,28.35.3,42.52.06c1.76-.06,3.55-.08,5.28-.26a4.4,4.4,0,0,0,.5-.09l.41-.5a8.13,8.13,0,0,0,.79-1c.24-.37.49-.72.72-1.1l.65-1.15a74.74,74.74,0,0,0,4.24-9.7q1.85-5,3.32-10.08a18.82,18.82,0,0,0,1-5.16l.25-5.3c.28-7.08.51-14.17.63-21.25,0-.89,0-1.78,0-2.66a7.29,7.29,0,0,0-.14-1.31l-.21-1.31-.84-5.25Z"></path><path d="M481.88,355.28A47.75,47.75,0,0,1,476,359.5c-2,1.3-4.1,2.54-6.15,3.8s-4.16,2.43-6.27,3.6-4.23,2.32-6.39,3.39c2-1.34,4.05-2.61,6.1-3.88l6.18-3.74L475.7,359l3.12-1.82A30.11,30.11,0,0,0,481.88,355.28Z"></path><polygon points="183.48 376.01 211.1 376.73 238.71 377.57 293.93 379.26 349.14 381.19 376.75 382.16 404.35 383.24 376.74 382.52 349.13 381.68 293.9 379.99 238.69 378.06 211.08 377.09 183.48 376.01"></polygon><path d="M181.85,336.44l-1.08.05-.26,0c-.06,0-.07.05-.11.13a4.18,4.18,0,0,0-.1.51,15.29,15.29,0,0,0,0,2.14c0,.35,0,.71.09,1a2.56,2.56,0,0,0,.12.46l0,0h.08c.05,0,.1,0,.21,0,.69.06,1.42.08,2.13.11,2.87.09,5.75.18,8.62.23l4.31.12,2.16,0h.92a1.3,1.3,0,0,0,.11-.27c0-.16.08-.32.11-.49a12.22,12.22,0,0,0,.09-2.1,9.1,9.1,0,0,0-.1-1.05,1.33,1.33,0,0,0-.11-.4,1.17,1.17,0,0,0-.4-.11c-1.4-.25-2.85-.33-4.28-.47a39.19,39.19,0,0,1,4.33.11,1.18,1.18,0,0,1,.61.19,1.25,1.25,0,0,1,.26.6,8.3,8.3,0,0,1,.15,1.1,12.43,12.43,0,0,1,0,2.2,3.78,3.78,0,0,1-.1.57,1,1,0,0,1-.39.66.33.33,0,0,1-.21.07l-.16,0h-3l-4.32-.06c-2.87-.11-5.75-.19-8.63-.4-.72-.06-1.43-.11-2.16-.21a1.79,1.79,0,0,1-.33-.07.83.83,0,0,1-.18-.07.5.5,0,0,1-.13-.19,2.29,2.29,0,0,1-.14-.59,10.11,10.11,0,0,1,0-1.1,14.36,14.36,0,0,1,.21-2.17,3.51,3.51,0,0,1,.15-.53l.07-.14c0-.05.15-.09.18-.08h.26Z"></path><path d="M287.54,339.05l-1.08.06h-.27c-.06,0-.07.05-.11.13a2.82,2.82,0,0,0-.09.52,13.75,13.75,0,0,0-.05,2.13A9.1,9.1,0,0,0,286,343a1.47,1.47,0,0,0,.12.46s0,0,0,0h.08l.21,0c.7.07,1.42.08,2.14.11,2.87.09,5.74.18,8.62.23l4.31.12,2.15,0h.92a1.63,1.63,0,0,0,.12-.27c0-.15.07-.31.1-.49a12.22,12.22,0,0,0,.09-2.1,8.74,8.74,0,0,0-.09-1,1.62,1.62,0,0,0-.12-.4c0-.05-.24-.09-.4-.12-1.4-.25-2.85-.33-4.28-.47a42,42,0,0,1,4.34.11,1.21,1.21,0,0,1,.61.19,1.33,1.33,0,0,1,.25.6,10.8,10.8,0,0,1,.16,1.1,13.59,13.59,0,0,1,0,2.21q0,.27-.09.57a1,1,0,0,1-.4.65.32.32,0,0,1-.21.07l-.16,0h-3l-4.32-.06c-2.88-.1-5.76-.19-8.63-.4-.73-.06-1.44-.11-2.17-.21a1.16,1.16,0,0,1-.32-.07l-.18-.06a.81.81,0,0,1-.14-.19,2,2,0,0,1-.13-.59,10.35,10.35,0,0,1-.05-1.1,14.25,14.25,0,0,1,.22-2.17,2.69,2.69,0,0,1,.14-.54.5.5,0,0,1,.08-.14.19.19,0,0,1,.17-.07h.27Z"></path></g><circle cx="152.34" cy="411.39" r="41.1" transform="translate(-277.62 498.47) rotate(-81.13)" style="fill:#263238"></circle><circle cx="152.34" cy="411.39" r="30.01" transform="translate(-278.21 495.52) rotate(-80.74)" style="fill:#dbdbdb"></circle><circle cx="152.34" cy="411.39" r="27.67" style="fill:#a6a6a6"></circle><path d="M156.68,404.45H148c2.93-4.24-7.29-19-7.29-19l4.57-1.53c3,5.22,4.56,6.75,7.06,6.75s4-1.53,7.08-6.75l4.56,1.53S153.75,400.21,156.68,404.45Z" style="fill:#dbdbdb"></path><path d="M147.26,405l-2.68,8.26c-3.13-4.09-20.34,1.06-20.34,1.06l0-4.82c5.91-1.28,7.83-2.25,8.6-4.63s-.21-4.3-4.23-8.81l2.87-3.87S142.33,406.46,147.26,405Z" style="fill:#dbdbdb"></path><path d="M144.85,414.1l7,5.11c-4.87,1.7-5.29,19.67-5.29,19.67L142,437.43c.6-6,.27-8.14-1.75-9.61s-4.15-1.13-9.69,1.3l-2.79-3.92S144.74,419.25,144.85,414.1Z" style="fill:#dbdbdb"></path><path d="M152.78,419.21l7-5.11c.12,5.15,17.08,11.1,17.08,11.1l-2.8,3.93c-5.53-2.44-7.66-2.78-9.68-1.31s-2.35,3.6-1.75,9.61l-4.59,1.45S157.65,420.91,152.78,419.21Z" style="fill:#dbdbdb"></path><path d="M160.09,413.24,157.41,405c4.93,1.48,15.83-12.81,15.83-12.81l2.87,3.87c-4,4.51-5,6.43-4.24,8.81s2.7,3.35,8.61,4.64l0,4.81S163.22,409.14,160.09,413.24Z" style="fill:#dbdbdb"></path><circle cx="152.34" cy="411.2" r="8.03" transform="translate(-277.46 498.14) rotate(-81.11)" style="fill:#dbdbdb"></circle><circle cx="439.88" cy="411.39" r="41.1" transform="translate(-114.71 176.53) rotate(-20.13)" style="fill:#263238"></circle><circle cx="439.88" cy="411.39" r="30.01" transform="translate(-40.38 774.83) rotate(-80.2)" style="fill:#dbdbdb"></circle><circle cx="439.88" cy="411.39" r="27.67" style="fill:#a6a6a6"></circle><path d="M444.23,404.45h-8.69c2.93-4.24-7.29-19-7.29-19l4.57-1.53c3,5.22,4.56,6.75,7.06,6.75s4-1.53,7.08-6.75l4.56,1.53S441.3,400.21,444.23,404.45Z" style="fill:#dbdbdb"></path><path d="M434.81,405l-2.68,8.26c-3.13-4.09-20.34,1.06-20.34,1.06l-.05-4.82c5.91-1.28,7.83-2.25,8.6-4.63s-.21-4.3-4.23-8.81l2.87-3.87S429.88,406.46,434.81,405Z" style="fill:#dbdbdb"></path><path d="M432.4,414.1l7,5.11c-4.86,1.7-5.28,19.67-5.28,19.67l-4.6-1.45c.61-6,.28-8.14-1.74-9.61s-4.16-1.13-9.69,1.3l-2.79-3.92S432.29,419.25,432.4,414.1Z" style="fill:#dbdbdb"></path><path d="M440.33,419.21l7-5.11c.12,5.15,17.08,11.1,17.08,11.1l-2.8,3.93c-5.53-2.44-7.66-2.78-9.68-1.31s-2.35,3.6-1.75,9.61l-4.59,1.45S445.2,420.91,440.33,419.21Z" style="fill:#dbdbdb"></path><path d="M447.64,413.24,445,405c4.93,1.48,15.83-12.81,15.83-12.81l2.87,3.87c-4,4.51-5,6.43-4.24,8.81s2.7,3.35,8.61,4.64l0,4.81S450.76,409.14,447.64,413.24Z" style="fill:#dbdbdb"></path><path d="M447.92,411.2a8,8,0,1,1-8-8A8,8,0,0,1,447.92,411.2Z" style="fill:#dbdbdb"></path><path d="M360.78,317c-1.5,1.5-1.36,14.9-.27,16s16,2.07,17.17-6.25S363.12,314.69,360.78,317Z" style="fill:#00B4D8"></path><path d="M415.13,325H403c-31.53-20.81-74.81-41.38-74.81-41.38l7.18-1.74c26.2,12.68,76.71,41.68,78,42.62A8,8,0,0,0,415.13,325Z" style="fill:#455a64"></path><g style="opacity:0.5"><path d="M103.52,384.55a53.29,53.29,0,0,1,9.21-11.32,58.31,58.31,0,0,1,11.84-8.61,57.45,57.45,0,0,1,28.26-7l3.68.18,1.83.08c.61.07,1.22.17,1.83.25l3.64.52c1.2.25,2.39.57,3.58.85a45.28,45.28,0,0,1,13.48,5.78,47.23,47.23,0,0,1,10.91,9.76,64.86,64.86,0,0,1,7.71,12.4,69.06,69.06,0,0,0-8.08-12.09A46.5,46.5,0,0,0,180.47,366c-8.23-5.14-18-7.23-27.64-7.32a58.88,58.88,0,0,0-14.37,1.55,56.54,56.54,0,0,0-13.53,5.09,57.45,57.45,0,0,0-11.87,8.31A54.85,54.85,0,0,0,103.52,384.55Z" style="fill:#fff"></path><path d="M391.45,384.55a53.29,53.29,0,0,1,9.21-11.32,58.31,58.31,0,0,1,11.84-8.61,57.45,57.45,0,0,1,28.26-7l3.68.18,1.83.08c.61.07,1.22.17,1.83.25l3.64.52c1.2.25,2.39.57,3.58.85a45.28,45.28,0,0,1,13.48,5.78,47.23,47.23,0,0,1,10.91,9.76,64.86,64.86,0,0,1,7.71,12.4,69.06,69.06,0,0,0-8.08-12.09A46.5,46.5,0,0,0,468.4,366c-8.23-5.14-18-7.23-27.64-7.32a58.88,58.88,0,0,0-14.37,1.55,56.54,56.54,0,0,0-13.53,5.09A57.45,57.45,0,0,0,401,373.59,54.85,54.85,0,0,0,391.45,384.55Z" style="fill:#fff"></path><path d="M109.47,316.35c6.4-5,12.9-9.92,19.44-14.75s13.15-9.58,20-14.09c.86-.55,1.73-1.09,2.62-1.61.44-.26.89-.51,1.36-.74a8.36,8.36,0,0,1,1.5-.57c2-.57,3.94-1.07,5.92-1.57,4-1,7.91-1.91,11.91-2.68a69.31,69.31,0,0,1,12.18-1.25c4.07-.09,8.14-.08,12.2.11-4.06,0-8.13.11-12.18.37a70.28,70.28,0,0,0-12,1.5c-4,.89-7.92,1.81-11.85,2.82-2,.5-3.94,1-5.87,1.6a7,7,0,0,0-1.35.52c-.43.22-.87.46-1.3.72-.87.51-1.72,1.06-2.57,1.6-6.81,4.41-13.4,9.19-20,13.87Z" style="fill:#fff"></path></g><path d="M428.25,370.16c-31.48,7.2-31.94,42.86-31.94,49.4,0,0-197.82-4.51-198.64-4.68-.66-.14-.46-31.36-23.8-43.25,10.48,5.18,23.92,17.74,29,36.08.55,2,29.36,5,78.6,6.59s92,.58,100.18-.56S399.31,370,428.25,370.16Z" style="opacity:0.1"></path><path d="M528.13,391.83c-.43,1.26-9.68,12.56-9.73,12.83s-.32,3.42-.49,3.76-9.3,8.31-10.6,8.64-6.63.43-7.39.65-10,6.3-10.77,6.63-5.21,0-6.52,0c-.39,0,.81-7.86.6-15-.35-12.46-8-28.14-22.91-35.8,8.11,1.73,21.64,12.8,27.1,24.22s4.06,12.26,5.33,13.63,5.52-1.4,7.47-1.89,8.32-.65,10.77-1.14,2.84-4.9,4.52-5.88S525.71,394.71,528.13,391.83Z" style="opacity:0.1"></path></g></svg>