<svg width="500" height="500" viewBox="0 0 500 500" fill="none" xmlns="http://www.w3.org/2000/svg">
<path d="M500 382.4H0V382.65H500V382.4Z" fill="#EBEBEB"/>
<path d="M449.9 398.49H416.78V398.74H449.9V398.49Z" fill="#EBEBEB"/>
<path d="M331.22 401.21H322.53V401.46H331.22V401.21Z" fill="#EBEBEB"/>
<path d="M415.78 389.21H396.59V389.46H415.78V389.21Z" fill="#EBEBEB"/>
<path d="M95.65 390.89H52.46V391.14H95.65V390.89Z" fill="#EBEBEB"/>
<path d="M110.89 390.89H104.56V391.14H110.89V390.89Z" fill="#EBEBEB"/>
<path d="M225.15 395.11H131.47V395.36H225.15V395.11Z" fill="#EBEBEB"/>
<path d="M237 337.8H43.91C42.3973 337.797 40.9475 337.195 39.8788 336.124C38.8102 335.053 38.21 333.603 38.21 332.09V60.66C38.2231 59.156 38.8292 57.718 39.8964 56.6582C40.9637 55.5985 42.4059 55.0026 43.91 55H237C238.514 55 239.967 55.6016 241.038 56.6724C242.108 57.7433 242.71 59.1956 242.71 60.71V332.09C242.71 333.604 242.108 335.057 241.038 336.128C239.967 337.198 238.514 337.8 237 337.8ZM43.91 55.2C42.4636 55.2026 41.0774 55.7791 40.0556 56.8027C39.0338 57.8264 38.46 59.2136 38.46 60.66V332.09C38.46 333.536 39.0338 334.924 40.0556 335.947C41.0774 336.971 42.4636 337.547 43.91 337.55H237C238.447 337.547 239.834 336.971 240.858 335.948C241.881 334.924 242.457 333.537 242.46 332.09V60.66C242.457 59.2127 241.881 57.8255 240.858 56.8021C239.834 55.7787 238.447 55.2026 237 55.2H43.91Z" fill="#EBEBEB"/>
<path d="M453.31 337.8H260.21C258.696 337.797 257.246 337.195 256.175 336.125C255.105 335.054 254.503 333.604 254.5 332.09V60.66C254.516 59.1551 255.124 57.7171 256.193 56.6576C257.262 55.5981 258.705 55.0025 260.21 55H453.31C454.812 55.0052 456.252 55.6022 457.317 56.6617C458.382 57.7212 458.987 59.1578 459 60.66V332.09C459 333.601 458.401 335.05 457.335 336.121C456.268 337.191 454.821 337.795 453.31 337.8ZM260.21 55.2C258.763 55.2026 257.375 55.7787 256.352 56.8021C255.329 57.8255 254.753 59.2127 254.75 60.66V332.09C254.753 333.537 255.329 334.924 256.352 335.948C257.375 336.971 258.763 337.547 260.21 337.55H453.31C454.757 337.547 456.145 336.971 457.168 335.948C458.191 334.924 458.767 333.537 458.77 332.09V60.66C458.767 59.2127 458.191 57.8255 457.168 56.8021C456.145 55.7787 454.757 55.2026 453.31 55.2H260.21Z" fill="#EBEBEB"/>
<path d="M184.2 118C184.195 116.624 184.513 115.266 185.129 114.036C185.744 112.805 186.64 111.736 187.745 110.915C188.849 110.094 190.13 109.544 191.486 109.309C192.841 109.073 194.233 109.159 195.55 109.56C195.118 106.619 195.396 103.617 196.358 100.805C197.321 97.9925 198.941 95.4506 201.084 93.3906C203.227 91.3306 205.831 89.8122 208.68 88.9616C211.528 88.1109 214.538 87.9527 217.46 88.5C219.3 85.4755 222.074 83.1316 225.363 81.8217C228.653 80.5118 232.278 80.3071 235.694 81.2383C239.11 82.1696 242.13 84.1863 244.299 86.9844C246.469 89.7824 247.669 93.21 247.72 96.75H248C251.989 96.75 255.814 98.3346 258.635 101.155C261.455 103.976 263.04 107.801 263.04 111.79C263.04 115.779 261.455 119.604 258.635 122.425C255.814 125.245 251.989 126.83 248 126.83H192.77C190.472 126.767 188.289 125.809 186.688 124.159C185.087 122.509 184.194 120.299 184.2 118Z" fill="#F0F0F0"/>
<path d="M275.79 173.66C275.79 172.167 276.383 170.735 277.439 169.679C278.495 168.623 279.927 168.03 281.42 168.03C281.966 168.033 282.508 168.113 283.03 168.27C282.95 167.697 282.91 167.119 282.91 166.54C282.91 163.379 284.166 160.347 286.401 158.111C288.637 155.876 291.669 154.62 294.83 154.62C295.565 154.62 296.298 154.687 297.02 154.82C298.198 152.891 299.97 151.398 302.07 150.563C304.17 149.729 306.485 149.599 308.665 150.193C310.845 150.788 312.773 152.074 314.159 153.859C315.545 155.644 316.314 157.831 316.35 160.09H316.52C319.014 160.17 321.379 161.218 323.114 163.01C324.85 164.803 325.82 167.2 325.82 169.695C325.82 172.19 324.85 174.587 323.114 176.38C321.379 178.172 319.014 179.22 316.52 179.3H281.26C279.791 179.263 278.396 178.652 277.373 177.597C276.35 176.543 275.782 175.129 275.79 173.66Z" fill="#F0F0F0"/>
<path d="M68.3201 166.29C68.3188 165.837 68.4071 165.387 68.58 164.968C68.7529 164.549 69.007 164.168 69.3276 163.848C69.6482 163.527 70.0291 163.273 70.4483 163.1C70.8674 162.927 71.3166 162.839 71.7701 162.84C72.1091 162.838 72.4464 162.889 72.7701 162.99C72.7182 162.639 72.6915 162.285 72.6901 161.93C72.6888 160.97 72.8766 160.02 73.2429 159.133C73.6091 158.246 74.1467 157.441 74.8247 156.762C75.5027 156.083 76.3078 155.544 77.1942 155.177C78.0805 154.809 79.0306 154.62 79.9901 154.62C80.4431 154.623 80.8949 154.666 81.3401 154.75C82.0626 153.57 83.1488 152.658 84.4352 152.149C85.7216 151.641 87.1383 151.564 88.4721 151.931C89.8058 152.297 90.9842 153.088 91.8298 154.182C92.6753 155.277 93.1422 156.617 93.1601 158H93.2701C94.7889 158.063 96.2247 158.71 97.2772 159.807C98.3297 160.904 98.9174 162.365 98.9174 163.885C98.9174 165.405 98.3297 166.866 97.2772 167.963C96.2247 169.06 94.7889 169.707 93.2701 169.77H71.6701C70.7664 169.746 69.9084 169.368 69.2815 168.717C68.6546 168.066 68.3093 167.194 68.3201 166.29Z" fill="#F0F0F0"/>
<path d="M404.6 115.55C404.597 114.643 404.953 113.771 405.59 113.125C406.227 112.479 407.093 112.111 408 112.1C408.338 112.099 408.675 112.146 409 112.24C408.954 111.909 408.93 111.575 408.93 111.24C408.914 110.158 409.14 109.086 409.592 108.102C410.043 107.118 410.709 106.247 411.54 105.554C412.37 104.86 413.346 104.36 414.394 104.091C415.443 103.823 416.538 103.791 417.6 104C418.318 102.812 419.403 101.891 420.691 101.376C421.98 100.861 423.401 100.78 424.74 101.145C426.078 101.51 427.261 102.302 428.11 103.4C428.958 104.498 429.425 105.843 429.44 107.23H429.55C431.069 107.293 432.505 107.94 433.557 109.037C434.61 110.134 435.197 111.595 435.197 113.115C435.197 114.635 434.61 116.096 433.557 117.193C432.505 118.29 431.069 118.937 429.55 119H408C407.093 118.989 406.227 118.621 405.59 117.975C404.953 117.329 404.597 116.457 404.6 115.55Z" fill="#F0F0F0"/>
<path d="M353.71 112.73H341C341 112.73 342 120 351.81 122.08L353.71 112.73Z" fill="#E0E0E0"/>
<path d="M353.71 132H341C341 132 342 139.28 351.81 141.36L353.71 132Z" fill="#E0E0E0"/>
<path d="M353.71 151.35H341C341 151.35 342 158.63 351.81 160.71L353.71 151.35Z" fill="#E0E0E0"/>
<path opacity="0.1" d="M353.71 112.73H341C341 112.73 342 120 351.81 122.08L353.71 112.73Z" fill="#E0E0E0"/>
<path opacity="0.1" d="M353.71 132H341C341 132 342 139.28 351.81 141.36L353.71 132Z" fill="#E0E0E0"/>
<path opacity="0.1" d="M353.71 151.35H341C341 151.35 342 158.63 351.81 160.71L353.71 151.35Z" fill="#E0E0E0"/>
<path d="M377.29 105.5H353.64C351.464 105.5 349.7 107.264 349.7 109.44V171.72C349.7 173.896 351.464 175.66 353.64 175.66H377.29C379.466 175.66 381.23 173.896 381.23 171.72V109.44C381.23 107.264 379.466 105.5 377.29 105.5Z" fill="#E0E0E0"/>
<path d="M377.29 105.5H367.04C364.864 105.5 363.1 107.264 363.1 109.44V171.72C363.1 173.896 364.864 175.66 367.04 175.66H377.29C379.466 175.66 381.23 173.896 381.23 171.72V109.44C381.23 107.264 379.466 105.5 377.29 105.5Z" fill="#EBEBEB"/>
<path d="M379.26 186.65H376.26C374.618 186.65 373.044 185.998 371.883 184.837C370.722 183.676 370.07 182.102 370.07 180.46V105C370.072 103.359 370.725 101.786 371.886 100.626C373.046 99.4657 374.619 98.8126 376.26 98.81H379.26V103.81H376.26C375.944 103.81 375.642 103.935 375.418 104.159C375.195 104.382 375.07 104.684 375.07 105V180.46C375.07 180.776 375.195 181.078 375.418 181.301C375.642 181.525 375.944 181.65 376.26 181.65H379.26V186.65Z" fill="#E0E0E0"/>
<path d="M367.78 374.43C367.985 374.151 368.253 373.924 368.563 373.768C368.872 373.611 369.213 373.53 369.56 373.53H389C389.346 373.53 389.688 373.611 389.997 373.768C390.306 373.924 390.575 374.151 390.78 374.43L397.64 383.78H360.92L367.78 374.43Z" fill="#E0E0E0"/>
<path d="M376.51 97.22C376.552 96.518 376.861 95.8586 377.373 95.3766C377.885 94.8945 378.562 94.626 379.265 94.626C379.968 94.626 380.645 94.8945 381.157 95.3766C381.669 95.8586 381.977 96.518 382.02 97.22C382.03 97.3531 382.03 97.4868 382.02 97.62V373.53H376.51V97.62C376.53 97.49 376.51 97.36 376.51 97.22Z" fill="#E0E0E0"/>
<path d="M383.39 190.88H379.26V185.88H383.39C383.414 185.88 383.437 185.871 383.453 185.854C383.47 185.837 383.48 185.814 383.48 185.79V125.71C383.48 125.686 383.47 125.663 383.453 125.646C383.437 125.629 383.414 125.62 383.39 125.62H379.26V120.62H383.39C384.739 120.623 386.032 121.16 386.986 122.114C387.94 123.068 388.477 124.361 388.48 125.71V185.79C388.48 187.14 387.943 188.435 386.989 189.389C386.034 190.344 384.74 190.88 383.39 190.88Z" fill="#E0E0E0"/>
<path d="M397 130.73H372.56C370.384 130.73 368.62 132.494 368.62 134.67V178.03C368.62 180.206 370.384 181.97 372.56 181.97H397C399.176 181.97 400.94 180.206 400.94 178.03V134.67C400.94 132.494 399.176 130.73 397 130.73Z" fill="#263238"/>
<path d="M397 130.73H372.56C370.384 130.73 368.62 132.494 368.62 134.67V178.03C368.62 180.206 370.384 181.97 372.56 181.97H397C399.176 181.97 400.94 180.206 400.94 178.03V134.67C400.94 132.494 399.176 130.73 397 130.73Z" fill="#EBEBEB"/>
<path d="M397 130.73H376.5C374.324 130.73 372.56 132.494 372.56 134.67V178.03C372.56 180.206 374.324 181.97 376.5 181.97H397C399.176 181.97 400.94 180.206 400.94 178.03V134.67C400.94 132.494 399.176 130.73 397 130.73Z" fill="#F5F5F5"/>
<path d="M394.999 149.307C396.146 144.448 393.137 139.579 388.278 138.432C383.418 137.285 378.55 140.295 377.403 145.154C376.256 150.013 379.265 154.882 384.124 156.029C388.984 157.175 393.852 154.166 394.999 149.307Z" fill="#E0E0E0"/>
<path d="M395.26 168.11C395.25 169.888 394.714 171.623 393.719 173.096C392.724 174.57 391.315 175.716 389.67 176.389C388.024 177.063 386.216 177.234 384.474 176.881C382.731 176.528 381.132 175.667 379.879 174.406C378.625 173.146 377.773 171.542 377.43 169.798C377.086 168.053 377.267 166.246 377.95 164.604C378.633 162.963 379.786 161.56 381.265 160.573C382.744 159.587 384.482 159.06 386.26 159.06C387.446 159.06 388.621 159.294 389.716 159.75C390.811 160.205 391.805 160.873 392.642 161.714C393.478 162.555 394.14 163.553 394.589 164.65C395.039 165.748 395.267 166.924 395.26 168.11Z" fill="#EBEBEB"/>
<path d="M430.71 370.17C430.71 370.17 439.71 360.39 434.39 354.72C429.07 349.05 424.99 357.45 424.99 357.45C424.99 357.45 431.86 345.18 424.99 341.27C418.12 337.36 416.26 347.27 416.26 347.27C416.26 347.27 418.03 334.36 408.83 333.65C399.63 332.94 401.52 343.59 401.52 343.59C401.52 343.59 396.06 333.29 388.91 337.59C381.76 341.89 387.79 351.05 387.79 351.05C387.79 351.05 381.42 344.31 377.79 349.2C374.16 354.09 379.95 358.49 379.95 358.49C379.95 358.49 373.06 356.29 372.03 362.69C371 369.09 377.47 370.13 377.47 370.13L430.71 370.17Z" fill="#E0E0E0"/>
<path d="M160.62 370.17C160.62 370.17 174.41 355.25 166.23 346.6C158.05 337.95 151.89 350.76 151.89 350.76C151.89 350.76 162.37 332.03 151.89 326.06C141.41 320.09 138.57 335.26 138.57 335.26C138.57 335.26 141.27 315.55 127.22 314.48C113.17 313.41 116.08 329.63 116.08 329.63C116.08 329.63 107.74 313.92 96.8302 320.52C85.9202 327.12 95.1102 341.06 95.1102 341.06C95.1102 341.06 85.4002 330.77 79.8702 338.23C74.3402 345.69 83.1802 352.41 83.1802 352.41C83.1802 352.41 72.6602 349.05 71.0802 358.82C69.5002 368.59 79.3902 370.17 79.3902 370.17H160.62Z" fill="#F0F0F0"/>
<path d="M451.76 370.17H48.2402V382.4H451.76V370.17Z" fill="#F5F5F5"/>
<path d="M451.76 370.17H404.6V382.4H451.76V370.17Z" fill="#E0E0E0"/>
<path d="M357.43 370.17H310.27V382.4H357.43V370.17Z" fill="#E0E0E0"/>
<path d="M263.1 370.17H215.94V382.4H263.1V370.17Z" fill="#E0E0E0"/>
<path d="M168.77 370.17H121.61V382.4H168.77V370.17Z" fill="#E0E0E0"/>
<path d="M74.4402 370.17H48.2402V382.4H74.4402V370.17Z" fill="#E0E0E0"/>
<path d="M251.7 326.26H245.97L234.26 292.54H239.99L251.7 326.26Z" fill="#E6E6E6"/>
<path d="M328.06 326.26H322.33L310.62 292.54H316.35L328.06 326.26Z" fill="#E6E6E6"/>
<path d="M364.84 326.26H240.75V334.53H364.84V326.26Z" fill="#F0F0F0"/>
<path d="M342.57 314.81H231.85V323.08H342.57V314.81Z" fill="#F0F0F0"/>
<path d="M333.02 298.26H222.3V306.53H333.02V298.26Z" fill="#F0F0F0"/>
<path d="M326.66 284.26H215.94V292.53H326.66V284.26Z" fill="#F0F0F0"/>
<path d="M359.75 334.54H354.02V370.17H359.75V334.54Z" fill="#F0F0F0"/>
<path d="M359.75 334.54H354.02V341.54H359.75V334.54Z" fill="#E6E6E6"/>
<path d="M247.76 334.54H242.03V370.17H247.76V334.54Z" fill="#F0F0F0"/>
<path d="M247.76 334.54H242.03V341.54H247.76V334.54Z" fill="#E6E6E6"/>
<path d="M250 427.56C357.082 427.56 443.89 422.492 443.89 416.24C443.89 409.988 357.082 404.92 250 404.92C142.917 404.92 56.1099 409.988 56.1099 416.24C56.1099 422.492 142.917 427.56 250 427.56Z" fill="#F5F5F5"/>
<path d="M232.6 102.88H84.4601C78.7163 102.88 74.0601 107.536 74.0601 113.28V396.34C74.0601 402.084 78.7163 406.74 84.4601 406.74H232.6C238.344 406.74 243 402.084 243 396.34V113.28C243 107.536 238.344 102.88 232.6 102.88Z" fill="#263238"/>
<path opacity="0.2" d="M232.6 102.88H84.4601C78.7163 102.88 74.0601 107.536 74.0601 113.28V396.34C74.0601 402.084 78.7163 406.74 84.4601 406.74H232.6C238.344 406.74 243 402.084 243 396.34V113.28C243 107.536 238.344 102.88 232.6 102.88Z" fill="white"/>
<path d="M237.29 113.06V396C237.29 396.549 237.181 397.092 236.969 397.598C236.757 398.105 236.447 398.564 236.056 398.949C235.665 399.334 235.202 399.638 234.693 399.842C234.183 400.047 233.639 400.148 233.09 400.14H83.5099C83.0117 400.146 82.5174 400.051 82.0567 399.861C81.5959 399.671 81.1781 399.391 80.8281 399.036C80.4782 398.682 80.2032 398.26 80.0197 397.797C79.8361 397.334 79.7478 396.838 79.7599 396.34V112.72C79.7425 112.279 79.8128 111.839 79.9666 111.425C80.1204 111.011 80.3548 110.632 80.6561 110.309C80.9574 109.986 81.3196 109.727 81.7219 109.545C82.1243 109.363 82.5586 109.263 82.9999 109.25H120.4C120.921 109.26 121.428 109.426 121.855 109.725C122.283 110.024 122.612 110.444 122.8 110.93L124.35 114.74C124.54 115.226 124.871 115.645 125.301 115.942C125.73 116.239 126.238 116.402 126.76 116.41H190.4C190.919 116.405 191.424 116.246 191.853 115.954C192.282 115.663 192.615 115.251 192.81 114.77L194.35 110.94C194.541 110.452 194.871 110.032 195.3 109.731C195.729 109.431 196.236 109.263 196.76 109.25H233.62C234.609 109.276 235.549 109.69 236.235 110.403C236.922 111.116 237.301 112.07 237.29 113.06Z" fill="#00B4D8"/>
<path opacity="0.7" d="M237.29 126.93H79.7603V381.18H237.29V126.93Z" fill="white"/>
<path opacity="0.6" d="M97.1101 120.65H99.0601V118.06H97.1101V120.65Z" fill="white"/>
<path opacity="0.6" d="M93.9401 120.65H95.8901V117.19H93.9401V120.65Z" fill="white"/>
<path opacity="0.6" d="M90.7702 120.65H92.7202V116.33H90.7702V120.65Z" fill="white"/>
<path opacity="0.6" d="M87.6003 120.65H89.5503V115.46H87.6003V120.65Z" fill="white"/>
<path opacity="0.6" d="M219.46 117.11H218.31V119.7H219.46V117.11Z" fill="white"/>
<path opacity="0.6" d="M220.25 120.65H229.44V116.16H220.25V120.65Z" fill="white"/>
<path opacity="0.6" d="M158.5 109.62C158.502 110.05 158.376 110.471 158.139 110.829C157.901 111.188 157.562 111.467 157.165 111.633C156.768 111.798 156.331 111.842 155.909 111.759C155.487 111.675 155.1 111.468 154.796 111.164C154.492 110.86 154.285 110.473 154.201 110.051C154.118 109.629 154.162 109.192 154.327 108.795C154.493 108.398 154.772 108.059 155.131 107.822C155.489 107.584 155.91 107.458 156.34 107.46C156.913 107.46 157.462 107.688 157.867 108.093C158.273 108.498 158.5 109.047 158.5 109.62Z" fill="white"/>
<path opacity="0.6" d="M162.87 109.62C162.87 109.895 162.788 110.164 162.635 110.393C162.482 110.622 162.264 110.8 162.009 110.905C161.755 111.01 161.475 111.037 161.205 110.983C160.935 110.928 160.687 110.795 160.493 110.599C160.299 110.404 160.168 110.155 160.115 109.885C160.063 109.615 160.092 109.335 160.199 109.081C160.305 108.827 160.485 108.611 160.715 108.459C160.945 108.308 161.215 108.228 161.49 108.23C161.672 108.23 161.852 108.266 162.02 108.336C162.188 108.406 162.341 108.509 162.469 108.638C162.597 108.767 162.699 108.92 162.768 109.089C162.836 109.257 162.871 109.438 162.87 109.62Z" fill="white"/>
<path d="M205.05 339.44H91.83C89.886 339.44 88.0215 338.668 86.6469 337.293C85.2723 335.918 84.5 334.054 84.5 332.11C84.5 330.165 85.2719 328.3 86.6463 326.923C88.0207 325.547 89.885 324.773 91.83 324.77H205.05C206.995 324.773 208.859 325.547 210.234 326.923C211.608 328.3 212.38 330.165 212.38 332.11C212.38 333.073 212.19 334.026 211.822 334.915C211.454 335.804 210.914 336.612 210.233 337.293C209.552 337.974 208.744 338.514 207.855 338.882C206.966 339.25 206.013 339.44 205.05 339.44Z" fill="white"/>
<path d="M233.05 158.8H83.7402V317.81H233.05V158.8Z" fill="#00B4D8"/>
<path opacity="0.4" d="M233.05 158.8H83.7402V317.81H233.05V158.8Z" fill="white"/>
<path d="M233 159.74L231.82 158.8H220.27L227.96 165.53L187.65 172.19L178 158.8H170.92L180.46 173.39L144.67 179.31L141 168.17L156 165.93C157.47 165.71 158.3 164.84 157.88 164L155.29 158.8H149.98L151.98 163.24L139.98 164.98L137.98 158.8H107.98L111.5 160.73C112.183 161.05 112.949 161.148 113.69 161.01L126.48 159.29L131.2 181.54L83.8101 189.39V200.09L90.8601 198.83L83.8101 269.28V317.82H85.4301L89.4301 311.01L154.25 290.2L160 317.82H189.88L163.36 236.82L213.59 224.25L233 253.9V234.9L223.47 221.73L233 219.35V211.35L218.5 214.8L193.62 180.44L210.39 177.44L233 203.12V194.94L215.73 176.47L233 173.39V159.74ZM93.7001 293.85L98.2701 197.5L133.19 191.25L151.28 276.51L93.7001 293.85ZM209 217.07L160.76 228.54L147.71 188.66L185.96 181.81L209 217.07Z" fill="#00B4D8"/>
<path d="M162.87 277.54L179.84 296.84L168.5 294.38L160.1 302.67L162.87 277.54Z" fill="white"/>
<path d="M160.1 302.67L161.13 305.22L169.97 297.83L179.84 299.72V296.84L168.5 294.38L160.1 302.67Z" fill="#E0E0E0"/>
<path d="M190.09 170.17C189.779 169.775 189.387 169.451 188.941 169.219C188.496 168.986 188.006 168.851 187.504 168.821C187.002 168.792 186.5 168.869 186.03 169.048C185.56 169.226 185.133 169.503 184.778 169.858C184.423 170.214 184.146 170.64 183.968 171.11C183.789 171.58 183.712 172.082 183.741 172.584C183.771 173.086 183.906 173.576 184.139 174.021C184.371 174.467 184.695 174.859 185.09 175.17L187.61 177.69L190.13 175.17C190.779 174.497 191.139 173.597 191.132 172.662C191.124 171.727 190.75 170.832 190.09 170.17ZM187.57 174.1C187.291 174.1 187.018 174.017 186.787 173.862C186.555 173.707 186.374 173.487 186.267 173.23C186.161 172.972 186.133 172.688 186.187 172.415C186.241 172.141 186.376 171.89 186.573 171.693C186.77 171.496 187.021 171.361 187.295 171.307C187.568 171.253 187.852 171.281 188.11 171.387C188.367 171.494 188.587 171.675 188.742 171.907C188.897 172.139 188.98 172.411 188.98 172.69C188.98 173.064 188.831 173.423 188.567 173.687C188.303 173.951 187.944 174.1 187.57 174.1Z" fill="white"/>
<path opacity="0.5" d="M166.11 273.09L141.11 184.84C141.079 184.732 141.071 184.619 141.087 184.507C141.103 184.396 141.143 184.29 141.204 184.195C141.264 184.1 141.344 184.02 141.439 183.959C141.533 183.897 141.639 183.857 141.75 183.84L183.49 177.22L182.49 175.96L138.37 183.11C138.148 183.148 137.936 183.231 137.747 183.353C137.558 183.476 137.396 183.635 137.271 183.822C137.145 184.009 137.059 184.22 137.018 184.441C136.977 184.663 136.981 184.89 137.03 185.11L159.19 274.8L166.11 273.09Z" fill="white"/>
<path d="M226.78 191.11H221.4C220.279 191.11 219.37 192.019 219.37 193.14V295.34C219.37 296.461 220.279 297.37 221.4 297.37H226.78C227.901 297.37 228.81 296.461 228.81 295.34V193.14C228.81 192.019 227.901 191.11 226.78 191.11Z" fill="white"/>
<path opacity="0.2" d="M224.09 292.47C223.825 292.47 223.57 292.365 223.383 292.177C223.195 291.99 223.09 291.735 223.09 291.47V197C223.09 196.735 223.195 196.48 223.383 196.293C223.57 196.105 223.825 196 224.09 196C224.355 196 224.609 196.105 224.797 196.293C224.984 196.48 225.09 196.735 225.09 197V291.5C225.082 291.76 224.973 292.007 224.787 292.188C224.6 292.369 224.35 292.47 224.09 292.47Z" fill="black"/>
<path d="M226.5 217.35C226.5 217.827 226.359 218.293 226.094 218.689C225.829 219.085 225.453 219.394 225.012 219.577C224.572 219.759 224.088 219.807 223.62 219.714C223.153 219.621 222.723 219.391 222.386 219.054C222.049 218.717 221.819 218.288 221.726 217.82C221.633 217.353 221.681 216.868 221.864 216.428C222.046 215.987 222.355 215.611 222.751 215.346C223.148 215.081 223.614 214.94 224.09 214.94C224.729 214.94 225.342 215.194 225.794 215.646C226.246 216.098 226.5 216.711 226.5 217.35Z" fill="#00B4D8"/>
<path d="M228.42 184.37C228.422 185.229 228.169 186.07 227.693 186.785C227.217 187.5 226.539 188.058 225.746 188.388C224.952 188.717 224.079 188.804 223.236 188.637C222.393 188.47 221.619 188.056 221.011 187.449C220.404 186.841 219.99 186.067 219.823 185.224C219.656 184.381 219.743 183.508 220.073 182.715C220.402 181.921 220.96 181.243 221.675 180.767C222.391 180.291 223.231 180.038 224.09 180.04C224.659 180.04 225.222 180.152 225.747 180.37C226.273 180.587 226.75 180.906 227.152 181.308C227.554 181.71 227.873 182.188 228.091 182.713C228.308 183.238 228.42 183.801 228.42 184.37Z" fill="white"/>
<path opacity="0.2" d="M224.55 181.32H223.61V187.42H224.55V181.32Z" fill="black"/>
<path opacity="0.2" d="M227.14 184.83V183.89H221.04V184.83H227.14Z" fill="black"/>
<path d="M228.42 304.13C228.422 304.989 228.169 305.83 227.693 306.545C227.217 307.26 226.539 307.818 225.746 308.148C224.952 308.477 224.079 308.564 223.236 308.397C222.393 308.23 221.619 307.816 221.011 307.209C220.404 306.601 219.99 305.827 219.823 304.984C219.656 304.141 219.743 303.268 220.073 302.475C220.402 301.681 220.96 301.003 221.675 300.527C222.391 300.051 223.231 299.798 224.09 299.8C225.239 299.8 226.34 300.256 227.152 301.068C227.964 301.88 228.42 302.982 228.42 304.13Z" fill="white"/>
<path opacity="0.2" d="M227.14 304.6V303.66H221.04V304.6H227.14Z" fill="black"/>
<path d="M233.05 131.65H83.7402V154.42H233.05V131.65Z" fill="#263238"/>
<path d="M223.82 339.44C227.868 339.44 231.15 336.158 231.15 332.11C231.15 328.062 227.868 324.78 223.82 324.78C219.772 324.78 216.49 328.062 216.49 332.11C216.49 336.158 219.772 339.44 223.82 339.44Z" fill="#00B4D8"/>
<path opacity="0.2" d="M230.81 346.58H85.9802C84.7431 346.58 83.7402 347.583 83.7402 348.82V374.67C83.7402 375.907 84.7431 376.91 85.9802 376.91H230.81C232.047 376.91 233.05 375.907 233.05 374.67V348.82C233.05 347.583 232.047 346.58 230.81 346.58Z" fill="black"/>
<path opacity="0.3" d="M103.28 142.73L95.3301 136.48L87.3701 142.73H90.6101V147.44H100.04V142.73H103.28Z" fill="white"/>
<g opacity="0.3">
<path opacity="0.3" d="M228.01 138.03H217.98V139.72H228.01V138.03Z" fill="white"/>
<path opacity="0.3" d="M228.01 141.12H217.98V142.81H228.01V141.12Z" fill="white"/>
<path opacity="0.3" d="M228.01 144.21H217.98V145.9H228.01V144.21Z" fill="white"/>
</g>
<path d="M119.78 279.13H89.5001C88.3237 279.13 87.3701 280.084 87.3701 281.26V311.54C87.3701 312.716 88.3237 313.67 89.5001 313.67H119.78C120.956 313.67 121.91 312.716 121.91 311.54V281.26C121.91 280.084 120.956 279.13 119.78 279.13Z" fill="#263238"/>
<path d="M116.12 289.49L108.9 284.49V288.49H97.75C96.9544 288.49 96.1913 288.806 95.6287 289.369C95.0661 289.931 94.75 290.694 94.75 291.49V306.77H96.66V291.55C96.66 291.406 96.6885 291.263 96.7437 291.129C96.799 290.996 96.88 290.874 96.9822 290.772C97.0843 290.67 97.2056 290.589 97.3391 290.534C97.4725 290.478 97.6155 290.45 97.76 290.45H108.9V294.45L116.12 289.49Z" fill="white"/>
<path d="M323.54 275.54L319.87 290.77C319.87 290.77 281.19 297.77 275.78 307.38C270.37 316.99 289.07 365 289.07 365H297.58C297.58 365 292.29 325.8 295.81 321.76C299.33 317.72 337.29 309.76 337.29 309.76L323.54 275.54Z" fill="#00B4D8"/>
<path opacity="0.6" d="M295.81 321.75C292.29 325.75 297.57 364.99 297.57 364.99H289.07C289.07 364.99 270.37 316.99 275.78 307.38C281.19 297.77 319.86 290.77 319.86 290.77L323.54 275.53L333.54 300.42L337.29 309.74C337.29 309.74 317.73 313.86 305.39 317.66C300.54 319.17 296.81 320.62 295.81 321.75Z" fill="white"/>
<path opacity="0.2" d="M337.29 309.74C337.29 309.74 317.73 313.86 305.39 317.66C308.87 308.49 323.69 302.51 323.69 302.51L324.97 289.51C328.083 292.945 330.947 296.597 333.54 300.44L337.29 309.74Z" fill="black"/>
<path d="M295.35 381.85L300.78 380L299.1 372.14L297.55 364.92L290.75 366.06L293.18 374.42L295.35 381.85Z" fill="#E4897B"/>
<path d="M301.85 379.7C301.85 379.07 294.06 379.64 294.06 379.64C294.06 379.64 289.33 384.56 284.7 385.7C280.07 386.84 282.7 389.6 287.88 389.55L300.72 389.41C304.41 389.37 302.07 386.25 301.85 379.7Z" fill="#00B4D8"/>
<path d="M289.31 381.5C289.198 381.398 289.118 381.264 289.083 381.116C289.047 380.968 289.057 380.813 289.11 380.67C289.137 380.558 289.188 380.453 289.259 380.361C289.329 380.27 289.418 380.195 289.52 380.14C290.07 379.912 290.672 379.839 291.26 379.93C290.63 379.6 290.07 379.2 290.04 378.79C290.01 378.38 290.19 378.3 290.54 378.13C290.697 378.057 290.868 378.02 291.04 378.02C291.213 378.02 291.384 378.057 291.54 378.13C292.6 378.56 293.27 380.36 293.3 380.44C293.305 380.47 293.305 380.5 293.3 380.53C293.299 380.547 293.299 380.563 293.3 380.58V380.64L293.24 380.69C292.397 381.11 291.508 381.428 290.59 381.64C290.379 381.705 290.156 381.727 289.936 381.703C289.716 381.679 289.503 381.61 289.31 381.5ZM289.73 380.5C289.676 380.528 289.628 380.568 289.59 380.616C289.552 380.664 289.525 380.72 289.51 380.78C289.43 381.08 289.51 381.16 289.56 381.19C289.93 381.49 291.35 381.04 292.49 380.55C291.593 380.276 290.638 380.255 289.73 380.49V380.5ZM290.73 378.5C290.63 378.55 290.45 378.65 290.46 378.76C290.46 379.11 291.6 379.7 292.76 380.13C292.497 379.448 292.024 378.867 291.41 378.47C291.268 378.41 291.112 378.392 290.96 378.42C290.877 378.436 290.797 378.463 290.72 378.5H290.73Z" fill="#263238"/>
<path opacity="0.2" d="M293.24 374.59L299.15 372.29L297.58 365L290.76 366.1L293.24 374.59Z" fill="black"/>
<path d="M299.09 361.36L287.15 363.56L289.65 367.78L299.46 365.85L299.09 361.36Z" fill="#00B4D8"/>
<path d="M349.14 385.05L345 394.59C344.216 396.392 342.923 397.925 341.28 399.002C339.637 400.078 337.715 400.651 335.75 400.65H318.39C317.25 400.651 316.121 400.427 315.067 399.991C314.014 399.555 313.056 398.916 312.25 398.11H279.82C278.565 398.111 277.329 397.813 276.212 397.241C275.096 396.668 274.132 395.839 273.4 394.82L269.11 388.82L349.14 385.05Z" fill="#2E353A"/>
<path opacity="0.4" d="M349.14 385.05L345 394.59C344.216 396.392 342.923 397.925 341.28 399.002C339.637 400.078 337.715 400.651 335.75 400.65H318.39C317.25 400.651 316.121 400.427 315.067 399.991C314.014 399.555 313.056 398.916 312.25 398.11H279.82C278.565 398.111 277.329 397.813 276.212 397.241C275.096 396.668 274.132 395.839 273.4 394.82L269.11 388.82L349.14 385.05Z" fill="black"/>
<path d="M273.42 281.08C273.362 281.079 273.305 281.064 273.254 281.036C273.203 281.009 273.16 280.969 273.127 280.921C273.095 280.873 273.075 280.818 273.068 280.76C273.062 280.702 273.069 280.644 273.09 280.59C274.41 277.33 281.4 274.46 286.83 273.93C288.541 273.831 290.242 273.607 291.92 273.26C291.965 273.235 292.015 273.223 292.065 273.223C292.116 273.223 292.166 273.235 292.21 273.26C292.255 273.273 292.297 273.294 292.334 273.323C292.37 273.352 292.401 273.388 292.423 273.429C292.445 273.47 292.459 273.515 292.464 273.562C292.469 273.608 292.464 273.655 292.45 273.7C292.38 273.95 292.32 274.15 286.9 274.7C281.68 275.21 274.9 277.98 273.75 280.92C273.715 280.974 273.665 281.017 273.607 281.045C273.549 281.073 273.485 281.085 273.42 281.08Z" fill="#263238"/>
<path d="M255.09 280.65H254.94C252.59 279.51 252.16 277.98 251.56 275.86L251.48 275.56C250.94 273.66 248.73 273.92 248.64 273.94C248.546 273.951 248.451 273.925 248.376 273.867C248.301 273.809 248.252 273.724 248.24 273.63C248.234 273.584 248.238 273.537 248.251 273.493C248.263 273.448 248.284 273.406 248.313 273.37C248.342 273.334 248.378 273.304 248.419 273.281C248.459 273.259 248.504 273.245 248.55 273.24C249.307 273.099 250.09 273.237 250.754 273.629C251.417 274.02 251.917 274.639 252.16 275.37L252.24 275.66C252.81 277.66 253.19 279.01 255.24 280.01C255.324 280.051 255.388 280.123 255.42 280.211C255.451 280.298 255.448 280.395 255.41 280.48C255.377 280.535 255.33 280.58 255.274 280.61C255.217 280.64 255.154 280.654 255.09 280.65Z" fill="#263238"/>
<path d="M406.6 376.6H404.6V373.53H408.6C408.564 374.172 408.36 374.793 408.009 375.332C407.658 375.87 407.173 376.308 406.6 376.6Z" fill="#2E353A"/>
<path d="M375.79 417.27C390.503 417.27 402.43 402.876 402.43 385.12C402.43 367.364 390.503 352.97 375.79 352.97C361.077 352.97 349.15 367.364 349.15 385.12C349.15 402.876 361.077 417.27 375.79 417.27Z" fill="#2E353A"/>
<path d="M380.25 405.4C389.529 405.4 397.05 396.32 397.05 385.12C397.05 373.92 389.529 364.84 380.25 364.84C370.972 364.84 363.45 373.92 363.45 385.12C363.45 396.32 370.972 405.4 380.25 405.4Z" fill="black"/>
<path d="M384.11 393.3C387.976 393.3 391.11 389.517 391.11 384.85C391.11 380.183 387.976 376.4 384.11 376.4C380.244 376.4 377.11 380.183 377.11 384.85C377.11 389.517 380.244 393.3 384.11 393.3Z" fill="#263238"/>
<path opacity="0.4" d="M384.11 393.3C387.976 393.3 391.11 389.517 391.11 384.85C391.11 380.183 387.976 376.4 384.11 376.4C380.244 376.4 377.11 380.183 377.11 384.85C377.11 389.517 380.244 393.3 384.11 393.3Z" fill="black"/>
<path d="M404 368.65C404 368.65 407 375.17 404 380.31C395.012 384.69 385.177 387.055 375.18 387.24C359.46 387.24 379.92 367.13 404 368.65Z" fill="#2E353A"/>
<path opacity="0.6" d="M404 368.65C404 368.65 407 375.17 404 380.31C395.012 384.69 385.177 387.055 375.18 387.24C359.46 387.24 379.92 367.13 404 368.65Z" fill="white"/>
<path d="M417.16 373.29C417.16 372.94 417.021 372.604 416.774 372.357C416.526 372.109 416.19 371.97 415.84 371.97C415.607 371.98 415.38 372.049 415.18 372.17C415.054 371.973 414.882 371.811 414.677 371.697C414.473 371.584 414.244 371.523 414.01 371.52C413.63 371.52 413.265 371.67 412.996 371.938C412.726 372.206 412.573 372.57 412.57 372.95C412.572 373.147 412.616 373.342 412.7 373.52C412.436 373.822 412.287 374.208 412.28 374.61C412.278 374.959 412.382 375.3 412.578 375.589C412.775 375.878 413.054 376.099 413.38 376.225C413.706 376.351 414.062 376.375 414.401 376.294C414.741 376.212 415.047 376.03 415.28 375.77C415.446 375.89 415.645 375.957 415.85 375.96C416.116 375.96 416.37 375.855 416.557 375.667C416.745 375.48 416.85 375.225 416.85 374.96C416.848 374.73 416.767 374.507 416.62 374.33C416.786 374.212 416.921 374.056 417.015 373.875C417.109 373.694 417.159 373.494 417.16 373.29Z" fill="#E0E0E0"/>
<path d="M411.53 378.5C411.53 378.268 411.439 378.046 411.276 377.881C411.113 377.716 410.892 377.623 410.66 377.62C410.503 377.625 410.351 377.674 410.22 377.76C410.139 377.628 410.026 377.518 409.891 377.441C409.757 377.364 409.605 377.322 409.45 377.32C409.202 377.332 408.967 377.436 408.792 377.612C408.616 377.787 408.512 378.022 408.5 378.27C408.499 378.401 408.527 378.53 408.58 378.65C408.436 378.814 408.343 379.016 408.312 379.231C408.281 379.447 408.313 379.667 408.406 379.865C408.498 380.062 408.646 380.229 408.832 380.343C409.017 380.458 409.232 380.516 409.45 380.51C409.607 380.51 409.761 380.478 409.905 380.414C410.048 380.35 410.176 380.257 410.28 380.14C410.392 380.218 410.523 380.264 410.66 380.27C410.843 380.27 411.018 380.197 411.148 380.068C411.277 379.938 411.35 379.763 411.35 379.58C411.348 379.43 411.295 379.286 411.2 379.17C411.302 379.09 411.384 378.989 411.441 378.873C411.499 378.757 411.529 378.629 411.53 378.5Z" fill="#E0E0E0"/>
<path d="M393.09 327.9C393.09 327.9 395.66 328.69 395.66 334.48C395.66 337.99 392.1 341.54 392.1 341.54C392.1 341.54 386.36 327.7 393.09 327.9Z" fill="#00B4D8"/>
<path opacity="0.7" d="M393.09 327.9C393.09 327.9 395.66 328.69 395.66 334.48C395.66 337.99 392.1 341.54 392.1 341.54C392.1 341.54 386.36 327.7 393.09 327.9Z" fill="white"/>
<path d="M381.54 326.31H394.27C394.27 326.31 396.27 329.69 391.11 333.64C385.95 337.59 381.54 326.31 381.54 326.31Z" fill="#263238"/>
<path d="M394.08 335.02C394.516 335.02 394.87 334.102 394.87 332.97C394.87 331.838 394.516 330.92 394.08 330.92C393.644 330.92 393.29 331.838 393.29 332.97C393.29 334.102 393.644 335.02 394.08 335.02Z" fill="white"/>
<path d="M322.73 347.25C322.73 351.82 304.5 384.25 302.67 385.59C300.84 386.93 277.07 385.43 277.07 385.43L278.84 392.17H344.19L371.32 339.48L353.38 313.58L320.67 314.49C320.67 314.49 322.73 342.69 322.73 347.25Z" fill="#263238"/>
<path opacity="0.2" d="M322.73 347.25C322.73 351.82 304.5 384.25 302.67 385.59C300.84 386.93 277.07 385.43 277.07 385.43L278.84 392.17H344.19L371.32 339.48L353.38 313.58L320.67 314.49C320.67 314.49 322.73 342.69 322.73 347.25Z" fill="black"/>
<path d="M227.35 336.56C227.35 336.56 248.6 352.85 258.77 386.37C259.341 388.286 260.514 389.967 262.115 391.165C263.717 392.363 265.661 393.013 267.66 393.02H299.09L262.6 333.67L243.36 325.67L227.35 336.56Z" fill="#263238"/>
<path opacity="0.4" d="M224.83 334.68C224.83 334.68 248.33 352.68 258.76 386.41C259.338 388.317 260.512 389.988 262.111 391.178C263.709 392.368 265.647 393.014 267.64 393.02H299.09L262.6 333.67L243.36 325.67L224.83 334.68Z" fill="black"/>
<path d="M408 365.5C407.926 366.127 407.622 366.705 407.148 367.123C406.674 367.54 406.062 367.767 405.43 367.76H400.81C400.387 367.759 399.969 367.848 399.583 368.021C399.197 368.193 398.852 368.445 398.57 368.76L384.7 384C384.283 384.459 383.797 384.85 383.26 385.16C374.077 390.306 363.726 393.006 353.2 393H288.62C286.904 392.981 285.257 392.32 284.003 391.149C282.748 389.978 281.977 388.381 281.84 386.67C280.27 368 269 354.31 259.57 345.9C256.546 343.217 253.342 340.745 249.98 338.5C247.622 336.956 244.858 336.148 242.04 336.18H227.18C225.3 336.18 223.97 333.79 224.55 332.01C227 324.57 231.55 316.58 236.07 309.71C240.129 303.582 244.536 297.693 249.27 292.07H270.06C271.111 292.089 272.142 292.366 273.062 292.875C273.983 293.383 274.765 294.11 275.34 294.99C276.405 296.508 276.848 298.375 276.58 300.21C275.306 308.753 275.212 317.431 276.3 326C279.3 351.36 290.56 374.42 296.45 384.92C297.473 386.802 298.974 388.381 300.801 389.497C302.629 390.614 304.719 391.229 306.86 391.28H323C334.81 387.89 343.94 354.83 343.94 346.19C343.94 337.06 334.65 314.93 334.65 314.93H381V325.93C381.85 326.03 381.43 326.14 381.7 326.27C399.43 333.39 405.62 351.57 407.82 362.16C408.052 363.257 408.113 364.384 408 365.5Z" fill="#263238"/>
<path d="M260.52 285.18H266.44C268.002 285.179 269.516 284.642 270.73 283.66L282.94 273.78C283.422 273.392 284.022 273.18 284.64 273.18H308.09C308.324 273.198 308.559 273.167 308.78 273.09C309.001 273.013 309.204 272.891 309.376 272.732C309.548 272.573 309.685 272.38 309.778 272.166C309.872 271.951 309.921 271.719 309.921 271.485C309.921 271.251 309.872 271.019 309.778 270.804C309.685 270.59 309.548 270.397 309.376 270.238C309.204 270.079 309.001 269.957 308.78 269.88C308.559 269.803 308.324 269.772 308.09 269.79H284.64C283.243 269.792 281.887 270.271 280.8 271.15L268.59 281C267.982 281.492 267.223 281.76 266.44 281.76H260.52C259.697 281.755 258.904 281.456 258.282 280.916C257.66 280.377 257.252 279.634 257.13 278.82L256.59 275.01C256.382 273.562 255.663 272.237 254.562 271.274C253.462 270.311 252.053 269.774 250.59 269.76H246.12C245.887 269.742 245.652 269.773 245.431 269.85C245.21 269.927 245.007 270.049 244.835 270.208C244.663 270.367 244.526 270.56 244.432 270.774C244.338 270.989 244.29 271.221 244.29 271.455C244.29 271.689 244.338 271.921 244.432 272.136C244.526 272.35 244.663 272.543 244.835 272.702C245.007 272.861 245.21 272.983 245.431 273.06C245.652 273.137 245.887 273.168 246.12 273.15H250.59C251.242 273.153 251.871 273.39 252.363 273.817C252.855 274.245 253.177 274.835 253.27 275.48L253.81 279.29C254.042 280.911 254.845 282.396 256.076 283.476C257.307 284.556 258.883 285.161 260.52 285.18Z" fill="#2E353A"/>
<path d="M275.36 289.73L272.71 294H248.07L246.14 290.36C245.828 289.779 245.71 289.113 245.803 288.46C245.897 287.806 246.197 287.2 246.66 286.73L253.98 279.24C254.256 278.955 254.573 278.713 254.92 278.52C255.096 278.419 255.28 278.332 255.47 278.26C255.935 278.08 256.431 277.988 256.93 277.99H270.93C270.93 277.99 270.86 281.99 274.61 281.75L275.84 286.09C276.017 286.697 276.066 287.334 275.983 287.961C275.901 288.587 275.688 289.19 275.36 289.73Z" fill="#00B4D8"/>
<path opacity="0.4" d="M261.69 283.37H264.42L253.37 290.11L251.01 283.11H253.85L254.92 278.53C255.097 278.429 255.281 278.342 255.47 278.27C255.936 278.09 256.431 277.998 256.93 278H269.17L261.69 283.37Z" fill="white"/>
<path opacity="0.4" d="M267.37 277.98L255.09 287.42L264.78 277.98H267.37Z" fill="white"/>
<path opacity="0.4" d="M257.12 278L253.77 287.44L255.47 278.27C255.936 278.09 256.431 277.998 256.93 278H257.12Z" fill="white"/>
<path d="M316.49 313.8V317C316.49 319.89 318.86 321.77 321.75 321.77H379.12C382.03 321.77 384.35 319.89 384.35 317V313.8C384.35 310.91 382.03 309.03 379.12 309.03H321.75C318.86 309 316.49 310.91 316.49 313.8Z" fill="#2E353A"/>
<path opacity="0.2" d="M379.58 309.03H339.92C337.286 309.03 335.15 311.166 335.15 313.8V316.98C335.15 319.614 337.286 321.75 339.92 321.75H379.58C382.214 321.75 384.35 319.614 384.35 316.98V313.8C384.35 311.166 382.214 309.03 379.58 309.03Z" fill="white"/>
<path d="M408 365.5C407.926 366.127 407.623 366.705 407.148 367.123C406.674 367.54 406.062 367.767 405.43 367.76H400.81C400.387 367.759 399.969 367.848 399.583 368.021C399.197 368.193 398.852 368.445 398.57 368.76L384.7 384C384.283 384.459 383.797 384.85 383.26 385.16C374.077 390.306 363.726 393.006 353.2 393H342.37V372.56C342.369 366.585 343.68 360.683 346.21 355.27L353.86 338.9C355.61 335.151 358.393 331.98 361.882 329.759C365.372 327.537 369.423 326.358 373.56 326.36H380.72L381.54 326.31C388.351 329.083 394.212 333.772 398.41 339.81C398.83 340.39 399.23 340.98 399.62 341.57C400.885 343.519 402.011 345.554 402.99 347.66C403.812 349.391 404.543 351.163 405.18 352.97C406.265 355.981 407.134 359.066 407.78 362.2C408.022 363.282 408.096 364.395 408 365.5Z" fill="#00B4D8"/>
<path d="M294.474 258.352L285.282 270.37L286.633 271.403L295.824 259.385L294.474 258.352Z" fill="#2E353A"/>
<path d="M300 256.86H295.67C295.221 256.86 294.782 256.992 294.407 257.239C294.032 257.486 293.738 257.838 293.56 258.25L293 259.6C292.849 259.949 292.787 260.33 292.82 260.709C292.853 261.088 292.98 261.453 293.19 261.771C293.399 262.088 293.684 262.349 294.02 262.528C294.355 262.708 294.73 262.801 295.11 262.8H299.82C300.377 262.8 300.915 262.596 301.332 262.228C301.75 261.86 302.02 261.352 302.09 260.8L302.29 259.45C302.331 259.125 302.303 258.796 302.207 258.483C302.11 258.17 301.948 257.882 301.732 257.637C301.515 257.391 301.248 257.195 300.95 257.061C300.651 256.927 300.327 256.859 300 256.86Z" fill="#00B4D8"/>
<path d="M251.29 260.235L249.627 260.585L251.889 271.329L253.553 270.979L251.29 260.235Z" fill="#2E353A"/>
<path d="M245.38 256.86H250C250.457 256.86 250.899 257.025 251.244 257.324C251.589 257.624 251.815 258.038 251.88 258.49L252.18 260.64C252.219 260.908 252.199 261.182 252.123 261.442C252.047 261.702 251.916 261.942 251.738 262.147C251.561 262.352 251.342 262.516 251.095 262.629C250.849 262.742 250.581 262.8 250.31 262.8H245.65C245.194 262.799 244.754 262.634 244.41 262.335C244.067 262.035 243.843 261.622 243.78 261.17L243.47 259.02C243.431 258.748 243.451 258.472 243.53 258.209C243.608 257.946 243.743 257.703 243.925 257.498C244.107 257.292 244.331 257.129 244.582 257.018C244.834 256.908 245.106 256.854 245.38 256.86Z" fill="#00B4D8"/>
<path d="M275.94 305.3C275.479 310.317 275.422 315.364 275.77 320.39C275.897 322.29 276.073 324.173 276.3 326.04L265.9 345.9H259.57L258.96 345.37L258.34 344.83C255.687 342.558 252.902 340.445 250 338.5C247.642 336.956 244.878 336.148 242.06 336.18H227.18C225.3 336.18 223.97 333.79 224.55 332.01C227 324.57 231.55 316.58 236.07 309.71C236.191 317.725 235.585 325.734 234.26 333.64H241.4C241.4 333.64 254.4 315.18 265.51 311.64L275.34 295C276.405 296.518 276.848 298.385 276.58 300.22C276.31 301.9 276.1 303.6 275.94 305.3Z" fill="#00B4D8"/>
<path d="M234.26 314.81C234.627 320.082 233.972 325.376 232.33 330.4H226.21C226.21 330.4 230.18 319.58 234.26 314.81Z" fill="#00B4D8"/>
<path opacity="0.7" d="M234.26 314.81C234.627 320.082 233.972 325.376 232.33 330.4H226.21C226.21 330.4 230.18 319.58 234.26 314.81Z" fill="white"/>
<path d="M263.22 314.81C263.42 314.69 257.07 331.53 257.07 331.53H247.75C251.268 324.638 256.622 318.852 263.22 314.81Z" fill="#00B4D8"/>
<path opacity="0.7" d="M263.22 314.81C263.42 314.69 257.07 331.53 257.07 331.53H247.75C251.268 324.638 256.622 318.852 263.22 314.81Z" fill="white"/>
<path d="M254.75 330.71C256.368 330.71 257.68 329.018 257.68 326.93C257.68 324.842 256.368 323.15 254.75 323.15C253.132 323.15 251.82 324.842 251.82 326.93C251.82 329.018 253.132 330.71 254.75 330.71Z" fill="white"/>
<path d="M233 325.67C233 327.75 232.08 329.45 230.94 329.45C229.8 329.45 228.87 327.75 228.87 325.67C228.87 323.59 229.8 321.88 230.94 321.88C232.08 321.88 233 323.58 233 325.67Z" fill="white"/>
<path d="M260.4 321.23C260.331 321.498 260.188 321.741 259.988 321.931C259.788 322.122 259.538 322.253 259.268 322.309C258.997 322.365 258.716 322.344 258.456 322.249C258.197 322.154 257.969 321.987 257.799 321.769C257.63 321.551 257.524 321.289 257.495 321.014C257.467 320.739 257.515 320.462 257.636 320.213C257.757 319.964 257.945 319.755 258.179 319.607C258.413 319.46 258.684 319.381 258.96 319.38C259.393 319.442 259.785 319.67 260.053 320.015C260.322 320.36 260.446 320.795 260.4 321.23Z" fill="white"/>
<path d="M233.81 320.26C233.81 321.26 233.37 322.11 232.81 322.11C232.25 322.11 231.81 321.29 231.81 320.26C231.81 319.23 232.25 318.42 232.81 318.42C233.37 318.42 233.81 319.24 233.81 320.26Z" fill="white"/>
<path opacity="0.4" d="M275.77 320.39L263.22 345.39H259L258.38 344.85L262.28 343.15L269.77 323.9L266.6 324.79L275.98 305.32C275.506 310.33 275.436 315.369 275.77 320.39Z" fill="white"/>
<path d="M262.24 294.92C262.24 294.92 257.84 322.64 243.3 322.83C229.67 323 228.4 297 241.4 293C251.91 289.76 262.24 294.92 262.24 294.92Z" fill="#263238"/>
<path d="M262.24 294.92C262.24 294.92 257.84 322.64 243.3 322.83C229.67 323 228.4 297 241.4 293C251.91 289.76 262.24 294.92 262.24 294.92Z" fill="#00B4D8"/>
<path opacity="0.7" d="M253.256 308.868C254.099 301.86 250.324 295.643 244.825 294.981C239.325 294.32 234.183 299.464 233.34 306.472C232.497 313.48 236.272 319.697 241.772 320.358C247.271 321.02 252.413 315.876 253.256 308.868Z" fill="white"/>
<path d="M245.77 311C245.77 314.11 243.77 316.64 241.4 316.64C239.03 316.64 237 314.1 237 311C237 307.9 239 305.36 241.38 305.36C243.76 305.36 245.77 307.88 245.77 311Z" fill="white"/>
<path d="M249.47 303.66C249.47 305.22 248.47 306.48 247.29 306.48C246.11 306.48 245.1 305.22 245.1 303.66C245.1 302.1 246.1 300.84 247.29 300.84C248.48 300.84 249.47 302.1 249.47 303.66Z" fill="white"/>
<path d="M407.2 359.66H402.87C402.504 359.66 402.153 359.805 401.894 360.064C401.636 360.323 401.49 360.674 401.49 361.04V363.46C401.49 363.826 401.636 364.177 401.894 364.436C402.153 364.695 402.504 364.84 402.87 364.84H408C408.23 363.968 408.278 363.058 408.14 362.167C408.002 361.275 407.682 360.422 407.2 359.66Z" fill="#00B4D8"/>
<path opacity="0.7" d="M407.2 359.66H402.87C402.504 359.66 402.153 359.805 401.894 360.064C401.636 360.323 401.49 360.674 401.49 361.04V363.46C401.49 363.826 401.636 364.177 401.894 364.436C402.153 364.695 402.504 364.84 402.87 364.84H408C408.23 363.968 408.278 363.058 408.14 362.167C408.002 361.275 407.682 360.422 407.2 359.66Z" fill="white"/>
<path opacity="0.4" d="M380.25 360.41L385.25 367.78C368.71 385.56 346.09 387.93 342.38 388.2V387.15C367.56 382.93 378.13 366.74 378.13 366.74L370.34 357C373.64 352.414 377.823 348.532 382.643 345.584C387.463 342.635 392.824 340.679 398.41 339.83C398.83 340.41 399.23 341 399.62 341.59C400.884 343.539 402.01 345.574 402.99 347.68C403.811 349.411 404.542 351.183 405.18 352.99C389.21 353.86 380.25 360.41 380.25 360.41Z" fill="white"/>
<path opacity="0.4" d="M374.43 357.51L376.5 361.36L372.58 356.85C379.806 349.115 389.229 343.782 399.58 341.57C400.844 343.519 401.971 345.554 402.95 347.66C392.798 348.643 383.024 352.018 374.43 357.51Z" fill="white"/>
<path opacity="0.3" d="M380 369.42C361.05 385.71 345.37 387.91 342.34 388.19V387.19C360.46 385.17 377.9 371.18 380 369.42Z" fill="white"/>
<path d="M295.81 269.79C295.81 269.79 295.67 268.96 293.49 268.96C291.31 268.96 290.54 272.12 290.54 272.12L291.42 274.79H294.42L295.85 274.28C295.85 274.28 301.25 275.68 301.74 276.57C302.23 277.46 303.01 277.66 302.74 276.57C302.47 275.48 296.67 273.14 296.67 273.14L295.81 269.79Z" fill="#2E353A"/>
<path d="M252.24 270C252.088 269.678 251.847 269.407 251.546 269.217C251.245 269.028 250.896 268.928 250.54 268.93C250.296 268.901 250.049 268.922 249.814 268.993C249.579 269.063 249.36 269.182 249.173 269.34C248.985 269.499 248.832 269.694 248.723 269.914C248.615 270.134 248.552 270.375 248.54 270.62C248.485 271.285 248.485 271.954 248.54 272.62L247.34 273.56C247.34 273.56 243.66 275.29 243.34 275.56C243.02 275.83 242.88 276.79 243.53 276.69C244.18 276.59 245.17 275.69 246.36 275.01C247.35 274.545 248.419 274.274 249.51 274.21L251.74 272.84L252.24 270Z" fill="#2E353A"/>
<path d="M234.7 336.67L220.02 384.48L223.75 386.78L238.49 340.38L234.7 336.67Z" fill="#263238"/>
<path opacity="0.6" d="M234.7 336.67L220.02 384.48L223.75 386.78L238.49 340.38L234.7 336.67Z" fill="white"/>
<path d="M240.82 336.18L234.7 355.83H233.54C231.39 353.28 229.54 353.48 229.54 353.48L228.77 352.35L233.41 336.18H240.82Z" fill="#2E353A"/>
<path d="M225.66 383.78C225.66 386.25 224.25 388.26 222.52 388.26C220.79 388.26 219.38 386.26 219.38 383.78C219.38 381.3 220.79 379.3 222.52 379.3C224.25 379.3 225.66 381.3 225.66 383.78Z" fill="#2E353A"/>
<path d="M265.64 382.4H259.32C258.465 382.402 257.625 382.171 256.89 381.733C256.156 381.294 255.554 380.664 255.15 379.91C251.85 373.72 242.24 357.85 228.72 353.91C211.84 349.03 237.9 346.1 247.29 352.84C256.68 359.58 265.64 382.4 265.64 382.4Z" fill="#00B4D8"/>
<path opacity="0.4" d="M265.64 382.4H259.32C258.465 382.402 257.625 382.171 256.89 381.733C256.156 381.294 255.554 380.664 255.15 379.91C251.85 373.72 242.24 357.85 228.72 353.91C211.84 349.03 237.9 346.1 247.29 352.84C256.68 359.58 265.64 382.4 265.64 382.4Z" fill="black"/>
<path d="M228.72 417.27C243.433 417.27 255.36 402.876 255.36 385.12C255.36 367.364 243.433 352.97 228.72 352.97C214.007 352.97 202.08 367.364 202.08 385.12C202.08 402.876 214.007 417.27 228.72 417.27Z" fill="#2E353A"/>
<path d="M233.18 405.4C242.458 405.4 249.98 396.32 249.98 385.12C249.98 373.92 242.458 364.84 233.18 364.84C223.901 364.84 216.38 373.92 216.38 385.12C216.38 396.32 223.901 405.4 233.18 405.4Z" fill="black"/>
<path d="M237.04 393.3C240.906 393.3 244.04 389.517 244.04 384.85C244.04 380.183 240.906 376.4 237.04 376.4C233.174 376.4 230.04 380.183 230.04 384.85C230.04 389.517 233.174 393.3 237.04 393.3Z" fill="#263238"/>
<path opacity="0.4" d="M237.04 393.3C240.906 393.3 244.04 389.517 244.04 384.85C244.04 380.183 240.906 376.4 237.04 376.4C233.174 376.4 230.04 380.183 230.04 384.85C230.04 389.517 233.174 393.3 237.04 393.3Z" fill="black"/>
<path d="M207.2 365H210.2C212.657 364.991 215.046 364.187 217.01 362.71C221.61 359.26 231.34 353.49 241.44 356.83C253.14 360.71 261.08 376.05 263.34 380.91C263.547 381.356 263.877 381.734 264.292 381.998C264.706 382.262 265.188 382.402 265.68 382.4C265.68 382.4 262 352.4 241.44 344.19C221.44 336.27 207.99 352.93 205.08 362.03C204.971 362.368 204.942 362.726 204.996 363.077C205.05 363.427 205.185 363.76 205.392 364.049C205.598 364.338 205.869 364.574 206.183 364.74C206.497 364.905 206.845 364.994 207.2 365Z" fill="#00B4D8"/>
<path d="M255 342.08L250.63 355.83L240.8 386.78L237 384.47L246.52 353.47L250.92 339.14C252.13 340 253.48 340.94 255 342.08Z" fill="#263238"/>
<path opacity="0.6" d="M255 342.08L250.63 355.83L240.8 386.78L237 384.47L246.52 353.47L250.92 339.14C252.13 340 253.48 340.94 255 342.08Z" fill="white"/>
<path d="M255.78 342.73L251.7 355.83H250.54C248.39 353.28 246.54 353.48 246.54 353.48L245.77 352.35L249.77 338.35C249.839 338.386 249.906 338.426 249.97 338.47L250.97 339.12C252.16 339.93 253.51 340.91 254.97 342.05L255.78 342.73Z" fill="#2E353A"/>
<path d="M242.66 383.78C242.66 386.25 241.25 388.26 239.52 388.26C237.79 388.26 236.38 386.26 236.38 383.78C236.38 381.3 237.79 379.3 239.52 379.3C241.25 379.3 242.66 381.3 242.66 383.78Z" fill="#2E353A"/>
<path d="M324.74 232L323.91 242.74L323.54 247.42C323.54 247.42 322.16 250.1 320.06 253.35C316.58 258.73 311.13 265.67 306.76 264.55C299.76 262.76 304 250.23 304 250.23L310.05 251.82C310.05 251.82 320 232.41 324.74 232Z" fill="#00B4D8"/>
<path opacity="0.2" d="M323.91 242.77L323.54 247.45C323.54 247.45 322.16 250.13 320.06 253.38C318.66 248.5 323.06 241.01 323.06 241.01C323.46 241.533 323.749 242.132 323.91 242.77Z" fill="black"/>
<path d="M356 216.85C356 216.85 354.65 220.95 357.77 228.93C361.68 238.93 356.98 249.93 344.77 249.46C332.56 248.99 332.12 241.02 331.43 232.58C330.74 224.14 334.48 210.82 338.19 210.77C341.9 210.72 356 216.85 356 216.85Z" fill="#263238"/>
<path d="M351.53 277.68C358.87 290.26 362.14 301.12 353.07 312.44C344 323.76 325.28 350.34 324.87 353.05C324.46 355.76 340 394.25 340 394.25L333.33 398.46C333.33 398.46 306.79 356.19 304.85 346.62C302.91 337.05 327.21 302.51 327.21 302.51C327.21 302.51 324.07 287.67 323.51 275.51C322.95 263.35 351.53 277.68 351.53 277.68Z" fill="#00B4D8"/>
<path opacity="0.6" d="M351.53 277.68C358.87 290.26 362.14 301.12 353.07 312.44C344 323.76 325.28 350.34 324.87 353.05C324.46 355.76 340 394.25 340 394.25L333.33 398.46C333.33 398.46 306.79 356.19 304.85 346.62C302.91 337.05 327.21 302.51 327.21 302.51C327.21 302.51 324.07 287.67 323.51 275.51C322.95 263.35 351.53 277.68 351.53 277.68Z" fill="white"/>
<path d="M339.52 412.32L344.62 409.7L341.82 402.16L339.24 395.25L332.67 397.37L336.29 405.28L339.52 412.32Z" fill="#E4897B"/>
<path d="M345.35 409C345.35 408.36 337.57 408.86 337.57 408.86C337.57 408.86 332.78 413.72 328.14 414.86C323.5 416 326.09 418.74 331.28 418.74H344.12C347.81 418.74 345.51 415.59 345.35 409Z" fill="#00B4D8"/>
<path d="M332.79 410.7C332.679 410.599 332.601 410.466 332.567 410.32C332.533 410.173 332.545 410.02 332.6 409.88C332.63 409.768 332.683 409.663 332.755 409.571C332.827 409.48 332.917 409.405 333.02 409.35C333.569 409.12 334.174 409.054 334.76 409.16C334.13 408.82 333.58 408.41 333.55 408C333.55 407.74 333.71 407.52 334.06 407.35C334.217 407.277 334.387 407.24 334.56 407.24C334.733 407.24 334.903 407.277 335.06 407.35C336.11 407.79 336.77 409.6 336.79 409.68C336.81 409.731 336.81 409.789 336.79 409.84L336.72 409.9C335.711 410.415 334.622 410.753 333.5 410.9C333.246 410.926 332.992 410.855 332.79 410.7ZM333.22 409.7C333.165 409.728 333.117 409.768 333.08 409.816C333.042 409.864 333.014 409.92 333 409.98C332.92 410.28 333 410.36 333.05 410.39C333.42 410.69 334.84 410.26 335.99 409.77C335.09 409.494 334.132 409.47 333.22 409.7ZM334.22 407.7C334.11 407.7 333.94 407.85 333.94 407.96C333.94 408.31 335.07 408.91 336.22 409.35C335.972 408.662 335.505 408.076 334.89 407.68C334.792 407.638 334.687 407.614 334.58 407.61C334.46 407.621 334.343 407.658 334.24 407.72L334.22 407.7Z" fill="#263238"/>
<path opacity="0.2" d="M336.37 405.44L341.89 402.3L339.27 395.32L332.69 397.4L336.37 405.44Z" fill="black"/>
<path d="M340.82 392.65L329.32 396.56L332.41 400.37L341.84 397.04L340.82 392.65Z" fill="#00B4D8"/>
<path d="M351.53 273.58V277.68L323.54 275.54V270.69L351.53 273.58Z" fill="#263238"/>
<path d="M329.61 276.325L335.735 276.874L336.151 272.233L330.026 271.684L329.61 276.325Z" fill="white"/>
<path d="M341.766 278.953L343.154 279.023L343.515 271.953L342.127 271.882L341.766 278.953Z" fill="#00B4D8"/>
<path opacity="0.6" d="M341.766 278.953L343.154 279.023L343.515 271.953L342.127 271.882L341.766 278.953Z" fill="white"/>
<path d="M324.658 277.081L326.046 277.152L326.407 270.081L325.019 270.011L324.658 277.081Z" fill="#00B4D8"/>
<path opacity="0.6" d="M324.658 277.081L326.046 277.152L326.407 270.081L325.019 270.011L324.658 277.081Z" fill="white"/>
<path d="M360.63 235.38C360.003 237.087 359.423 238.707 358.89 240.24C358.07 242.57 357.34 244.71 356.7 246.68C354.674 252.532 353.187 258.557 352.26 264.68C351.83 267.68 351.61 270.57 351.39 273.81L323.39 271.53C322.26 252.96 322.76 242.76 323.28 237.65C323.84 232.22 324.73 232.02 324.73 232.02C324.73 232.02 330.98 231.44 336.44 231.48C340.65 231.625 344.845 232.046 349 232.74C352.933 233.352 356.819 234.234 360.63 235.38Z" fill="#00B4D8"/>
<path d="M338.75 237.68C345.66 236.8 347.75 233.85 347.75 233.85C343.37 229.72 347.01 222.56 347.01 222.56L338.7 224.11C338.891 225.268 339.002 226.437 339.03 227.61C339.09 232.61 336.81 232.7 336.81 232.7C335.33 235.43 338.75 237.68 338.75 237.68Z" fill="#E4897B"/>
<path opacity="0.2" d="M338.68 224.11C338.872 225.268 338.982 226.437 339.01 227.61C343.01 226.68 347.01 222.56 347.01 222.56L338.68 224.11Z" fill="black"/>
<path d="M329.5 201.06C329.5 201.06 325.06 218.06 336.26 221.75C347.46 225.44 334.48 193.22 329.5 201.06Z" fill="#00B4D8"/>
<path opacity="0.2" d="M329.5 201.06C329.5 201.06 325.06 218.06 336.26 221.75C347.46 225.44 334.48 193.22 329.5 201.06Z" fill="black"/>
<path d="M348.62 196.48C359.96 198.48 361.08 226.94 345.18 222.56C340.5 221.27 324.96 206.18 333.09 201.15C337.731 198.178 343.11 196.561 348.62 196.48Z" fill="#263238"/>
<path d="M339.72 201.31C332.66 201.65 330.57 205.54 330.41 212.83C330.2 221.95 332.52 228.31 341.25 225.94C353.11 222.73 351.43 200.74 339.72 201.31Z" fill="#E4897B"/>
<path d="M335 212.22C334.485 213.293 333.844 214.3 333.09 215.22C333.309 215.5 333.602 215.715 333.935 215.84C334.269 215.965 334.63 215.996 334.98 215.93L335 212.22Z" fill="#DE5753"/>
<path d="M339.24 211.43C339.24 212.01 339.58 212.43 339.97 212.43C340.36 212.43 340.65 211.94 340.64 211.36C340.63 210.78 340.3 210.31 339.91 210.36C339.52 210.41 339.22 210.85 339.24 211.43Z" fill="#263238"/>
<path d="M340.08 210.39L338.8 209.92C338.8 209.92 339.46 211 340.08 210.39Z" fill="#263238"/>
<path d="M332 211.49C332 212.07 332.34 212.49 332.73 212.49C333.12 212.49 333.42 212.01 333.4 211.43C333.38 210.85 333.06 210.38 332.68 210.43C332.3 210.48 332 210.91 332 211.49Z" fill="#263238"/>
<path d="M332.86 210.45L331.58 209.98C331.58 209.98 332.24 211 332.86 210.45Z" fill="#263238"/>
<path d="M342.19 207.83C342.139 207.83 342.089 207.82 342.042 207.799C341.996 207.778 341.954 207.748 341.92 207.71C341.547 207.375 341.104 207.128 340.623 206.988C340.141 206.848 339.635 206.818 339.14 206.9C339.095 206.909 339.048 206.908 339.003 206.899C338.958 206.889 338.915 206.871 338.877 206.845C338.839 206.819 338.807 206.786 338.781 206.747C338.756 206.708 338.739 206.665 338.73 206.62C338.722 206.575 338.722 206.528 338.732 206.483C338.741 206.438 338.759 206.395 338.785 206.357C338.811 206.319 338.845 206.286 338.883 206.261C338.922 206.236 338.965 206.219 339.01 206.21C339.622 206.098 340.251 206.13 340.848 206.303C341.446 206.477 341.994 206.787 342.45 207.21C342.483 207.243 342.51 207.281 342.528 207.324C342.546 207.367 342.555 207.413 342.555 207.46C342.555 207.507 342.546 207.553 342.528 207.596C342.51 207.638 342.483 207.677 342.45 207.71C342.419 207.748 342.379 207.779 342.334 207.8C342.289 207.82 342.24 207.831 342.19 207.83Z" fill="#263238"/>
<path d="M331.15 207.58C331.074 207.583 330.999 207.561 330.936 207.518C330.874 207.474 330.827 207.412 330.803 207.339C330.779 207.267 330.78 207.189 330.805 207.117C330.829 207.045 330.877 206.983 330.94 206.94C331.364 206.584 331.864 206.329 332.401 206.196C332.938 206.062 333.499 206.053 334.04 206.17C334.128 206.2 334.2 206.262 334.243 206.344C334.286 206.426 334.296 206.521 334.27 206.61C334.256 206.654 334.234 206.695 334.205 206.73C334.175 206.766 334.139 206.795 334.098 206.817C334.057 206.838 334.012 206.851 333.966 206.855C333.92 206.859 333.874 206.854 333.83 206.84C333.394 206.763 332.947 206.783 332.52 206.898C332.093 207.014 331.697 207.223 331.36 207.51C331.297 207.551 331.225 207.575 331.15 207.58Z" fill="#263238"/>
<path d="M348 212.83C348 212.83 344.42 207.19 344.71 202.69C344.71 202.69 330.45 197.69 330.44 211.88C330.44 211.88 328.44 199.34 340.58 198.48C352.72 197.62 353.51 215.36 347.5 220.95C347.5 221 350.22 216.36 348 212.83Z" fill="#263238"/>
<path d="M346.92 214.37C346.933 213.963 347.026 213.562 347.194 213.191C347.362 212.82 347.601 212.485 347.898 212.207C348.195 211.928 348.545 211.711 348.926 211.567C349.307 211.424 349.713 211.357 350.12 211.37C352.32 211.51 353.57 215.95 348.19 217.29C347.41 217.49 346.94 216.75 346.92 214.37Z" fill="#E4897B"/>
<path d="M348.62 196.48C348.62 196.48 338.54 194.17 331.57 199.74C324.6 205.31 343.46 206.1 343.46 206.1L338.91 203.48C338.91 203.48 344.7 205.74 347.36 205.13L348.62 196.48Z" fill="#263238"/>
<path d="M337.3 207C336.51 206.88 329.59 205.74 329.3 203.24C329.01 200.74 332.39 199.24 332.54 199.16C332.569 199.147 332.6 199.139 332.632 199.138C332.664 199.137 332.695 199.142 332.725 199.153C332.755 199.164 332.782 199.181 332.805 199.203C332.828 199.225 332.847 199.251 332.86 199.28C332.884 199.34 332.883 199.406 332.859 199.466C332.835 199.526 332.789 199.574 332.73 199.6C332.73 199.6 329.53 201.01 329.79 203.19C330 204.99 335.34 206.19 337.38 206.52C337.412 206.525 337.442 206.536 337.469 206.553C337.497 206.57 337.52 206.592 337.539 206.618C337.558 206.644 337.571 206.673 337.578 206.705C337.585 206.736 337.586 206.768 337.58 206.8C337.575 206.832 337.564 206.862 337.547 206.889C337.53 206.917 337.508 206.94 337.482 206.959C337.456 206.978 337.426 206.991 337.395 206.998C337.364 207.005 337.331 207.006 337.3 207Z" fill="#263238"/>
<path d="M334.68 217.39C335.11 218.166 335.484 218.971 335.8 219.8L336.26 219.7C338.32 219.25 339.14 218.36 339.41 217.51C339.586 216.845 339.533 216.141 339.26 215.51C338.107 216.357 336.783 216.944 335.38 217.23C335 217.34 334.68 217.39 334.68 217.39Z" fill="#263238"/>
<path d="M335.38 217.23L335.73 217.93C337.68 217.5 338.99 216.93 339.47 216.22C339.431 215.975 339.36 215.737 339.26 215.51C338.106 216.357 336.782 216.944 335.38 217.23Z" fill="white"/>
<path d="M336.26 219.7C338.32 219.25 339.14 218.36 339.41 217.51C338.623 217.709 337.878 218.048 337.21 218.51C336.778 218.799 336.446 219.215 336.26 219.7Z" fill="#DE5753"/>
<path d="M331.3 221.17C331.686 222.063 332.319 222.827 333.126 223.371C333.932 223.915 334.878 224.217 335.85 224.24C340.4 224.3 346.65 219.24 346.65 219.24L347.45 221.12C347.45 221.12 341.2 225.72 336.2 225.72C333.54 225.75 331 223 331.3 221.17Z" fill="#263238"/>
<path d="M337.89 225.59L337.3 224.11C336.527 223.845 335.724 223.677 334.91 223.61C334.425 223.591 333.941 223.687 333.5 223.89C333.557 224.325 333.741 224.733 334.029 225.064C334.318 225.395 334.697 225.634 335.12 225.75C336.043 225.908 336.991 225.854 337.89 225.59Z" fill="#263238"/>
<path opacity="0.5" d="M337.89 225.59L337.3 224.11C336.527 223.845 335.724 223.677 334.91 223.61C334.425 223.591 333.941 223.687 333.5 223.89C333.557 224.325 333.741 224.733 334.029 225.064C334.318 225.395 334.697 225.634 335.12 225.75C336.043 225.908 336.991 225.854 337.89 225.59Z" fill="white"/>
<path d="M358.46 216C355.81 221.3 350.6 224.92 346.99 221.79C343.38 218.66 345.81 204.63 345.81 204.63C338 201.35 329.5 203.27 329.5 203.27C329.32 197.87 335.38 191.37 348.08 194.27C349.978 194.643 351.779 195.401 353.374 196.497C354.968 197.592 356.321 199.002 357.35 200.64C357.56 200.964 357.753 201.297 357.93 201.64C358.299 202.346 358.606 203.082 358.85 203.84C359.135 204.687 359.349 205.557 359.49 206.44C360.11 209.658 359.751 212.988 358.46 216Z" fill="#00B4D8"/>
<path d="M329.5 201.06C335.268 199.62 341.334 199.937 346.92 201.97C347.628 203.409 348.217 204.904 348.68 206.44C348.83 207.51 326.82 206.13 325.55 204.87C324.28 203.61 328.43 203.11 328.43 203.11L329.5 201.06Z" fill="#263238"/>
<path opacity="0.4" d="M356.7 208.25L357.14 209.92L346.92 217.65L354.52 209.65L352 205.33L357.35 200.66C357.56 200.984 357.753 201.317 357.93 201.66C358.299 202.366 358.606 203.102 358.85 203.86C359.135 204.707 359.349 205.577 359.49 206.46L356.7 208.25Z" fill="white"/>
<path opacity="0.4" d="M358.85 203.89L354.47 206.8L354.91 208.25L353.52 205.75L357.93 201.69C358.299 202.396 358.606 203.132 358.85 203.89Z" fill="white"/>
<path d="M317 241.18C317.013 241.279 317.005 241.379 316.975 241.474C316.946 241.569 316.896 241.657 316.83 241.731C316.763 241.805 316.681 241.864 316.59 241.903C316.499 241.943 316.4 241.962 316.3 241.96H308.54C308.325 241.955 308.118 241.874 307.957 241.731C307.796 241.588 307.691 241.393 307.66 241.18L305.93 225.88C305.915 225.775 305.921 225.668 305.948 225.566C305.975 225.464 306.023 225.368 306.089 225.284C306.154 225.201 306.236 225.132 306.329 225.081C306.422 225.031 306.525 225 306.63 224.99H314.39C314.614 225.018 314.822 225.122 314.98 225.283C315.138 225.445 315.237 225.655 315.26 225.88L317 241.18Z" fill="#263238"/>
<path opacity="0.5" d="M314.41 225.78L316.17 241.23C316.192 241.32 316.193 241.414 316.172 241.504C316.151 241.594 316.109 241.678 316.05 241.749C315.991 241.821 315.915 241.877 315.83 241.913C315.745 241.95 315.653 241.966 315.56 241.96H309C308.56 241.96 307.76 241.72 307.71 241.28L305.95 225.78C305.9 225.34 306.65 224.99 307.1 224.99H313.67C313.87 225.005 314.057 225.095 314.194 225.241C314.331 225.387 314.408 225.58 314.41 225.78Z" fill="white"/>
<path d="M304.69 250.44L307.27 242.8C306.912 241.202 306.741 239.568 306.76 237.93C306.94 236.17 311.64 234.93 311.89 235.33C312.14 235.73 313.71 240.87 313.14 242.21C312.57 243.55 309.79 244.04 309.79 244.04L308.18 251.36L304.69 250.44Z" fill="#E4897B"/>
<path d="M348.46 227.61C348.46 227.61 341.79 230.61 339.52 230.12C338.52 229.92 336.43 227.61 336.43 227.61L334.66 231.5C334.66 231.5 335.21 236.23 337.43 239C339.65 241.77 350.35 233.47 350.35 233.47L348.46 227.61Z" fill="#00B4D8"/>
<path opacity="0.2" d="M335 233.13C335 233.13 334.85 239.13 337.59 240.76C340.33 242.39 348.13 235.12 348.13 235.12C348.13 235.12 337.76 243.78 335 233.13Z" fill="black"/>
<path d="M334.49 270.65H333.49C333.49 256.65 337.98 239.36 338.3 238.12L338.18 231.5H339.18L339.3 238.26V238.33C339.24 238.49 334.51 256.31 334.49 270.65Z" fill="#263238"/>
<path opacity="0.2" d="M356.7 246.68C354.674 252.532 353.188 258.557 352.26 264.68C335.41 262.05 329.68 244.42 329.51 243.85C329.84 244.09 346.04 255.74 353.11 243.49L356.7 246.68Z" fill="black"/>
<path d="M335.86 244.79L330.77 240.26C330.77 240.26 329.09 237.65 328.63 237.07C328.17 236.49 320.75 237.68 320.75 237.68C320.75 237.68 322.1 241.01 322.51 241.96C322.92 242.91 325.91 242.91 327.3 242.91H328.68L333 248L335.86 244.79Z" fill="#E4897B"/>
<path d="M360.63 235.38C363.7 238.12 358.63 263.88 349.37 261.38C340.11 258.88 330.37 247.18 330.37 247.18L332.7 241.64C332.7 241.64 344.79 250.97 347.43 251.06C350.07 251.15 351.43 248.67 353.1 243.49C354.77 238.31 360.63 235.38 360.63 235.38Z" fill="#00B4D8"/>
</svg>
