<svg width="107" height="85" viewBox="0 0 107 85" fill="none" xmlns="http://www.w3.org/2000/svg">
<path d="M26.6667 0C11.9391 0 0 7.81574 0 17.4569V52.3707C0 58.4428 4.73565 63.7904 11.921 66.9181C4.73565 70.0458 0 75.3934 0 81.4655C0 83.0721 1.98987 84.375 4.44444 84.375C6.89902 84.375 8.88889 83.0721 8.88889 81.4655C8.88889 75.0379 16.8483 69.8276 26.6667 69.8276C29.1212 69.8276 31.1111 68.5247 31.1111 66.9181C31.1111 65.3115 29.1212 64.0086 26.6667 64.0086C23.3698 64.0086 20.2824 63.4209 17.6357 62.3973L48.9336 41.9088C51.3635 40.3179 55.3031 40.3179 57.7333 41.9088L89.0311 62.3973C86.384 63.4209 83.2969 64.0086 80 64.0086C77.5458 64.0086 75.5556 65.3115 75.5556 66.9181C75.5556 68.5247 77.5458 69.8276 80 69.8276C89.8187 69.8276 97.7778 75.0379 97.7778 81.4655C97.7778 83.0721 99.768 84.375 102.222 84.375C104.676 84.375 106.667 83.0721 106.667 81.4655C106.667 75.3934 101.931 70.0458 94.7458 66.9181C101.931 63.7904 106.667 58.4428 106.667 52.3707V17.4569C106.667 7.81574 94.728 0 80 0H26.6667ZM42.6482 37.794L11.3503 58.2828C9.78631 56.5499 8.88889 54.5289 8.88889 52.3707V17.4569C8.88889 11.0294 16.8483 5.81897 26.6667 5.81897H80C89.8187 5.81897 97.7778 11.0294 97.7778 17.4569V52.3707C97.7778 54.5289 96.88 56.5499 95.3164 58.2828L64.0187 37.794C58.1173 33.9309 48.5494 33.9309 42.6482 37.794ZM48.8889 64.0086C46.4343 64.0086 44.4444 65.3115 44.4444 66.9181C44.4444 68.5247 46.4343 69.8276 48.8889 69.8276H57.7778C60.232 69.8276 62.2222 68.5247 62.2222 66.9181C62.2222 65.3115 60.232 64.0086 57.7778 64.0086H48.8889ZM80 23.2759C80 26.4896 76.0204 29.0948 71.1111 29.0948C66.2018 29.0948 62.2222 26.4896 62.2222 23.2759C62.2222 20.0622 66.2018 17.4569 71.1111 17.4569C76.0204 17.4569 80 20.0622 80 23.2759Z" fill="#FFE254"/>
</svg>
